0, 0, Header, 1, 2, 15360
1, 0, Start_track
1, 0, Title_t, "Transport"
1, 0, Instrument_name_t, "Hardware Interface II"
1, 0, MIDI_port, 0
1, 0, Tempo, 461538
1, 0, Time_signature, 4, 2, 24, 8
1, 9368927, End_track
2, 0, Start_track
2, 0, Title_t, "Piano Ch1"
2, 0, Instrument_name_t, "Piano Ch1"
2, 0, MIDI_port, 2
2, 1000, Note_on_c, 0, 74, 80
2, 1000, Note_on_c, 0, 86, 80
2, 7680, Note_off_c, 0, 74, 0
2, 7680, Note_off_c, 0, 86, 0
2, 7680, Note_on_c, 0, 76, 79
2, 7680, Note_on_c, 0, 88, 79
2, 15360, Note_off_c, 0, 76, 0
2, 15360, Note_off_c, 0, 88, 0
2, 15360, Note_on_c, 0, 72, 79
2, 15360, Note_on_c, 0, 84, 79
2, 23040, Note_off_c, 0, 72, 0
2, 23040, Note_off_c, 0, 84, 0
2, 23040, Note_on_c, 0, 69, 79
2, 23040, Note_on_c, 0, 81, 79
2, 38400, Note_off_c, 0, 69, 0
2, 38400, Note_off_c, 0, 81, 0
2, 38400, Note_on_c, 0, 71, 77
2, 38400, Note_on_c, 0, 83, 77
2, 46080, Note_off_c, 0, 71, 0
2, 46080, Note_off_c, 0, 83, 0
2, 46080, Note_on_c, 0, 67, 77
2, 46080, Note_on_c, 0, 79, 77
2, 61440, Note_off_c, 0, 67, 0
2, 61440, Note_off_c, 0, 79, 0
2, 61440, Note_on_c, 0, 62, 80
2, 61440, Note_on_c, 0, 74, 80
2, 69120, Note_off_c, 0, 62, 0
2, 69120, Note_off_c, 0, 74, 0
2, 69120, Note_on_c, 0, 64, 82
2, 69120, Note_on_c, 0, 76, 82
2, 76800, Note_off_c, 0, 64, 0
2, 76800, Note_off_c, 0, 76, 0
2, 76800, Note_on_c, 0, 60, 82
2, 76800, Note_on_c, 0, 72, 82
2, 84480, Note_off_c, 0, 60, 0
2, 84480, Note_off_c, 0, 72, 0
2, 84480, Note_on_c, 0, 57, 82
2, 84480, Note_on_c, 0, 69, 82
2, 99840, Note_off_c, 0, 57, 0
2, 99840, Note_off_c, 0, 69, 0
2, 99840, Note_on_c, 0, 59, 82
2, 99840, Note_on_c, 0, 71, 82
2, 107520, Note_off_c, 0, 59, 0
2, 107520, Note_off_c, 0, 71, 0
2, 107520, Note_on_c, 0, 55, 82
2, 107520, Note_on_c, 0, 67, 82
2, 122880, Note_off_c, 0, 55, 0
2, 122880, Note_off_c, 0, 67, 0
2, 122880, Note_on_c, 0, 50, 82
2, 122880, Note_on_c, 0, 62, 82
2, 130560, Note_off_c, 0, 50, 0
2, 130560, Note_off_c, 0, 62, 0
2, 130560, Note_on_c, 0, 52, 82
2, 130560, Note_on_c, 0, 64, 82
2, 138240, Note_off_c, 0, 52, 0
2, 138240, Note_off_c, 0, 64, 0
2, 138240, Note_on_c, 0, 48, 82
2, 138240, Note_on_c, 0, 60, 82
2, 145920, Note_off_c, 0, 48, 0
2, 145920, Note_off_c, 0, 60, 0
2, 145920, Note_on_c, 0, 45, 82
2, 145920, Note_on_c, 0, 57, 82
2, 161280, Note_off_c, 0, 45, 0
2, 161280, Note_off_c, 0, 57, 0
2, 161280, Note_on_c, 0, 47, 80
2, 161280, Note_on_c, 0, 59, 80
2, 168960, Note_off_c, 0, 47, 0
2, 168960, Note_off_c, 0, 59, 0
2, 168960, Note_on_c, 0, 45, 80
2, 168960, Note_on_c, 0, 57, 80
2, 176640, Note_off_c, 0, 45, 0
2, 176640, Note_off_c, 0, 57, 0
2, 176640, Note_on_c, 0, 44, 80
2, 176640, Note_on_c, 0, 56, 80
2, 184320, Note_off_c, 0, 44, 0
2, 184320, Note_off_c, 0, 56, 0
2, 184320, Note_on_c, 0, 43, 80
2, 184320, Note_on_c, 0, 55, 80
2, 199680, Note_off_c, 0, 43, 0
2, 199680, Note_off_c, 0, 55, 0
2, 215040, Note_on_c, 0, 43, 127
2, 215040, Note_on_c, 0, 55, 127
2, 215040, Note_on_c, 0, 67, 127
2, 215040, Note_on_c, 0, 71, 127
2, 215040, Note_on_c, 0, 74, 127
2, 215040, Note_on_c, 0, 79, 127
2, 230400, Note_off_c, 0, 43, 0
2, 230400, Note_off_c, 0, 55, 0
2, 230400, Note_off_c, 0, 67, 0
2, 230400, Note_off_c, 0, 71, 0
2, 230400, Note_off_c, 0, 74, 0
2, 230400, Note_off_c, 0, 79, 0
2, 230400, Note_on_c, 0, 55, 102
2, 230400, Note_on_c, 0, 59, 102
2, 230400, Note_on_c, 0, 62, 102
2, 238080, Note_off_c, 0, 62, 0
2, 238080, Note_on_c, 0, 63, 102
2, 245760, Note_off_c, 0, 55, 0
2, 245760, Note_off_c, 0, 59, 0
2, 245760, Note_off_c, 0, 63, 0
2, 245760, Note_on_c, 0, 48, 102
2, 245760, Note_on_c, 0, 64, 102
2, 253440, Note_off_c, 0, 64, 0
2, 253440, Note_on_c, 0, 72, 102
2, 261120, Note_off_c, 0, 48, 0
2, 261120, Note_on_c, 0, 52, 101
2, 261120, Note_on_c, 0, 55, 101
2, 261120, Note_on_c, 0, 60, 101
2, 268800, Note_off_c, 0, 72, 0
2, 268800, Note_on_c, 0, 64, 100
2, 276480, Note_off_c, 0, 52, 0
2, 276480, Note_off_c, 0, 55, 0
2, 276480, Note_off_c, 0, 60, 0
2, 276480, Note_off_c, 0, 64, 0
2, 276480, Note_on_c, 0, 43, 100
2, 276480, Note_on_c, 0, 55, 100
2, 276480, Note_on_c, 0, 72, 100
2, 291840, Note_off_c, 0, 43, 0
2, 291840, Note_off_c, 0, 55, 0
2, 291840, Note_off_c, 0, 72, 0
2, 291840, Note_on_c, 0, 55, 100
2, 291840, Note_on_c, 0, 58, 100
2, 291840, Note_on_c, 0, 60, 100
2, 291840, Note_on_c, 0, 64, 100
2, 299520, Note_off_c, 0, 64, 0
2, 299520, Note_on_c, 0, 72, 100
2, 307200, Note_off_c, 0, 55, 0
2, 307200, Note_off_c, 0, 58, 0
2, 307200, Note_off_c, 0, 60, 0
2, 307200, Note_on_c, 0, 41, 102
2, 307200, Note_on_c, 0, 53, 102
2, 322560, Note_off_c, 0, 41, 0
2, 322560, Note_off_c, 0, 53, 0
2, 322560, Note_on_c, 0, 57, 100
2, 322560, Note_on_c, 0, 60, 100
2, 337920, Note_off_c, 0, 57, 0
2, 337920, Note_off_c, 0, 60, 0
2, 337920, Note_on_c, 0, 40, 104
2, 337920, Note_on_c, 0, 52, 104
2, 345600, Note_off_c, 0, 72, 0
2, 345600, Note_on_c, 0, 72, 104
2, 345600, Note_on_c, 0, 76, 104
2, 345600, Note_on_c, 0, 84, 104
2, 353280, Note_off_c, 0, 40, 0
2, 353280, Note_off_c, 0, 52, 0
2, 353280, Note_off_c, 0, 72, 0
2, 353280, Note_off_c, 0, 76, 0
2, 353280, Note_off_c, 0, 84, 0
2, 353280, Note_on_c, 0, 55, 104
2, 353280, Note_on_c, 0, 60, 104
2, 353280, Note_on_c, 0, 74, 104
2, 353280, Note_on_c, 0, 77, 104
2, 353280, Note_on_c, 0, 86, 104
2, 360960, Note_off_c, 0, 74, 0
2, 360960, Note_off_c, 0, 77, 0
2, 360960, Note_off_c, 0, 86, 0
2, 360960, Note_on_c, 0, 75, 104
2, 360960, Note_on_c, 0, 78, 104
2, 360960, Note_on_c, 0, 87, 104
2, 368640, Note_off_c, 0, 55, 0
2, 368640, Note_off_c, 0, 60, 0
2, 368640, Note_off_c, 0, 75, 0
2, 368640, Note_off_c, 0, 78, 0
2, 368640, Note_off_c, 0, 87, 0
2, 368640, Note_on_c, 0, 43, 104
2, 368640, Note_on_c, 0, 76, 104
2, 368640, Note_on_c, 0, 79, 104
2, 368640, Note_on_c, 0, 88, 104
2, 376320, Note_off_c, 0, 76, 0
2, 376320, Note_off_c, 0, 79, 0
2, 376320, Note_off_c, 0, 88, 0
2, 376320, Note_on_c, 0, 72, 104
2, 376320, Note_on_c, 0, 76, 104
2, 376320, Note_on_c, 0, 84, 104
2, 384000, Note_off_c, 0, 43, 0
2, 384000, Note_off_c, 0, 72, 0
2, 384000, Note_off_c, 0, 76, 0
2, 384000, Note_off_c, 0, 84, 0
2, 384000, Note_on_c, 0, 52, 104
2, 384000, Note_on_c, 0, 55, 104
2, 384000, Note_on_c, 0, 60, 104
2, 384000, Note_on_c, 0, 74, 104
2, 384000, Note_on_c, 0, 77, 104
2, 384000, Note_on_c, 0, 86, 104
2, 391680, Note_off_c, 0, 74, 0
2, 391680, Note_off_c, 0, 77, 0
2, 391680, Note_off_c, 0, 86, 0
2, 391680, Note_on_c, 0, 76, 104
2, 391680, Note_on_c, 0, 79, 104
2, 391680, Note_on_c, 0, 88, 104
2, 399360, Note_off_c, 0, 52, 0
2, 399360, Note_off_c, 0, 55, 0
2, 399360, Note_off_c, 0, 60, 0
2, 399360, Note_on_c, 0, 43, 100
2, 407040, Note_off_c, 0, 76, 0
2, 407040, Note_off_c, 0, 79, 0
2, 407040, Note_off_c, 0, 88, 0
2, 407040, Note_on_c, 0, 71, 104
2, 407040, Note_on_c, 0, 74, 104
2, 407040, Note_on_c, 0, 83, 104
2, 414720, Note_off_c, 0, 43, 0
2, 414720, Note_off_c, 0, 71, 0
2, 414720, Note_off_c, 0, 74, 0
2, 414720, Note_off_c, 0, 83, 0
2, 414720, Note_on_c, 0, 53, 104
2, 414720, Note_on_c, 0, 55, 104
2, 414720, Note_on_c, 0, 59, 104
2, 414720, Note_on_c, 0, 74, 104
2, 414720, Note_on_c, 0, 77, 104
2, 414720, Note_on_c, 0, 86, 104
2, 430080, Note_off_c, 0, 53, 0
2, 430080, Note_off_c, 0, 55, 0
2, 430080, Note_off_c, 0, 59, 0
2, 430080, Note_off_c, 0, 74, 0
2, 430080, Note_off_c, 0, 77, 0
2, 430080, Note_off_c, 0, 86, 0
2, 430080, Note_on_c, 0, 48, 104
2, 430080, Note_on_c, 0, 72, 104
2, 430080, Note_on_c, 0, 76, 104
2, 430080, Note_on_c, 0, 84, 104
2, 445440, Note_off_c, 0, 48, 0
2, 445440, Note_on_c, 0, 52, 104
2, 445440, Note_on_c, 0, 55, 104
2, 445440, Note_on_c, 0, 60, 104
2, 460800, Note_off_c, 0, 52, 0
2, 460800, Note_off_c, 0, 55, 0
2, 460800, Note_off_c, 0, 60, 0
2, 460800, Note_on_c, 0, 52, 104
2, 460800, Note_on_c, 0, 55, 104
2, 460800, Note_on_c, 0, 60, 104
2, 476160, Note_off_c, 0, 72, 0
2, 476160, Note_off_c, 0, 76, 0
2, 476160, Note_off_c, 0, 84, 0
2, 476160, Note_off_c, 0, 52, 0
2, 476160, Note_off_c, 0, 55, 0
2, 476160, Note_off_c, 0, 60, 0
2, 476160, Note_on_c, 0, 55, 104
2, 476160, Note_on_c, 0, 59, 104
2, 476160, Note_on_c, 0, 62, 104
2, 483840, Note_off_c, 0, 62, 0
2, 483840, Note_on_c, 0, 63, 104
2, 491520, Note_off_c, 0, 55, 0
2, 491520, Note_off_c, 0, 59, 0
2, 491520, Note_off_c, 0, 63, 0
2, 491520, Note_on_c, 0, 48, 100
2, 491520, Note_on_c, 0, 64, 100
2, 499200, Note_off_c, 0, 64, 0
2, 499200, Note_on_c, 0, 72, 100
2, 506880, Note_off_c, 0, 48, 0
2, 506880, Note_on_c, 0, 52, 100
2, 506880, Note_on_c, 0, 55, 100
2, 506880, Note_on_c, 0, 60, 100
2, 514560, Note_off_c, 0, 72, 0
2, 514560, Note_on_c, 0, 64, 100
2, 522240, Note_off_c, 0, 52, 0
2, 522240, Note_off_c, 0, 55, 0
2, 522240, Note_off_c, 0, 60, 0
2, 522240, Note_off_c, 0, 64, 0
2, 522240, Note_on_c, 0, 43, 100
2, 522240, Note_on_c, 0, 55, 100
2, 522240, Note_on_c, 0, 72, 100
2, 537600, Note_off_c, 0, 43, 0
2, 537600, Note_off_c, 0, 55, 0
2, 537600, Note_off_c, 0, 72, 0
2, 537600, Note_on_c, 0, 55, 100
2, 537600, Note_on_c, 0, 58, 100
2, 537600, Note_on_c, 0, 60, 100
2, 537600, Note_on_c, 0, 64, 100
2, 545280, Note_off_c, 0, 64, 0
2, 545280, Note_on_c, 0, 72, 102
2, 552960, Note_off_c, 0, 55, 0
2, 552960, Note_off_c, 0, 58, 0
2, 552960, Note_off_c, 0, 60, 0
2, 552960, Note_on_c, 0, 41, 102
2, 552960, Note_on_c, 0, 53, 102
2, 568320, Note_off_c, 0, 41, 0
2, 568320, Note_off_c, 0, 53, 0
2, 568320, Note_on_c, 0, 57, 100
2, 568320, Note_on_c, 0, 60, 100
2, 583680, Note_off_c, 0, 57, 0
2, 583680, Note_off_c, 0, 60, 0
2, 583680, Note_on_c, 0, 40, 100
2, 583680, Note_on_c, 0, 52, 100
2, 599040, Note_off_c, 0, 72, 0
2, 599040, Note_off_c, 0, 40, 0
2, 599040, Note_off_c, 0, 52, 0
2, 599040, Note_on_c, 0, 39, 100
2, 599040, Note_on_c, 0, 51, 100
2, 599040, Note_on_c, 0, 69, 100
2, 599040, Note_on_c, 0, 72, 100
2, 599040, Note_on_c, 0, 81, 100
2, 606720, Note_off_c, 0, 69, 0
2, 606720, Note_off_c, 0, 72, 0
2, 606720, Note_off_c, 0, 81, 0
2, 606720, Note_on_c, 0, 67, 109
2, 606720, Note_on_c, 0, 72, 109
2, 606720, Note_on_c, 0, 79, 109
2, 614400, Note_off_c, 0, 39, 0
2, 614400, Note_off_c, 0, 51, 0
2, 614400, Note_off_c, 0, 67, 0
2, 614400, Note_off_c, 0, 72, 0
2, 614400, Note_off_c, 0, 79, 0
2, 614400, Note_on_c, 0, 38, 124
2, 614400, Note_on_c, 0, 50, 124
2, 614400, Note_on_c, 0, 66, 124
2, 614400, Note_on_c, 0, 72, 124
2, 614400, Note_on_c, 0, 78, 124
2, 622080, Note_off_c, 0, 66, 0
2, 622080, Note_off_c, 0, 72, 0
2, 622080, Note_off_c, 0, 78, 0
2, 622080, Note_on_c, 0, 69, 124
2, 622080, Note_on_c, 0, 79, 124
2, 629760, Note_off_c, 0, 38, 0
2, 629760, Note_off_c, 0, 50, 0
2, 629760, Note_off_c, 0, 69, 0
2, 629760, Note_off_c, 0, 79, 0
2, 629760, Note_on_c, 0, 50, 124
2, 629760, Note_on_c, 0, 54, 124
2, 629760, Note_on_c, 0, 57, 124
2, 629760, Note_on_c, 0, 60, 124
2, 629760, Note_on_c, 0, 72, 124
2, 629760, Note_on_c, 0, 84, 124
2, 637440, Note_off_c, 0, 72, 0
2, 637440, Note_off_c, 0, 84, 0
2, 637440, Note_on_c, 0, 76, 125
2, 637440, Note_on_c, 0, 88, 125
2, 645120, Note_off_c, 0, 50, 0
2, 645120, Note_off_c, 0, 54, 0
2, 645120, Note_off_c, 0, 57, 0
2, 645120, Note_off_c, 0, 60, 0
2, 645120, Note_on_c, 0, 50, 125
2, 652800, Note_off_c, 0, 76, 0
2, 652800, Note_off_c, 0, 88, 0
2, 652800, Note_on_c, 0, 74, 125
2, 652800, Note_on_c, 0, 86, 125
2, 660480, Note_off_c, 0, 50, 0
2, 660480, Note_off_c, 0, 74, 0
2, 660480, Note_off_c, 0, 86, 0
2, 660480, Note_on_c, 0, 53, 125
2, 660480, Note_on_c, 0, 57, 125
2, 660480, Note_on_c, 0, 60, 125
2, 660480, Note_on_c, 0, 72, 125
2, 660480, Note_on_c, 0, 84, 125
2, 668160, Note_off_c, 0, 72, 0
2, 668160, Note_off_c, 0, 84, 0
2, 668160, Note_on_c, 0, 69, 125
2, 668160, Note_on_c, 0, 81, 125
2, 675840, Note_off_c, 0, 53, 0
2, 675840, Note_off_c, 0, 57, 0
2, 675840, Note_off_c, 0, 60, 0
2, 675840, Note_off_c, 0, 69, 0
2, 675840, Note_off_c, 0, 81, 0
2, 675840, Note_on_c, 0, 55, 127
2, 675840, Note_on_c, 0, 59, 127
2, 675840, Note_on_c, 0, 74, 127
2, 675840, Note_on_c, 0, 77, 127
2, 675840, Note_on_c, 0, 86, 127
2, 691200, Note_off_c, 0, 55, 0
2, 691200, Note_off_c, 0, 59, 0
2, 691200, Note_on_c, 0, 45, 127
2, 691200, Note_on_c, 0, 55, 127
2, 706560, Note_off_c, 0, 45, 0
2, 706560, Note_off_c, 0, 55, 0
2, 706560, Note_on_c, 0, 47, 124
2, 706560, Note_on_c, 0, 57, 124
2, 721920, Note_off_c, 0, 74, 0
2, 721920, Note_off_c, 0, 77, 0
2, 721920, Note_off_c, 0, 86, 0
2, 721920, Note_off_c, 0, 47, 0
2, 721920, Note_off_c, 0, 57, 0
2, 721920, Note_on_c, 0, 48, 100
2, 721920, Note_on_c, 0, 59, 100
2, 721920, Note_on_c, 0, 62, 104
2, 729600, Note_off_c, 0, 62, 0
2, 729600, Note_on_c, 0, 63, 104
2, 737280, Note_off_c, 0, 48, 0
2, 737280, Note_off_c, 0, 59, 0
2, 737280, Note_off_c, 0, 63, 0
2, 737280, Note_on_c, 0, 48, 80
2, 737280, Note_on_c, 0, 64, 80
2, 744960, Note_off_c, 0, 64, 0
2, 744960, Note_on_c, 0, 72, 64
2, 752640, Note_off_c, 0, 48, 0
2, 752640, Note_on_c, 0, 52, 64
2, 752640, Note_on_c, 0, 55, 64
2, 752640, Note_on_c, 0, 60, 64
2, 760320, Note_off_c, 0, 72, 0
2, 760320, Note_on_c, 0, 64, 64
2, 768000, Note_off_c, 0, 52, 0
2, 768000, Note_off_c, 0, 55, 0
2, 768000, Note_off_c, 0, 60, 0
2, 768000, Note_off_c, 0, 64, 0
2, 768000, Note_on_c, 0, 43, 64
2, 768000, Note_on_c, 0, 55, 64
2, 768000, Note_on_c, 0, 72, 64
2, 783360, Note_off_c, 0, 43, 0
2, 783360, Note_off_c, 0, 55, 0
2, 783360, Note_off_c, 0, 72, 0
2, 783360, Note_on_c, 0, 55, 64
2, 783360, Note_on_c, 0, 58, 64
2, 783360, Note_on_c, 0, 60, 64
2, 783360, Note_on_c, 0, 64, 64
2, 791040, Note_off_c, 0, 64, 0
2, 791040, Note_on_c, 0, 72, 64
2, 798720, Note_off_c, 0, 55, 0
2, 798720, Note_off_c, 0, 58, 0
2, 798720, Note_off_c, 0, 60, 0
2, 798720, Note_on_c, 0, 41, 63
2, 798720, Note_on_c, 0, 53, 63
2, 814080, Note_off_c, 0, 41, 0
2, 814080, Note_off_c, 0, 53, 0
2, 814080, Note_on_c, 0, 57, 62
2, 814080, Note_on_c, 0, 60, 62
2, 829440, Note_off_c, 0, 57, 0
2, 829440, Note_off_c, 0, 60, 0
2, 829440, Note_on_c, 0, 40, 62
2, 829440, Note_on_c, 0, 52, 62
2, 837120, Note_off_c, 0, 72, 0
2, 837120, Note_on_c, 0, 72, 62
2, 837120, Note_on_c, 0, 76, 62
2, 837120, Note_on_c, 0, 84, 62
2, 844800, Note_off_c, 0, 40, 0
2, 844800, Note_off_c, 0, 52, 0
2, 844800, Note_off_c, 0, 72, 0
2, 844800, Note_off_c, 0, 76, 0
2, 844800, Note_off_c, 0, 84, 0
2, 844800, Note_on_c, 0, 55, 69
2, 844800, Note_on_c, 0, 60, 69
2, 844800, Note_on_c, 0, 74, 69
2, 844800, Note_on_c, 0, 77, 69
2, 844800, Note_on_c, 0, 86, 69
2, 852480, Note_off_c, 0, 74, 0
2, 852480, Note_off_c, 0, 77, 0
2, 852480, Note_off_c, 0, 86, 0
2, 852480, Note_on_c, 0, 75, 104
2, 852480, Note_on_c, 0, 78, 104
2, 852480, Note_on_c, 0, 87, 104
2, 860160, Note_off_c, 0, 55, 0
2, 860160, Note_off_c, 0, 60, 0
2, 860160, Note_off_c, 0, 75, 0
2, 860160, Note_off_c, 0, 78, 0
2, 860160, Note_off_c, 0, 87, 0
2, 860160, Note_on_c, 0, 43, 112
2, 860160, Note_on_c, 0, 76, 112
2, 860160, Note_on_c, 0, 79, 112
2, 860160, Note_on_c, 0, 88, 112
2, 867840, Note_off_c, 0, 76, 0
2, 867840, Note_off_c, 0, 79, 0
2, 867840, Note_off_c, 0, 88, 0
2, 867840, Note_on_c, 0, 72, 109
2, 867840, Note_on_c, 0, 76, 109
2, 867840, Note_on_c, 0, 84, 109
2, 875520, Note_off_c, 0, 43, 0
2, 875520, Note_off_c, 0, 72, 0
2, 875520, Note_off_c, 0, 76, 0
2, 875520, Note_off_c, 0, 84, 0
2, 875520, Note_on_c, 0, 52, 107
2, 875520, Note_on_c, 0, 55, 107
2, 875520, Note_on_c, 0, 60, 107
2, 875520, Note_on_c, 0, 74, 107
2, 875520, Note_on_c, 0, 77, 107
2, 875520, Note_on_c, 0, 86, 107
2, 883200, Note_off_c, 0, 74, 0
2, 883200, Note_off_c, 0, 77, 0
2, 883200, Note_off_c, 0, 86, 0
2, 883200, Note_on_c, 0, 76, 107
2, 883200, Note_on_c, 0, 79, 107
2, 883200, Note_on_c, 0, 88, 107
2, 890880, Note_off_c, 0, 52, 0
2, 890880, Note_off_c, 0, 55, 0
2, 890880, Note_off_c, 0, 60, 0
2, 890880, Note_on_c, 0, 43, 107
2, 898560, Note_off_c, 0, 76, 0
2, 898560, Note_off_c, 0, 79, 0
2, 898560, Note_off_c, 0, 88, 0
2, 898560, Note_on_c, 0, 71, 107
2, 898560, Note_on_c, 0, 74, 107
2, 898560, Note_on_c, 0, 83, 107
2, 906240, Note_off_c, 0, 43, 0
2, 906240, Note_off_c, 0, 71, 0
2, 906240, Note_off_c, 0, 74, 0
2, 906240, Note_off_c, 0, 83, 0
2, 906240, Note_on_c, 0, 53, 102
2, 906240, Note_on_c, 0, 55, 102
2, 906240, Note_on_c, 0, 59, 102
2, 906240, Note_on_c, 0, 74, 102
2, 906240, Note_on_c, 0, 77, 102
2, 906240, Note_on_c, 0, 86, 102
2, 921600, Note_off_c, 0, 53, 0
2, 921600, Note_off_c, 0, 55, 0
2, 921600, Note_off_c, 0, 59, 0
2, 921600, Note_off_c, 0, 74, 0
2, 921600, Note_off_c, 0, 77, 0
2, 921600, Note_off_c, 0, 86, 0
2, 921600, Note_on_c, 0, 48, 100
2, 921600, Note_on_c, 0, 72, 100
2, 921600, Note_on_c, 0, 76, 100
2, 921600, Note_on_c, 0, 84, 100
2, 936960, Note_off_c, 0, 48, 0
2, 936960, Note_on_c, 0, 52, 100
2, 936960, Note_on_c, 0, 55, 100
2, 936960, Note_on_c, 0, 60, 100
2, 952320, Note_off_c, 0, 52, 0
2, 952320, Note_off_c, 0, 55, 0
2, 952320, Note_off_c, 0, 60, 0
2, 952320, Note_on_c, 0, 55, 100
2, 952320, Note_on_c, 0, 60, 100
2, 952320, Note_on_c, 0, 64, 100
2, 967680, Note_off_c, 0, 72, 0
2, 967680, Note_off_c, 0, 76, 0
2, 967680, Note_off_c, 0, 84, 0
2, 967680, Note_off_c, 0, 55, 0
2, 967680, Note_off_c, 0, 60, 0
2, 967680, Note_off_c, 0, 64, 0
2, 967680, Note_on_c, 0, 72, 100
2, 967680, Note_on_c, 0, 84, 100
2, 975360, Note_off_c, 0, 72, 0
2, 975360, Note_off_c, 0, 84, 0
2, 975360, Note_on_c, 0, 74, 100
2, 975360, Note_on_c, 0, 86, 100
2, 983040, Note_off_c, 0, 74, 0
2, 983040, Note_off_c, 0, 86, 0
2, 983040, Note_on_c, 0, 48, 100
2, 983040, Note_on_c, 0, 60, 100
2, 983040, Note_on_c, 0, 76, 100
2, 983040, Note_on_c, 0, 88, 100
2, 990720, Note_off_c, 0, 76, 0
2, 990720, Note_off_c, 0, 88, 0
2, 990720, Note_on_c, 0, 72, 100
2, 990720, Note_on_c, 0, 84, 100
2, 998400, Note_off_c, 0, 48, 0
2, 998400, Note_off_c, 0, 60, 0
2, 998400, Note_off_c, 0, 72, 0
2, 998400, Note_off_c, 0, 84, 0
2, 998400, Note_on_c, 0, 55, 100
2, 998400, Note_on_c, 0, 60, 100
2, 998400, Note_on_c, 0, 67, 100
2, 998400, Note_on_c, 0, 74, 100
2, 998400, Note_on_c, 0, 86, 100
2, 1006080, Note_off_c, 0, 74, 0
2, 1006080, Note_off_c, 0, 86, 0
2, 1006080, Note_on_c, 0, 76, 100
2, 1006080, Note_on_c, 0, 88, 100
2, 1013760, Note_off_c, 0, 55, 0
2, 1013760, Note_off_c, 0, 60, 0
2, 1013760, Note_off_c, 0, 67, 0
2, 1013760, Note_on_c, 0, 46, 100
2, 1013760, Note_on_c, 0, 58, 100
2, 1021440, Note_off_c, 0, 76, 0
2, 1021440, Note_off_c, 0, 88, 0
2, 1021440, Note_on_c, 0, 72, 100
2, 1021440, Note_on_c, 0, 84, 100
2, 1029120, Note_off_c, 0, 46, 0
2, 1029120, Note_off_c, 0, 58, 0
2, 1029120, Note_off_c, 0, 72, 0
2, 1029120, Note_off_c, 0, 84, 0
2, 1029120, Note_on_c, 0, 55, 100
2, 1029120, Note_on_c, 0, 60, 100
2, 1029120, Note_on_c, 0, 67, 100
2, 1029120, Note_on_c, 0, 74, 100
2, 1029120, Note_on_c, 0, 86, 100
2, 1036800, Note_off_c, 0, 74, 0
2, 1036800, Note_off_c, 0, 86, 0
2, 1036800, Note_on_c, 0, 72, 100
2, 1036800, Note_on_c, 0, 84, 100
2, 1044480, Note_off_c, 0, 55, 0
2, 1044480, Note_off_c, 0, 60, 0
2, 1044480, Note_off_c, 0, 67, 0
2, 1044480, Note_off_c, 0, 72, 0
2, 1044480, Note_off_c, 0, 84, 0
2, 1044480, Note_on_c, 0, 45, 100
2, 1044480, Note_on_c, 0, 57, 100
2, 1044480, Note_on_c, 0, 76, 100
2, 1044480, Note_on_c, 0, 88, 100
2, 1052160, Note_off_c, 0, 76, 0
2, 1052160, Note_off_c, 0, 88, 0
2, 1052160, Note_on_c, 0, 72, 100
2, 1052160, Note_on_c, 0, 84, 100
2, 1059840, Note_off_c, 0, 45, 0
2, 1059840, Note_off_c, 0, 57, 0
2, 1059840, Note_off_c, 0, 72, 0
2, 1059840, Note_off_c, 0, 84, 0
2, 1059840, Note_on_c, 0, 57, 100
2, 1059840, Note_on_c, 0, 60, 100
2, 1059840, Note_on_c, 0, 65, 100
2, 1059840, Note_on_c, 0, 74, 100
2, 1059840, Note_on_c, 0, 86, 100
2, 1067520, Note_off_c, 0, 74, 0
2, 1067520, Note_off_c, 0, 86, 0
2, 1067520, Note_on_c, 0, 76, 100
2, 1067520, Note_on_c, 0, 88, 100
2, 1075200, Note_off_c, 0, 57, 0
2, 1075200, Note_off_c, 0, 60, 0
2, 1075200, Note_off_c, 0, 65, 0
2, 1075200, Note_on_c, 0, 44, 100
2, 1075200, Note_on_c, 0, 56, 100
2, 1082880, Note_off_c, 0, 76, 0
2, 1082880, Note_off_c, 0, 88, 0
2, 1082880, Note_on_c, 0, 72, 100
2, 1082880, Note_on_c, 0, 84, 100
2, 1090560, Note_off_c, 0, 44, 0
2, 1090560, Note_off_c, 0, 56, 0
2, 1090560, Note_off_c, 0, 72, 0
2, 1090560, Note_off_c, 0, 84, 0
2, 1090560, Note_on_c, 0, 57, 100
2, 1090560, Note_on_c, 0, 60, 100
2, 1090560, Note_on_c, 0, 65, 100
2, 1090560, Note_on_c, 0, 74, 100
2, 1090560, Note_on_c, 0, 86, 100
2, 1098240, Note_off_c, 0, 74, 0
2, 1098240, Note_off_c, 0, 86, 0
2, 1098240, Note_on_c, 0, 72, 100
2, 1098240, Note_on_c, 0, 84, 100
2, 1105920, Note_off_c, 0, 57, 0
2, 1105920, Note_off_c, 0, 60, 0
2, 1105920, Note_off_c, 0, 65, 0
2, 1105920, Note_off_c, 0, 72, 0
2, 1105920, Note_off_c, 0, 84, 0
2, 1105920, Note_on_c, 0, 43, 100
2, 1105920, Note_on_c, 0, 55, 100
2, 1105920, Note_on_c, 0, 76, 100
2, 1105920, Note_on_c, 0, 79, 100
2, 1105920, Note_on_c, 0, 88, 100
2, 1113600, Note_off_c, 0, 76, 0
2, 1113600, Note_off_c, 0, 79, 0
2, 1113600, Note_off_c, 0, 88, 0
2, 1113600, Note_on_c, 0, 72, 100
2, 1113600, Note_on_c, 0, 76, 100
2, 1113600, Note_on_c, 0, 84, 100
2, 1121280, Note_off_c, 0, 43, 0
2, 1121280, Note_off_c, 0, 55, 0
2, 1121280, Note_off_c, 0, 72, 0
2, 1121280, Note_off_c, 0, 76, 0
2, 1121280, Note_off_c, 0, 84, 0
2, 1121280, Note_on_c, 0, 57, 100
2, 1121280, Note_on_c, 0, 60, 100
2, 1121280, Note_on_c, 0, 64, 100
2, 1121280, Note_on_c, 0, 74, 100
2, 1121280, Note_on_c, 0, 77, 100
2, 1121280, Note_on_c, 0, 86, 100
2, 1128960, Note_off_c, 0, 74, 0
2, 1128960, Note_off_c, 0, 77, 0
2, 1128960, Note_off_c, 0, 86, 0
2, 1128960, Note_on_c, 0, 76, 100
2, 1128960, Note_on_c, 0, 79, 100
2, 1128960, Note_on_c, 0, 88, 100
2, 1136640, Note_off_c, 0, 57, 0
2, 1136640, Note_off_c, 0, 60, 0
2, 1136640, Note_off_c, 0, 64, 0
2, 1136640, Note_on_c, 0, 43, 100
2, 1144320, Note_off_c, 0, 76, 0
2, 1144320, Note_off_c, 0, 79, 0
2, 1144320, Note_off_c, 0, 88, 0
2, 1144320, Note_on_c, 0, 71, 100
2, 1144320, Note_on_c, 0, 74, 100
2, 1144320, Note_on_c, 0, 83, 100
2, 1152000, Note_off_c, 0, 43, 0
2, 1152000, Note_off_c, 0, 71, 0
2, 1152000, Note_off_c, 0, 74, 0
2, 1152000, Note_off_c, 0, 83, 0
2, 1152000, Note_on_c, 0, 55, 100
2, 1152000, Note_on_c, 0, 59, 100
2, 1152000, Note_on_c, 0, 74, 100
2, 1152000, Note_on_c, 0, 77, 100
2, 1152000, Note_on_c, 0, 86, 100
2, 1167360, Note_off_c, 0, 55, 0
2, 1167360, Note_off_c, 0, 59, 0
2, 1167360, Note_off_c, 0, 74, 0
2, 1167360, Note_off_c, 0, 77, 0
2, 1167360, Note_off_c, 0, 86, 0
2, 1167360, Note_on_c, 0, 48, 100
2, 1167360, Note_on_c, 0, 55, 100
2, 1167360, Note_on_c, 0, 60, 100
2, 1167360, Note_on_c, 0, 72, 104
2, 1167360, Note_on_c, 0, 76, 104
2, 1167360, Note_on_c, 0, 84, 104
2, 1182720, Note_off_c, 0, 48, 0
2, 1182720, Note_off_c, 0, 55, 0
2, 1182720, Note_off_c, 0, 60, 0
2, 1182720, Note_on_c, 0, 43, 100
2, 1182720, Note_on_c, 0, 55, 100
2, 1198080, Note_off_c, 0, 43, 0
2, 1198080, Note_off_c, 0, 55, 0
2, 1198080, Note_on_c, 0, 45, 100
2, 1198080, Note_on_c, 0, 57, 100
2, 1213440, Note_off_c, 0, 72, 0
2, 1213440, Note_off_c, 0, 76, 0
2, 1213440, Note_off_c, 0, 84, 0
2, 1213440, Note_off_c, 0, 45, 0
2, 1213440, Note_off_c, 0, 57, 0
2, 1213440, Note_on_c, 0, 47, 100
2, 1213440, Note_on_c, 0, 59, 100
2, 1213440, Note_on_c, 0, 62, 104
2, 1221120, Note_off_c, 0, 62, 0
2, 1221120, Note_on_c, 0, 63, 104
2, 1228800, Note_off_c, 0, 47, 0
2, 1228800, Note_off_c, 0, 59, 0
2, 1228800, Note_off_c, 0, 63, 0
2, 1228800, Note_on_c, 0, 48, 102
2, 1228800, Note_on_c, 0, 64, 102
2, 1236480, Note_off_c, 0, 64, 0
2, 1236480, Note_on_c, 0, 72, 102
2, 1244160, Note_off_c, 0, 48, 0
2, 1244160, Note_on_c, 0, 52, 101
2, 1244160, Note_on_c, 0, 55, 101
2, 1244160, Note_on_c, 0, 60, 101
2, 1251840, Note_off_c, 0, 72, 0
2, 1251840, Note_on_c, 0, 64, 100
2, 1259520, Note_off_c, 0, 52, 0
2, 1259520, Note_off_c, 0, 55, 0
2, 1259520, Note_off_c, 0, 60, 0
2, 1259520, Note_off_c, 0, 64, 0
2, 1259520, Note_on_c, 0, 43, 100
2, 1259520, Note_on_c, 0, 55, 100
2, 1259520, Note_on_c, 0, 72, 100
2, 1274880, Note_off_c, 0, 43, 0
2, 1274880, Note_off_c, 0, 55, 0
2, 1274880, Note_off_c, 0, 72, 0
2, 1274880, Note_on_c, 0, 55, 100
2, 1274880, Note_on_c, 0, 58, 100
2, 1274880, Note_on_c, 0, 60, 100
2, 1274880, Note_on_c, 0, 64, 100
2, 1282560, Note_off_c, 0, 64, 0
2, 1282560, Note_on_c, 0, 72, 100
2, 1290240, Note_off_c, 0, 55, 0
2, 1290240, Note_off_c, 0, 58, 0
2, 1290240, Note_off_c, 0, 60, 0
2, 1290240, Note_on_c, 0, 41, 102
2, 1290240, Note_on_c, 0, 53, 102
2, 1305600, Note_off_c, 0, 41, 0
2, 1305600, Note_off_c, 0, 53, 0
2, 1305600, Note_on_c, 0, 57, 100
2, 1305600, Note_on_c, 0, 60, 100
2, 1320960, Note_off_c, 0, 57, 0
2, 1320960, Note_off_c, 0, 60, 0
2, 1320960, Note_on_c, 0, 40, 104
2, 1320960, Note_on_c, 0, 52, 104
2, 1328640, Note_off_c, 0, 72, 0
2, 1328640, Note_on_c, 0, 72, 104
2, 1328640, Note_on_c, 0, 76, 104
2, 1328640, Note_on_c, 0, 84, 104
2, 1336320, Note_off_c, 0, 40, 0
2, 1336320, Note_off_c, 0, 52, 0
2, 1336320, Note_off_c, 0, 72, 0
2, 1336320, Note_off_c, 0, 76, 0
2, 1336320, Note_off_c, 0, 84, 0
2, 1336320, Note_on_c, 0, 55, 104
2, 1336320, Note_on_c, 0, 60, 104
2, 1336320, Note_on_c, 0, 74, 104
2, 1336320, Note_on_c, 0, 77, 104
2, 1336320, Note_on_c, 0, 86, 104
2, 1344000, Note_off_c, 0, 74, 0
2, 1344000, Note_off_c, 0, 77, 0
2, 1344000, Note_off_c, 0, 86, 0
2, 1344000, Note_on_c, 0, 75, 104
2, 1344000, Note_on_c, 0, 78, 104
2, 1344000, Note_on_c, 0, 87, 104
2, 1351680, Note_off_c, 0, 55, 0
2, 1351680, Note_off_c, 0, 60, 0
2, 1351680, Note_off_c, 0, 75, 0
2, 1351680, Note_off_c, 0, 78, 0
2, 1351680, Note_off_c, 0, 87, 0
2, 1351680, Note_on_c, 0, 43, 104
2, 1351680, Note_on_c, 0, 76, 104
2, 1351680, Note_on_c, 0, 79, 104
2, 1351680, Note_on_c, 0, 88, 104
2, 1359360, Note_off_c, 0, 76, 0
2, 1359360, Note_off_c, 0, 79, 0
2, 1359360, Note_off_c, 0, 88, 0
2, 1359360, Note_on_c, 0, 72, 104
2, 1359360, Note_on_c, 0, 76, 104
2, 1359360, Note_on_c, 0, 84, 104
2, 1367040, Note_off_c, 0, 43, 0
2, 1367040, Note_off_c, 0, 72, 0
2, 1367040, Note_off_c, 0, 76, 0
2, 1367040, Note_off_c, 0, 84, 0
2, 1367040, Note_on_c, 0, 52, 104
2, 1367040, Note_on_c, 0, 55, 104
2, 1367040, Note_on_c, 0, 60, 104
2, 1367040, Note_on_c, 0, 74, 104
2, 1367040, Note_on_c, 0, 77, 104
2, 1367040, Note_on_c, 0, 86, 104
2, 1374720, Note_off_c, 0, 74, 0
2, 1374720, Note_off_c, 0, 77, 0
2, 1374720, Note_off_c, 0, 86, 0
2, 1374720, Note_on_c, 0, 76, 104
2, 1374720, Note_on_c, 0, 79, 104
2, 1374720, Note_on_c, 0, 88, 104
2, 1382400, Note_off_c, 0, 52, 0
2, 1382400, Note_off_c, 0, 55, 0
2, 1382400, Note_off_c, 0, 60, 0
2, 1382400, Note_on_c, 0, 43, 100
2, 1390080, Note_off_c, 0, 76, 0
2, 1390080, Note_off_c, 0, 79, 0
2, 1390080, Note_off_c, 0, 88, 0
2, 1390080, Note_on_c, 0, 71, 104
2, 1390080, Note_on_c, 0, 74, 104
2, 1390080, Note_on_c, 0, 83, 104
2, 1397760, Note_off_c, 0, 43, 0
2, 1397760, Note_off_c, 0, 71, 0
2, 1397760, Note_off_c, 0, 74, 0
2, 1397760, Note_off_c, 0, 83, 0
2, 1397760, Note_on_c, 0, 53, 104
2, 1397760, Note_on_c, 0, 55, 104
2, 1397760, Note_on_c, 0, 59, 104
2, 1397760, Note_on_c, 0, 74, 104
2, 1397760, Note_on_c, 0, 77, 104
2, 1397760, Note_on_c, 0, 86, 104
2, 1413120, Note_off_c, 0, 53, 0
2, 1413120, Note_off_c, 0, 55, 0
2, 1413120, Note_off_c, 0, 59, 0
2, 1413120, Note_off_c, 0, 74, 0
2, 1413120, Note_off_c, 0, 77, 0
2, 1413120, Note_off_c, 0, 86, 0
2, 1413120, Note_on_c, 0, 48, 104
2, 1413120, Note_on_c, 0, 72, 104
2, 1413120, Note_on_c, 0, 76, 104
2, 1413120, Note_on_c, 0, 84, 104
2, 1428480, Note_off_c, 0, 48, 0
2, 1428480, Note_on_c, 0, 52, 104
2, 1428480, Note_on_c, 0, 55, 104
2, 1428480, Note_on_c, 0, 60, 104
2, 1443840, Note_off_c, 0, 52, 0
2, 1443840, Note_off_c, 0, 55, 0
2, 1443840, Note_off_c, 0, 60, 0
2, 1443840, Note_on_c, 0, 52, 104
2, 1443840, Note_on_c, 0, 55, 104
2, 1443840, Note_on_c, 0, 60, 104
2, 1459200, Note_off_c, 0, 72, 0
2, 1459200, Note_off_c, 0, 76, 0
2, 1459200, Note_off_c, 0, 84, 0
2, 1459200, Note_off_c, 0, 52, 0
2, 1459200, Note_off_c, 0, 55, 0
2, 1459200, Note_off_c, 0, 60, 0
2, 1459200, Note_on_c, 0, 55, 104
2, 1459200, Note_on_c, 0, 59, 104
2, 1459200, Note_on_c, 0, 62, 104
2, 1466880, Note_off_c, 0, 62, 0
2, 1466880, Note_on_c, 0, 63, 104
2, 1474560, Note_off_c, 0, 55, 0
2, 1474560, Note_off_c, 0, 59, 0
2, 1474560, Note_off_c, 0, 63, 0
2, 1474560, Note_on_c, 0, 48, 100
2, 1474560, Note_on_c, 0, 64, 100
2, 1482240, Note_off_c, 0, 64, 0
2, 1482240, Note_on_c, 0, 72, 100
2, 1489920, Note_off_c, 0, 48, 0
2, 1489920, Note_on_c, 0, 52, 100
2, 1489920, Note_on_c, 0, 55, 100
2, 1489920, Note_on_c, 0, 60, 100
2, 1497600, Note_off_c, 0, 72, 0
2, 1497600, Note_on_c, 0, 64, 100
2, 1505280, Note_off_c, 0, 52, 0
2, 1505280, Note_off_c, 0, 55, 0
2, 1505280, Note_off_c, 0, 60, 0
2, 1505280, Note_off_c, 0, 64, 0
2, 1505280, Note_on_c, 0, 43, 100
2, 1505280, Note_on_c, 0, 55, 100
2, 1505280, Note_on_c, 0, 72, 100
2, 1520640, Note_off_c, 0, 43, 0
2, 1520640, Note_off_c, 0, 55, 0
2, 1520640, Note_off_c, 0, 72, 0
2, 1520640, Note_on_c, 0, 55, 100
2, 1520640, Note_on_c, 0, 58, 100
2, 1520640, Note_on_c, 0, 60, 100
2, 1520640, Note_on_c, 0, 64, 100
2, 1528320, Note_off_c, 0, 64, 0
2, 1528320, Note_on_c, 0, 72, 100
2, 1536000, Note_off_c, 0, 55, 0
2, 1536000, Note_off_c, 0, 58, 0
2, 1536000, Note_off_c, 0, 60, 0
2, 1536000, Note_on_c, 0, 41, 99
2, 1536000, Note_on_c, 0, 53, 99
2, 1551360, Note_off_c, 0, 41, 0
2, 1551360, Note_off_c, 0, 53, 0
2, 1551360, Note_on_c, 0, 57, 100
2, 1551360, Note_on_c, 0, 60, 100
2, 1566720, Note_off_c, 0, 57, 0
2, 1566720, Note_off_c, 0, 60, 0
2, 1566720, Note_on_c, 0, 40, 100
2, 1566720, Note_on_c, 0, 52, 100
2, 1582080, Note_off_c, 0, 72, 0
2, 1582080, Note_off_c, 0, 40, 0
2, 1582080, Note_off_c, 0, 52, 0
2, 1582080, Note_on_c, 0, 39, 100
2, 1582080, Note_on_c, 0, 51, 100
2, 1582080, Note_on_c, 0, 69, 100
2, 1582080, Note_on_c, 0, 72, 100
2, 1582080, Note_on_c, 0, 81, 100
2, 1589760, Note_off_c, 0, 69, 0
2, 1589760, Note_off_c, 0, 72, 0
2, 1589760, Note_off_c, 0, 81, 0
2, 1589760, Note_on_c, 0, 67, 107
2, 1589760, Note_on_c, 0, 72, 107
2, 1589760, Note_on_c, 0, 79, 107
2, 1597440, Note_off_c, 0, 39, 0
2, 1597440, Note_off_c, 0, 51, 0
2, 1597440, Note_off_c, 0, 67, 0
2, 1597440, Note_off_c, 0, 72, 0
2, 1597440, Note_off_c, 0, 79, 0
2, 1597440, Note_on_c, 0, 38, 127
2, 1597440, Note_on_c, 0, 50, 127
2, 1597440, Note_on_c, 0, 66, 127
2, 1597440, Note_on_c, 0, 72, 127
2, 1597440, Note_on_c, 0, 78, 127
2, 1605120, Note_off_c, 0, 66, 0
2, 1605120, Note_off_c, 0, 72, 0
2, 1605120, Note_off_c, 0, 78, 0
2, 1605120, Note_on_c, 0, 69, 127
2, 1605120, Note_on_c, 0, 79, 127
2, 1612800, Note_off_c, 0, 38, 0
2, 1612800, Note_off_c, 0, 50, 0
2, 1612800, Note_off_c, 0, 69, 0
2, 1612800, Note_off_c, 0, 79, 0
2, 1612800, Note_on_c, 0, 50, 127
2, 1612800, Note_on_c, 0, 54, 127
2, 1612800, Note_on_c, 0, 57, 127
2, 1612800, Note_on_c, 0, 60, 127
2, 1612800, Note_on_c, 0, 72, 127
2, 1612800, Note_on_c, 0, 84, 127
2, 1620480, Note_off_c, 0, 72, 0
2, 1620480, Note_off_c, 0, 84, 0
2, 1620480, Note_on_c, 0, 76, 127
2, 1620480, Note_on_c, 0, 88, 127
2, 1628160, Note_off_c, 0, 50, 0
2, 1628160, Note_off_c, 0, 54, 0
2, 1628160, Note_off_c, 0, 57, 0
2, 1628160, Note_off_c, 0, 60, 0
2, 1628160, Note_on_c, 0, 50, 127
2, 1635840, Note_off_c, 0, 76, 0
2, 1635840, Note_off_c, 0, 88, 0
2, 1635840, Note_on_c, 0, 74, 127
2, 1635840, Note_on_c, 0, 86, 127
2, 1643520, Note_off_c, 0, 50, 0
2, 1643520, Note_off_c, 0, 74, 0
2, 1643520, Note_off_c, 0, 86, 0
2, 1643520, Note_on_c, 0, 54, 127
2, 1643520, Note_on_c, 0, 57, 127
2, 1643520, Note_on_c, 0, 60, 127
2, 1643520, Note_on_c, 0, 72, 127
2, 1643520, Note_on_c, 0, 84, 127
2, 1651200, Note_off_c, 0, 72, 0
2, 1651200, Note_off_c, 0, 84, 0
2, 1651200, Note_on_c, 0, 69, 127
2, 1651200, Note_on_c, 0, 81, 127
2, 1658880, Note_off_c, 0, 54, 0
2, 1658880, Note_off_c, 0, 57, 0
2, 1658880, Note_off_c, 0, 60, 0
2, 1658880, Note_off_c, 0, 69, 0
2, 1658880, Note_off_c, 0, 81, 0
2, 1658880, Note_on_c, 0, 55, 127
2, 1658880, Note_on_c, 0, 59, 127
2, 1658880, Note_on_c, 0, 74, 127
2, 1658880, Note_on_c, 0, 77, 127
2, 1658880, Note_on_c, 0, 86, 127
2, 1674240, Note_off_c, 0, 55, 0
2, 1674240, Note_off_c, 0, 59, 0
2, 1674240, Note_on_c, 0, 45, 126
2, 1674240, Note_on_c, 0, 55, 126
2, 1689600, Note_off_c, 0, 45, 0
2, 1689600, Note_off_c, 0, 55, 0
2, 1689600, Note_on_c, 0, 47, 124
2, 1689600, Note_on_c, 0, 57, 124
2, 1704960, Note_off_c, 0, 74, 0
2, 1704960, Note_off_c, 0, 77, 0
2, 1704960, Note_off_c, 0, 86, 0
2, 1704960, Note_off_c, 0, 47, 0
2, 1704960, Note_off_c, 0, 57, 0
2, 1704960, Note_on_c, 0, 48, 113
2, 1704960, Note_on_c, 0, 59, 113
2, 1704960, Note_on_c, 0, 62, 113
2, 1712640, Note_off_c, 0, 62, 0
2, 1712640, Note_on_c, 0, 63, 102
2, 1720320, Note_off_c, 0, 48, 0
2, 1720320, Note_off_c, 0, 59, 0
2, 1720320, Note_off_c, 0, 63, 0
2, 1720320, Note_on_c, 0, 48, 77
2, 1720320, Note_on_c, 0, 64, 77
2, 1728000, Note_off_c, 0, 64, 0
2, 1728000, Note_on_c, 0, 72, 77
2, 1735680, Note_off_c, 0, 48, 0
2, 1735680, Note_on_c, 0, 52, 77
2, 1735680, Note_on_c, 0, 55, 77
2, 1735680, Note_on_c, 0, 60, 77
2, 1743360, Note_off_c, 0, 72, 0
2, 1743360, Note_on_c, 0, 64, 77
2, 1751040, Note_off_c, 0, 52, 0
2, 1751040, Note_off_c, 0, 55, 0
2, 1751040, Note_off_c, 0, 60, 0
2, 1751040, Note_off_c, 0, 64, 0
2, 1751040, Note_on_c, 0, 43, 77
2, 1751040, Note_on_c, 0, 55, 77
2, 1751040, Note_on_c, 0, 72, 77
2, 1766400, Note_off_c, 0, 43, 0
2, 1766400, Note_off_c, 0, 55, 0
2, 1766400, Note_off_c, 0, 72, 0
2, 1766400, Note_on_c, 0, 55, 77
2, 1766400, Note_on_c, 0, 58, 77
2, 1766400, Note_on_c, 0, 60, 77
2, 1766400, Note_on_c, 0, 64, 77
2, 1774080, Note_off_c, 0, 64, 0
2, 1774080, Note_on_c, 0, 72, 77
2, 1781760, Note_off_c, 0, 55, 0
2, 1781760, Note_off_c, 0, 58, 0
2, 1781760, Note_off_c, 0, 60, 0
2, 1781760, Note_on_c, 0, 41, 77
2, 1781760, Note_on_c, 0, 53, 77
2, 1797120, Note_off_c, 0, 41, 0
2, 1797120, Note_off_c, 0, 53, 0
2, 1797120, Note_on_c, 0, 57, 77
2, 1797120, Note_on_c, 0, 60, 77
2, 1812480, Note_off_c, 0, 57, 0
2, 1812480, Note_off_c, 0, 60, 0
2, 1812480, Note_on_c, 0, 40, 77
2, 1812480, Note_on_c, 0, 52, 77
2, 1820160, Note_off_c, 0, 72, 0
2, 1820160, Note_on_c, 0, 72, 77
2, 1820160, Note_on_c, 0, 76, 77
2, 1820160, Note_on_c, 0, 84, 77
2, 1827840, Note_off_c, 0, 40, 0
2, 1827840, Note_off_c, 0, 52, 0
2, 1827840, Note_off_c, 0, 72, 0
2, 1827840, Note_off_c, 0, 76, 0
2, 1827840, Note_off_c, 0, 84, 0
2, 1827840, Note_on_c, 0, 55, 77
2, 1827840, Note_on_c, 0, 60, 77
2, 1827840, Note_on_c, 0, 74, 77
2, 1827840, Note_on_c, 0, 77, 77
2, 1827840, Note_on_c, 0, 86, 77
2, 1835520, Note_off_c, 0, 74, 0
2, 1835520, Note_off_c, 0, 77, 0
2, 1835520, Note_off_c, 0, 86, 0
2, 1835520, Note_on_c, 0, 75, 100
2, 1835520, Note_on_c, 0, 78, 100
2, 1835520, Note_on_c, 0, 87, 100
2, 1843200, Note_off_c, 0, 55, 0
2, 1843200, Note_off_c, 0, 60, 0
2, 1843200, Note_off_c, 0, 75, 0
2, 1843200, Note_off_c, 0, 78, 0
2, 1843200, Note_off_c, 0, 87, 0
2, 1843200, Note_on_c, 0, 43, 110
2, 1843200, Note_on_c, 0, 76, 110
2, 1843200, Note_on_c, 0, 79, 110
2, 1843200, Note_on_c, 0, 88, 110
2, 1850880, Note_off_c, 0, 76, 0
2, 1850880, Note_off_c, 0, 79, 0
2, 1850880, Note_off_c, 0, 88, 0
2, 1850880, Note_on_c, 0, 72, 110
2, 1850880, Note_on_c, 0, 76, 110
2, 1850880, Note_on_c, 0, 84, 110
2, 1858560, Note_off_c, 0, 43, 0
2, 1858560, Note_off_c, 0, 72, 0
2, 1858560, Note_off_c, 0, 76, 0
2, 1858560, Note_off_c, 0, 84, 0
2, 1858560, Note_on_c, 0, 52, 110
2, 1858560, Note_on_c, 0, 55, 110
2, 1858560, Note_on_c, 0, 60, 110
2, 1858560, Note_on_c, 0, 74, 110
2, 1858560, Note_on_c, 0, 77, 110
2, 1858560, Note_on_c, 0, 86, 110
2, 1866240, Note_off_c, 0, 74, 0
2, 1866240, Note_off_c, 0, 77, 0
2, 1866240, Note_off_c, 0, 86, 0
2, 1866240, Note_on_c, 0, 76, 110
2, 1866240, Note_on_c, 0, 79, 110
2, 1866240, Note_on_c, 0, 88, 110
2, 1873920, Note_off_c, 0, 52, 0
2, 1873920, Note_off_c, 0, 55, 0
2, 1873920, Note_off_c, 0, 60, 0
2, 1873920, Note_on_c, 0, 43, 104
2, 1881600, Note_off_c, 0, 76, 0
2, 1881600, Note_off_c, 0, 79, 0
2, 1881600, Note_off_c, 0, 88, 0
2, 1881600, Note_on_c, 0, 71, 102
2, 1881600, Note_on_c, 0, 74, 102
2, 1881600, Note_on_c, 0, 83, 102
2, 1889280, Note_off_c, 0, 43, 0
2, 1889280, Note_off_c, 0, 71, 0
2, 1889280, Note_off_c, 0, 74, 0
2, 1889280, Note_off_c, 0, 83, 0
2, 1889280, Note_on_c, 0, 53, 100
2, 1889280, Note_on_c, 0, 55, 100
2, 1889280, Note_on_c, 0, 59, 100
2, 1889280, Note_on_c, 0, 74, 100
2, 1889280, Note_on_c, 0, 77, 100
2, 1889280, Note_on_c, 0, 86, 100
2, 1904640, Note_off_c, 0, 53, 0
2, 1904640, Note_off_c, 0, 55, 0
2, 1904640, Note_off_c, 0, 59, 0
2, 1904640, Note_off_c, 0, 74, 0
2, 1904640, Note_off_c, 0, 77, 0
2, 1904640, Note_off_c, 0, 86, 0
2, 1904640, Note_on_c, 0, 48, 100
2, 1904640, Note_on_c, 0, 72, 100
2, 1904640, Note_on_c, 0, 76, 100
2, 1904640, Note_on_c, 0, 84, 100
2, 1920000, Note_off_c, 0, 48, 0
2, 1920000, Note_on_c, 0, 52, 100
2, 1920000, Note_on_c, 0, 55, 100
2, 1920000, Note_on_c, 0, 60, 100
2, 1935360, Note_off_c, 0, 52, 0
2, 1935360, Note_off_c, 0, 55, 0
2, 1935360, Note_off_c, 0, 60, 0
2, 1935360, Note_on_c, 0, 55, 100
2, 1935360, Note_on_c, 0, 60, 100
2, 1935360, Note_on_c, 0, 64, 100
2, 1950720, Note_off_c, 0, 72, 0
2, 1950720, Note_off_c, 0, 76, 0
2, 1950720, Note_off_c, 0, 84, 0
2, 1950720, Note_off_c, 0, 55, 0
2, 1950720, Note_off_c, 0, 60, 0
2, 1950720, Note_off_c, 0, 64, 0
2, 1950720, Note_on_c, 0, 72, 100
2, 1950720, Note_on_c, 0, 84, 100
2, 1958400, Note_off_c, 0, 72, 0
2, 1958400, Note_off_c, 0, 84, 0
2, 1958400, Note_on_c, 0, 74, 100
2, 1958400, Note_on_c, 0, 86, 100
2, 1966080, Note_off_c, 0, 74, 0
2, 1966080, Note_off_c, 0, 86, 0
2, 1966080, Note_on_c, 0, 48, 100
2, 1966080, Note_on_c, 0, 60, 100
2, 1966080, Note_on_c, 0, 76, 100
2, 1966080, Note_on_c, 0, 88, 100
2, 1973760, Note_off_c, 0, 76, 0
2, 1973760, Note_off_c, 0, 88, 0
2, 1973760, Note_on_c, 0, 72, 100
2, 1973760, Note_on_c, 0, 84, 100
2, 1981440, Note_off_c, 0, 48, 0
2, 1981440, Note_off_c, 0, 60, 0
2, 1981440, Note_off_c, 0, 72, 0
2, 1981440, Note_off_c, 0, 84, 0
2, 1981440, Note_on_c, 0, 55, 100
2, 1981440, Note_on_c, 0, 60, 100
2, 1981440, Note_on_c, 0, 67, 100
2, 1981440, Note_on_c, 0, 74, 100
2, 1981440, Note_on_c, 0, 86, 100
2, 1989120, Note_off_c, 0, 74, 0
2, 1989120, Note_off_c, 0, 86, 0
2, 1989120, Note_on_c, 0, 76, 100
2, 1989120, Note_on_c, 0, 88, 100
2, 1996800, Note_off_c, 0, 55, 0
2, 1996800, Note_off_c, 0, 60, 0
2, 1996800, Note_off_c, 0, 67, 0
2, 1996800, Note_on_c, 0, 46, 100
2, 1996800, Note_on_c, 0, 58, 100
2, 2004480, Note_off_c, 0, 76, 0
2, 2004480, Note_off_c, 0, 88, 0
2, 2004480, Note_on_c, 0, 72, 100
2, 2004480, Note_on_c, 0, 84, 100
2, 2012160, Note_off_c, 0, 46, 0
2, 2012160, Note_off_c, 0, 58, 0
2, 2012160, Note_off_c, 0, 72, 0
2, 2012160, Note_off_c, 0, 84, 0
2, 2012160, Note_on_c, 0, 55, 100
2, 2012160, Note_on_c, 0, 60, 100
2, 2012160, Note_on_c, 0, 67, 100
2, 2012160, Note_on_c, 0, 74, 100
2, 2012160, Note_on_c, 0, 86, 100
2, 2019840, Note_off_c, 0, 74, 0
2, 2019840, Note_off_c, 0, 86, 0
2, 2019840, Note_on_c, 0, 72, 100
2, 2019840, Note_on_c, 0, 84, 100
2, 2027520, Note_off_c, 0, 55, 0
2, 2027520, Note_off_c, 0, 60, 0
2, 2027520, Note_off_c, 0, 67, 0
2, 2027520, Note_off_c, 0, 72, 0
2, 2027520, Note_off_c, 0, 84, 0
2, 2027520, Note_on_c, 0, 45, 100
2, 2027520, Note_on_c, 0, 57, 100
2, 2027520, Note_on_c, 0, 76, 100
2, 2027520, Note_on_c, 0, 88, 100
2, 2035200, Note_off_c, 0, 76, 0
2, 2035200, Note_off_c, 0, 88, 0
2, 2035200, Note_on_c, 0, 72, 100
2, 2035200, Note_on_c, 0, 84, 100
2, 2042880, Note_off_c, 0, 45, 0
2, 2042880, Note_off_c, 0, 57, 0
2, 2042880, Note_off_c, 0, 72, 0
2, 2042880, Note_off_c, 0, 84, 0
2, 2042880, Note_on_c, 0, 57, 100
2, 2042880, Note_on_c, 0, 60, 100
2, 2042880, Note_on_c, 0, 65, 100
2, 2042880, Note_on_c, 0, 74, 100
2, 2042880, Note_on_c, 0, 86, 100
2, 2050560, Note_off_c, 0, 74, 0
2, 2050560, Note_off_c, 0, 86, 0
2, 2050560, Note_on_c, 0, 76, 100
2, 2050560, Note_on_c, 0, 88, 100
2, 2058240, Note_off_c, 0, 57, 0
2, 2058240, Note_off_c, 0, 60, 0
2, 2058240, Note_off_c, 0, 65, 0
2, 2058240, Note_on_c, 0, 44, 100
2, 2058240, Note_on_c, 0, 56, 100
2, 2065920, Note_off_c, 0, 76, 0
2, 2065920, Note_off_c, 0, 88, 0
2, 2065920, Note_on_c, 0, 72, 100
2, 2065920, Note_on_c, 0, 84, 100
2, 2073600, Note_off_c, 0, 44, 0
2, 2073600, Note_off_c, 0, 56, 0
2, 2073600, Note_off_c, 0, 72, 0
2, 2073600, Note_off_c, 0, 84, 0
2, 2073600, Note_on_c, 0, 57, 100
2, 2073600, Note_on_c, 0, 60, 100
2, 2073600, Note_on_c, 0, 65, 100
2, 2073600, Note_on_c, 0, 74, 100
2, 2073600, Note_on_c, 0, 86, 100
2, 2081280, Note_off_c, 0, 74, 0
2, 2081280, Note_off_c, 0, 86, 0
2, 2081280, Note_on_c, 0, 72, 100
2, 2081280, Note_on_c, 0, 84, 100
2, 2088960, Note_off_c, 0, 57, 0
2, 2088960, Note_off_c, 0, 60, 0
2, 2088960, Note_off_c, 0, 65, 0
2, 2088960, Note_off_c, 0, 72, 0
2, 2088960, Note_off_c, 0, 84, 0
2, 2088960, Note_on_c, 0, 43, 100
2, 2088960, Note_on_c, 0, 55, 100
2, 2088960, Note_on_c, 0, 76, 100
2, 2088960, Note_on_c, 0, 79, 100
2, 2088960, Note_on_c, 0, 88, 100
2, 2096640, Note_off_c, 0, 76, 0
2, 2096640, Note_off_c, 0, 79, 0
2, 2096640, Note_off_c, 0, 88, 0
2, 2096640, Note_on_c, 0, 72, 100
2, 2096640, Note_on_c, 0, 76, 100
2, 2096640, Note_on_c, 0, 84, 100
2, 2104320, Note_off_c, 0, 43, 0
2, 2104320, Note_off_c, 0, 55, 0
2, 2104320, Note_off_c, 0, 72, 0
2, 2104320, Note_off_c, 0, 76, 0
2, 2104320, Note_off_c, 0, 84, 0
2, 2104320, Note_on_c, 0, 57, 100
2, 2104320, Note_on_c, 0, 60, 100
2, 2104320, Note_on_c, 0, 64, 100
2, 2104320, Note_on_c, 0, 74, 100
2, 2104320, Note_on_c, 0, 77, 100
2, 2104320, Note_on_c, 0, 86, 100
2, 2112000, Note_off_c, 0, 74, 0
2, 2112000, Note_off_c, 0, 77, 0
2, 2112000, Note_off_c, 0, 86, 0
2, 2112000, Note_on_c, 0, 76, 100
2, 2112000, Note_on_c, 0, 79, 100
2, 2112000, Note_on_c, 0, 88, 100
2, 2119680, Note_off_c, 0, 57, 0
2, 2119680, Note_off_c, 0, 60, 0
2, 2119680, Note_off_c, 0, 64, 0
2, 2119680, Note_on_c, 0, 43, 100
2, 2127360, Note_off_c, 0, 76, 0
2, 2127360, Note_off_c, 0, 79, 0
2, 2127360, Note_off_c, 0, 88, 0
2, 2127360, Note_on_c, 0, 71, 100
2, 2127360, Note_on_c, 0, 74, 100
2, 2127360, Note_on_c, 0, 83, 100
2, 2135040, Note_off_c, 0, 43, 0
2, 2135040, Note_off_c, 0, 71, 0
2, 2135040, Note_off_c, 0, 74, 0
2, 2135040, Note_off_c, 0, 83, 0
2, 2135040, Note_on_c, 0, 55, 100
2, 2135040, Note_on_c, 0, 59, 100
2, 2135040, Note_on_c, 0, 74, 100
2, 2135040, Note_on_c, 0, 77, 100
2, 2135040, Note_on_c, 0, 86, 100
2, 2150400, Note_off_c, 0, 55, 0
2, 2150400, Note_off_c, 0, 59, 0
2, 2150400, Note_off_c, 0, 74, 0
2, 2150400, Note_off_c, 0, 77, 0
2, 2150400, Note_off_c, 0, 86, 0
2, 2150400, Note_on_c, 0, 48, 100
2, 2150400, Note_on_c, 0, 55, 100
2, 2150400, Note_on_c, 0, 60, 100
2, 2150400, Note_on_c, 0, 72, 100
2, 2150400, Note_on_c, 0, 76, 100
2, 2150400, Note_on_c, 0, 84, 100
2, 2165760, Note_off_c, 0, 48, 0
2, 2165760, Note_off_c, 0, 55, 0
2, 2165760, Note_off_c, 0, 60, 0
2, 2165760, Note_on_c, 0, 43, 100
2, 2165760, Note_on_c, 0, 55, 100
2, 2181120, Note_off_c, 0, 43, 0
2, 2181120, Note_off_c, 0, 55, 0
2, 2181120, Note_on_c, 0, 36, 100
2, 2181120, Note_on_c, 0, 48, 100
2, 2188800, Note_off_c, 0, 72, 0
2, 2188800, Note_off_c, 0, 76, 0
2, 2188800, Note_off_c, 0, 84, 0
2, 2188800, Note_on_c, 0, 64, 100
2, 2188800, Note_on_c, 0, 72, 100
2, 2188800, Note_on_c, 0, 76, 100
2, 2196480, Note_off_c, 0, 36, 0
2, 2196480, Note_off_c, 0, 48, 0
2, 2196480, Note_off_c, 0, 64, 0
2, 2196480, Note_off_c, 0, 72, 0
2, 2196480, Note_off_c, 0, 76, 0
2, 2196480, Note_on_c, 0, 65, 100
2, 2196480, Note_on_c, 0, 74, 100
2, 2196480, Note_on_c, 0, 77, 100
2, 2204160, Note_off_c, 0, 65, 0
2, 2204160, Note_off_c, 0, 74, 0
2, 2204160, Note_off_c, 0, 77, 0
2, 2204160, Note_on_c, 0, 66, 100
2, 2204160, Note_on_c, 0, 75, 100
2, 2204160, Note_on_c, 0, 78, 100
2, 2211840, Note_off_c, 0, 66, 0
2, 2211840, Note_off_c, 0, 75, 0
2, 2211840, Note_off_c, 0, 78, 0
2, 2211840, Note_on_c, 0, 36, 100
2, 2211840, Note_on_c, 0, 48, 100
2, 2211840, Note_on_c, 0, 67, 100
2, 2211840, Note_on_c, 0, 76, 100
2, 2211840, Note_on_c, 0, 83, 100
2, 2227200, Note_off_c, 0, 36, 0
2, 2227200, Note_off_c, 0, 48, 0
2, 2227200, Note_off_c, 0, 67, 0
2, 2227200, Note_off_c, 0, 76, 0
2, 2227200, Note_off_c, 0, 83, 0
2, 2227200, Note_on_c, 0, 55, 100
2, 2227200, Note_on_c, 0, 60, 100
2, 2227200, Note_on_c, 0, 64, 100
2, 2227200, Note_on_c, 0, 69, 100
2, 2227200, Note_on_c, 0, 76, 100
2, 2227200, Note_on_c, 0, 84, 100
2, 2234880, Note_off_c, 0, 69, 0
2, 2234880, Note_off_c, 0, 76, 0
2, 2234880, Note_off_c, 0, 84, 0
2, 2234880, Note_on_c, 0, 67, 100
2, 2234880, Note_on_c, 0, 76, 100
2, 2234880, Note_on_c, 0, 83, 100
2, 2242560, Note_off_c, 0, 55, 0
2, 2242560, Note_off_c, 0, 60, 0
2, 2242560, Note_off_c, 0, 64, 0
2, 2242560, Note_on_c, 0, 43, 100
2, 2250240, Note_off_c, 0, 67, 0
2, 2250240, Note_off_c, 0, 76, 0
2, 2250240, Note_off_c, 0, 83, 0
2, 2250240, Note_on_c, 0, 64, 100
2, 2250240, Note_on_c, 0, 72, 100
2, 2250240, Note_on_c, 0, 76, 100
2, 2257920, Note_off_c, 0, 43, 0
2, 2257920, Note_off_c, 0, 64, 0
2, 2257920, Note_off_c, 0, 72, 0
2, 2257920, Note_off_c, 0, 76, 0
2, 2257920, Note_on_c, 0, 55, 100
2, 2257920, Note_on_c, 0, 60, 100
2, 2257920, Note_on_c, 0, 64, 100
2, 2257920, Note_on_c, 0, 65, 100
2, 2257920, Note_on_c, 0, 74, 100
2, 2257920, Note_on_c, 0, 77, 100
2, 2265600, Note_off_c, 0, 65, 0
2, 2265600, Note_off_c, 0, 74, 0
2, 2265600, Note_off_c, 0, 77, 0
2, 2265600, Note_on_c, 0, 66, 100
2, 2265600, Note_on_c, 0, 75, 100
2, 2265600, Note_on_c, 0, 78, 100
2, 2273280, Note_off_c, 0, 55, 0
2, 2273280, Note_off_c, 0, 60, 0
2, 2273280, Note_off_c, 0, 64, 0
2, 2273280, Note_off_c, 0, 66, 0
2, 2273280, Note_off_c, 0, 75, 0
2, 2273280, Note_off_c, 0, 78, 0
2, 2273280, Note_on_c, 0, 48, 100
2, 2273280, Note_on_c, 0, 67, 100
2, 2273280, Note_on_c, 0, 76, 100
2, 2273280, Note_on_c, 0, 79, 100
2, 2288640, Note_off_c, 0, 48, 0
2, 2288640, Note_off_c, 0, 67, 0
2, 2288640, Note_off_c, 0, 76, 0
2, 2288640, Note_off_c, 0, 79, 0
2, 2288640, Note_on_c, 0, 55, 100
2, 2288640, Note_on_c, 0, 60, 100
2, 2288640, Note_on_c, 0, 64, 100
2, 2288640, Note_on_c, 0, 69, 100
2, 2288640, Note_on_c, 0, 76, 100
2, 2288640, Note_on_c, 0, 81, 100
2, 2296320, Note_off_c, 0, 69, 0
2, 2296320, Note_off_c, 0, 76, 0
2, 2296320, Note_off_c, 0, 81, 0
2, 2296320, Note_on_c, 0, 67, 100
2, 2296320, Note_on_c, 0, 76, 100
2, 2296320, Note_on_c, 0, 79, 100
2, 2304000, Note_off_c, 0, 55, 0
2, 2304000, Note_off_c, 0, 60, 0
2, 2304000, Note_off_c, 0, 64, 0
2, 2304000, Note_on_c, 0, 43, 100
2, 2311680, Note_off_c, 0, 67, 0
2, 2311680, Note_off_c, 0, 76, 0
2, 2311680, Note_off_c, 0, 79, 0
2, 2311680, Note_on_c, 0, 76, 100
2, 2319360, Note_off_c, 0, 43, 0
2, 2319360, Note_off_c, 0, 76, 0
2, 2319360, Note_on_c, 0, 55, 100
2, 2319360, Note_on_c, 0, 60, 100
2, 2319360, Note_on_c, 0, 64, 100
2, 2319360, Note_on_c, 0, 72, 100
2, 2327040, Note_off_c, 0, 72, 0
2, 2327040, Note_on_c, 0, 67, 100
2, 2334720, Note_off_c, 0, 55, 0
2, 2334720, Note_off_c, 0, 60, 0
2, 2334720, Note_off_c, 0, 64, 0
2, 2334720, Note_off_c, 0, 67, 0
2, 2334720, Note_on_c, 0, 41, 100
2, 2334720, Note_on_c, 0, 69, 100
2, 2342400, Note_off_c, 0, 69, 0
2, 2342400, Note_on_c, 0, 71, 100
2, 2350080, Note_off_c, 0, 41, 0
2, 2350080, Note_off_c, 0, 71, 0
2, 2350080, Note_on_c, 0, 57, 100
2, 2350080, Note_on_c, 0, 60, 100
2, 2350080, Note_on_c, 0, 65, 100
2, 2350080, Note_on_c, 0, 72, 100
2, 2357760, Note_off_c, 0, 72, 0
2, 2357760, Note_on_c, 0, 74, 100
2, 2365440, Note_off_c, 0, 57, 0
2, 2365440, Note_off_c, 0, 60, 0
2, 2365440, Note_off_c, 0, 65, 0
2, 2365440, Note_off_c, 0, 74, 0
2, 2365440, Note_on_c, 0, 53, 100
2, 2365440, Note_on_c, 0, 76, 100
2, 2373120, Note_off_c, 0, 76, 0
2, 2373120, Note_on_c, 0, 74, 100
2, 2380800, Note_off_c, 0, 53, 0
2, 2380800, Note_off_c, 0, 74, 0
2, 2380800, Note_on_c, 0, 56, 100
2, 2380800, Note_on_c, 0, 60, 100
2, 2380800, Note_on_c, 0, 65, 100
2, 2380800, Note_on_c, 0, 72, 100
2, 2388480, Note_off_c, 0, 72, 0
2, 2388480, Note_on_c, 0, 74, 100
2, 2396160, Note_off_c, 0, 56, 0
2, 2396160, Note_off_c, 0, 60, 0
2, 2396160, Note_off_c, 0, 65, 0
2, 2396160, Note_off_c, 0, 74, 0
2, 2396160, Note_on_c, 0, 52, 100
2, 2396160, Note_on_c, 0, 67, 100
2, 2403840, Note_off_c, 0, 67, 0
2, 2403840, Note_on_c, 0, 76, 100
2, 2411520, Note_off_c, 0, 52, 0
2, 2411520, Note_off_c, 0, 76, 0
2, 2411520, Note_on_c, 0, 55, 100
2, 2411520, Note_on_c, 0, 60, 100
2, 2411520, Note_on_c, 0, 64, 100
2, 2411520, Note_on_c, 0, 77, 100
2, 2419200, Note_off_c, 0, 77, 0
2, 2419200, Note_on_c, 0, 79, 100
2, 2426880, Note_off_c, 0, 55, 0
2, 2426880, Note_off_c, 0, 60, 0
2, 2426880, Note_off_c, 0, 64, 0
2, 2426880, Note_off_c, 0, 79, 0
2, 2426880, Note_on_c, 0, 43, 100
2, 2426880, Note_on_c, 0, 81, 100
2, 2434560, Note_off_c, 0, 81, 0
2, 2434560, Note_on_c, 0, 79, 100
2, 2442240, Note_off_c, 0, 43, 0
2, 2442240, Note_off_c, 0, 79, 0
2, 2442240, Note_on_c, 0, 55, 100
2, 2442240, Note_on_c, 0, 60, 100
2, 2442240, Note_on_c, 0, 64, 100
2, 2442240, Note_on_c, 0, 76, 100
2, 2449920, Note_off_c, 0, 76, 0
2, 2449920, Note_on_c, 0, 77, 100
2, 2457600, Note_off_c, 0, 55, 0
2, 2457600, Note_off_c, 0, 60, 0
2, 2457600, Note_off_c, 0, 64, 0
2, 2457600, Note_off_c, 0, 77, 0
2, 2457600, Note_on_c, 0, 52, 100
2, 2457600, Note_on_c, 0, 67, 100
2, 2457600, Note_on_c, 0, 76, 100
2, 2457600, Note_on_c, 0, 79, 100
2, 2472960, Note_off_c, 0, 52, 0
2, 2472960, Note_off_c, 0, 67, 0
2, 2472960, Note_off_c, 0, 76, 0
2, 2472960, Note_off_c, 0, 79, 0
2, 2472960, Note_on_c, 0, 55, 100
2, 2472960, Note_on_c, 0, 60, 100
2, 2472960, Note_on_c, 0, 64, 100
2, 2472960, Note_on_c, 0, 69, 100
2, 2472960, Note_on_c, 0, 76, 100
2, 2472960, Note_on_c, 0, 81, 100
2, 2480640, Note_off_c, 0, 69, 0
2, 2480640, Note_off_c, 0, 76, 0
2, 2480640, Note_off_c, 0, 81, 0
2, 2480640, Note_on_c, 0, 67, 100
2, 2480640, Note_on_c, 0, 76, 100
2, 2480640, Note_on_c, 0, 79, 100
2, 2488320, Note_off_c, 0, 55, 0
2, 2488320, Note_off_c, 0, 60, 0
2, 2488320, Note_off_c, 0, 64, 0
2, 2488320, Note_on_c, 0, 43, 100
2, 2496000, Note_off_c, 0, 67, 0
2, 2496000, Note_off_c, 0, 76, 0
2, 2496000, Note_off_c, 0, 79, 0
2, 2496000, Note_on_c, 0, 65, 100
2, 2496000, Note_on_c, 0, 72, 100
2, 2496000, Note_on_c, 0, 76, 100
2, 2503680, Note_off_c, 0, 43, 0
2, 2503680, Note_off_c, 0, 65, 0
2, 2503680, Note_off_c, 0, 72, 0
2, 2503680, Note_off_c, 0, 76, 0
2, 2503680, Note_on_c, 0, 55, 100
2, 2503680, Note_on_c, 0, 60, 100
2, 2503680, Note_on_c, 0, 64, 100
2, 2503680, Note_on_c, 0, 67, 100
2, 2503680, Note_on_c, 0, 74, 100
2, 2503680, Note_on_c, 0, 77, 100
2, 2511360, Note_off_c, 0, 67, 0
2, 2511360, Note_off_c, 0, 74, 0
2, 2511360, Note_off_c, 0, 77, 0
2, 2511360, Note_on_c, 0, 68, 100
2, 2511360, Note_on_c, 0, 75, 100
2, 2511360, Note_on_c, 0, 78, 100
2, 2519040, Note_off_c, 0, 55, 0
2, 2519040, Note_off_c, 0, 60, 0
2, 2519040, Note_off_c, 0, 64, 0
2, 2519040, Note_off_c, 0, 68, 0
2, 2519040, Note_off_c, 0, 75, 0
2, 2519040, Note_off_c, 0, 78, 0
2, 2519040, Note_on_c, 0, 48, 100
2, 2519040, Note_on_c, 0, 67, 100
2, 2519040, Note_on_c, 0, 76, 100
2, 2519040, Note_on_c, 0, 79, 100
2, 2534400, Note_off_c, 0, 48, 0
2, 2534400, Note_off_c, 0, 67, 0
2, 2534400, Note_off_c, 0, 76, 0
2, 2534400, Note_off_c, 0, 79, 0
2, 2534400, Note_on_c, 0, 55, 100
2, 2534400, Note_on_c, 0, 60, 100
2, 2534400, Note_on_c, 0, 64, 100
2, 2534400, Note_on_c, 0, 69, 100
2, 2534400, Note_on_c, 0, 76, 100
2, 2534400, Note_on_c, 0, 81, 100
2, 2542080, Note_off_c, 0, 69, 0
2, 2542080, Note_off_c, 0, 76, 0
2, 2542080, Note_off_c, 0, 81, 0
2, 2542080, Note_on_c, 0, 67, 100
2, 2542080, Note_on_c, 0, 76, 100
2, 2542080, Note_on_c, 0, 79, 100
2, 2549760, Note_off_c, 0, 55, 0
2, 2549760, Note_off_c, 0, 60, 0
2, 2549760, Note_off_c, 0, 64, 0
2, 2549760, Note_on_c, 0, 52, 100
2, 2557440, Note_off_c, 0, 67, 0
2, 2557440, Note_off_c, 0, 76, 0
2, 2557440, Note_off_c, 0, 79, 0
2, 2557440, Note_on_c, 0, 79, 100
2, 2565120, Note_off_c, 0, 52, 0
2, 2565120, Note_off_c, 0, 79, 0
2, 2565120, Note_on_c, 0, 51, 100
2, 2565120, Note_on_c, 0, 81, 100
2, 2572800, Note_off_c, 0, 81, 0
2, 2572800, Note_on_c, 0, 82, 100
2, 2580480, Note_off_c, 0, 51, 0
2, 2580480, Note_off_c, 0, 82, 0
2, 2580480, Note_on_c, 0, 50, 100
2, 2580480, Note_on_c, 0, 74, 100
2, 2580480, Note_on_c, 0, 79, 100
2, 2580480, Note_on_c, 0, 83, 100
2, 2588160, Note_off_c, 0, 74, 0
2, 2588160, Note_off_c, 0, 79, 0
2, 2588160, Note_off_c, 0, 83, 0
2, 2588160, Note_on_c, 0, 74, 100
2, 2588160, Note_on_c, 0, 79, 100
2, 2588160, Note_on_c, 0, 83, 100
2, 2595840, Note_off_c, 0, 50, 0
2, 2595840, Note_on_c, 0, 55, 100
2, 2595840, Note_on_c, 0, 59, 100
2, 2595840, Note_on_c, 0, 62, 100
2, 2603520, Note_off_c, 0, 74, 0
2, 2603520, Note_off_c, 0, 79, 0
2, 2603520, Note_off_c, 0, 83, 0
2, 2603520, Note_on_c, 0, 72, 100
2, 2603520, Note_on_c, 0, 78, 100
2, 2603520, Note_on_c, 0, 83, 100
2, 2611200, Note_off_c, 0, 55, 0
2, 2611200, Note_off_c, 0, 59, 0
2, 2611200, Note_off_c, 0, 62, 0
2, 2611200, Note_on_c, 0, 50, 100
2, 2618880, Note_off_c, 0, 72, 0
2, 2618880, Note_off_c, 0, 78, 0
2, 2618880, Note_off_c, 0, 83, 0
2, 2618880, Note_on_c, 0, 81, 100
2, 2626560, Note_off_c, 0, 50, 0
2, 2626560, Note_off_c, 0, 81, 0
2, 2626560, Note_on_c, 0, 57, 100
2, 2626560, Note_on_c, 0, 60, 100
2, 2626560, Note_on_c, 0, 62, 100
2, 2626560, Note_on_c, 0, 72, 100
2, 2626560, Note_on_c, 0, 77, 100
2, 2634240, Note_off_c, 0, 72, 0
2, 2634240, Note_off_c, 0, 77, 0
2, 2634240, Note_on_c, 0, 74, 100
2, 2641920, Note_off_c, 0, 57, 0
2, 2641920, Note_off_c, 0, 60, 0
2, 2641920, Note_off_c, 0, 62, 0
2, 2641920, Note_off_c, 0, 74, 0
2, 2641920, Note_on_c, 0, 55, 100
2, 2641920, Note_on_c, 0, 59, 100
2, 2641920, Note_on_c, 0, 62, 100
2, 2641920, Note_on_c, 0, 71, 100
2, 2641920, Note_on_c, 0, 79, 100
2, 2657280, Note_off_c, 0, 55, 0
2, 2657280, Note_off_c, 0, 59, 0
2, 2657280, Note_off_c, 0, 62, 0
2, 2657280, Note_on_c, 0, 41, 100
2, 2657280, Note_on_c, 0, 53, 100
2, 2672640, Note_off_c, 0, 41, 0
2, 2672640, Note_off_c, 0, 53, 0
2, 2672640, Note_on_c, 0, 40, 100
2, 2672640, Note_on_c, 0, 52, 100
2, 2680320, Note_off_c, 0, 71, 0
2, 2680320, Note_off_c, 0, 79, 0
2, 2680320, Note_on_c, 0, 64, 100
2, 2680320, Note_on_c, 0, 72, 100
2, 2680320, Note_on_c, 0, 76, 100
2, 2688000, Note_off_c, 0, 40, 0
2, 2688000, Note_off_c, 0, 52, 0
2, 2688000, Note_off_c, 0, 64, 0
2, 2688000, Note_off_c, 0, 72, 0
2, 2688000, Note_off_c, 0, 76, 0
2, 2688000, Note_on_c, 0, 38, 100
2, 2688000, Note_on_c, 0, 50, 100
2, 2688000, Note_on_c, 0, 65, 100
2, 2688000, Note_on_c, 0, 74, 100
2, 2688000, Note_on_c, 0, 77, 100
2, 2695680, Note_off_c, 0, 65, 0
2, 2695680, Note_off_c, 0, 74, 0
2, 2695680, Note_off_c, 0, 77, 0
2, 2695680, Note_on_c, 0, 66, 100
2, 2695680, Note_on_c, 0, 75, 100
2, 2695680, Note_on_c, 0, 78, 100
2, 2703360, Note_off_c, 0, 38, 0
2, 2703360, Note_off_c, 0, 50, 0
2, 2703360, Note_off_c, 0, 66, 0
2, 2703360, Note_off_c, 0, 75, 0
2, 2703360, Note_off_c, 0, 78, 0
2, 2703360, Note_on_c, 0, 36, 100
2, 2703360, Note_on_c, 0, 48, 100
2, 2703360, Note_on_c, 0, 67, 100
2, 2703360, Note_on_c, 0, 76, 100
2, 2703360, Note_on_c, 0, 79, 100
2, 2718720, Note_off_c, 0, 36, 0
2, 2718720, Note_off_c, 0, 48, 0
2, 2718720, Note_off_c, 0, 67, 0
2, 2718720, Note_off_c, 0, 76, 0
2, 2718720, Note_off_c, 0, 79, 0
2, 2718720, Note_on_c, 0, 55, 100
2, 2718720, Note_on_c, 0, 60, 100
2, 2718720, Note_on_c, 0, 64, 100
2, 2718720, Note_on_c, 0, 69, 100
2, 2718720, Note_on_c, 0, 77, 100
2, 2718720, Note_on_c, 0, 81, 100
2, 2726400, Note_off_c, 0, 69, 0
2, 2726400, Note_off_c, 0, 77, 0
2, 2726400, Note_off_c, 0, 81, 0
2, 2726400, Note_on_c, 0, 67, 100
2, 2726400, Note_on_c, 0, 76, 100
2, 2726400, Note_on_c, 0, 79, 100
2, 2734080, Note_off_c, 0, 55, 0
2, 2734080, Note_off_c, 0, 60, 0
2, 2734080, Note_off_c, 0, 64, 0
2, 2734080, Note_on_c, 0, 43, 100
2, 2741760, Note_off_c, 0, 67, 0
2, 2741760, Note_off_c, 0, 76, 0
2, 2741760, Note_off_c, 0, 79, 0
2, 2741760, Note_on_c, 0, 65, 100
2, 2741760, Note_on_c, 0, 72, 100
2, 2741760, Note_on_c, 0, 76, 100
2, 2749440, Note_off_c, 0, 43, 0
2, 2749440, Note_off_c, 0, 65, 0
2, 2749440, Note_off_c, 0, 72, 0
2, 2749440, Note_off_c, 0, 76, 0
2, 2749440, Note_on_c, 0, 55, 100
2, 2749440, Note_on_c, 0, 60, 100
2, 2749440, Note_on_c, 0, 64, 100
2, 2749440, Note_on_c, 0, 67, 100
2, 2749440, Note_on_c, 0, 74, 100
2, 2749440, Note_on_c, 0, 77, 100
2, 2757120, Note_off_c, 0, 67, 0
2, 2757120, Note_off_c, 0, 74, 0
2, 2757120, Note_off_c, 0, 77, 0
2, 2757120, Note_on_c, 0, 68, 100
2, 2757120, Note_on_c, 0, 75, 100
2, 2757120, Note_on_c, 0, 78, 100
2, 2764800, Note_off_c, 0, 55, 0
2, 2764800, Note_off_c, 0, 60, 0
2, 2764800, Note_off_c, 0, 64, 0
2, 2764800, Note_off_c, 0, 68, 0
2, 2764800, Note_off_c, 0, 75, 0
2, 2764800, Note_off_c, 0, 78, 0
2, 2764800, Note_on_c, 0, 48, 100
2, 2764800, Note_on_c, 0, 67, 100
2, 2764800, Note_on_c, 0, 76, 100
2, 2764800, Note_on_c, 0, 79, 100
2, 2780160, Note_off_c, 0, 48, 0
2, 2780160, Note_off_c, 0, 67, 0
2, 2780160, Note_off_c, 0, 76, 0
2, 2780160, Note_off_c, 0, 79, 0
2, 2780160, Note_on_c, 0, 55, 100
2, 2780160, Note_on_c, 0, 60, 100
2, 2780160, Note_on_c, 0, 64, 100
2, 2780160, Note_on_c, 0, 69, 100
2, 2780160, Note_on_c, 0, 76, 100
2, 2780160, Note_on_c, 0, 81, 100
2, 2787840, Note_off_c, 0, 69, 0
2, 2787840, Note_off_c, 0, 76, 0
2, 2787840, Note_off_c, 0, 81, 0
2, 2787840, Note_on_c, 0, 67, 100
2, 2787840, Note_on_c, 0, 76, 100
2, 2787840, Note_on_c, 0, 79, 100
2, 2795520, Note_off_c, 0, 55, 0
2, 2795520, Note_off_c, 0, 60, 0
2, 2795520, Note_off_c, 0, 64, 0
2, 2795520, Note_on_c, 0, 43, 100
2, 2803200, Note_off_c, 0, 67, 0
2, 2803200, Note_off_c, 0, 76, 0
2, 2803200, Note_off_c, 0, 79, 0
2, 2803200, Note_on_c, 0, 76, 100
2, 2810880, Note_off_c, 0, 43, 0
2, 2810880, Note_off_c, 0, 76, 0
2, 2810880, Note_on_c, 0, 55, 100
2, 2810880, Note_on_c, 0, 60, 100
2, 2810880, Note_on_c, 0, 64, 100
2, 2810880, Note_on_c, 0, 72, 100
2, 2818560, Note_off_c, 0, 72, 0
2, 2818560, Note_on_c, 0, 67, 100
2, 2826240, Note_off_c, 0, 55, 0
2, 2826240, Note_off_c, 0, 60, 0
2, 2826240, Note_off_c, 0, 64, 0
2, 2826240, Note_off_c, 0, 67, 0
2, 2826240, Note_on_c, 0, 41, 100
2, 2826240, Note_on_c, 0, 69, 100
2, 2833920, Note_off_c, 0, 69, 0
2, 2833920, Note_on_c, 0, 71, 100
2, 2841600, Note_off_c, 0, 41, 0
2, 2841600, Note_off_c, 0, 71, 0
2, 2841600, Note_on_c, 0, 57, 100
2, 2841600, Note_on_c, 0, 60, 100
2, 2841600, Note_on_c, 0, 65, 100
2, 2841600, Note_on_c, 0, 72, 100
2, 2849280, Note_off_c, 0, 72, 0
2, 2849280, Note_on_c, 0, 74, 100
2, 2856960, Note_off_c, 0, 57, 0
2, 2856960, Note_off_c, 0, 60, 0
2, 2856960, Note_off_c, 0, 65, 0
2, 2856960, Note_off_c, 0, 74, 0
2, 2856960, Note_on_c, 0, 53, 100
2, 2856960, Note_on_c, 0, 76, 100
2, 2864640, Note_off_c, 0, 76, 0
2, 2864640, Note_on_c, 0, 74, 100
2, 2872320, Note_off_c, 0, 53, 0
2, 2872320, Note_off_c, 0, 74, 0
2, 2872320, Note_on_c, 0, 56, 100
2, 2872320, Note_on_c, 0, 60, 100
2, 2872320, Note_on_c, 0, 65, 100
2, 2872320, Note_on_c, 0, 72, 100
2, 2880000, Note_off_c, 0, 72, 0
2, 2880000, Note_on_c, 0, 74, 100
2, 2887680, Note_off_c, 0, 56, 0
2, 2887680, Note_off_c, 0, 60, 0
2, 2887680, Note_off_c, 0, 65, 0
2, 2887680, Note_off_c, 0, 74, 0
2, 2887680, Note_on_c, 0, 52, 100
2, 2887680, Note_on_c, 0, 72, 100
2, 2903040, Note_off_c, 0, 52, 0
2, 2903040, Note_on_c, 0, 55, 100
2, 2903040, Note_on_c, 0, 60, 100
2, 2903040, Note_on_c, 0, 64, 100
2, 2918400, Note_off_c, 0, 72, 0
2, 2918400, Note_off_c, 0, 55, 0
2, 2918400, Note_off_c, 0, 60, 0
2, 2918400, Note_off_c, 0, 64, 0
2, 2918400, Note_on_c, 0, 48, 100
2, 2926080, Note_on_c, 0, 67, 100
2, 2933760, Note_off_c, 0, 48, 0
2, 2933760, Note_off_c, 0, 67, 0
2, 2933760, Note_on_c, 0, 58, 100
2, 2933760, Note_on_c, 0, 60, 100
2, 2933760, Note_on_c, 0, 64, 100
2, 2933760, Note_on_c, 0, 66, 100
2, 2941440, Note_off_c, 0, 66, 0
2, 2941440, Note_on_c, 0, 67, 100
2, 2949120, Note_off_c, 0, 58, 0
2, 2949120, Note_off_c, 0, 60, 0
2, 2949120, Note_off_c, 0, 64, 0
2, 2949120, Note_off_c, 0, 67, 0
2, 2949120, Note_on_c, 0, 53, 114
2, 2949120, Note_on_c, 0, 57, 114
2, 2949120, Note_on_c, 0, 60, 114
2, 2949120, Note_on_c, 0, 64, 114
2, 2949120, Note_on_c, 0, 72, 114
2, 2964480, Note_off_c, 0, 53, 0
2, 2964480, Note_off_c, 0, 57, 0
2, 2964480, Note_off_c, 0, 60, 0
2, 2964480, Note_off_c, 0, 64, 0
2, 2964480, Note_off_c, 0, 72, 0
2, 2964480, Note_on_c, 0, 53, 119
2, 2964480, Note_on_c, 0, 57, 119
2, 2964480, Note_on_c, 0, 60, 119
2, 2964480, Note_on_c, 0, 64, 119
2, 2964480, Note_on_c, 0, 69, 119
2, 2972160, Note_off_c, 0, 69, 0
2, 2972160, Note_on_c, 0, 72, 117
2, 2979840, Note_off_c, 0, 53, 0
2, 2979840, Note_off_c, 0, 57, 0
2, 2979840, Note_off_c, 0, 60, 0
2, 2979840, Note_off_c, 0, 64, 0
2, 2979840, Note_on_c, 0, 54, 117
2, 2979840, Note_on_c, 0, 57, 117
2, 2979840, Note_on_c, 0, 60, 117
2, 2979840, Note_on_c, 0, 62, 117
2, 2987520, Note_off_c, 0, 72, 0
2, 2987520, Note_on_c, 0, 69, 122
2, 2995200, Note_off_c, 0, 54, 0
2, 2995200, Note_off_c, 0, 57, 0
2, 2995200, Note_off_c, 0, 60, 0
2, 2995200, Note_off_c, 0, 62, 0
2, 2995200, Note_off_c, 0, 69, 0
2, 2995200, Note_on_c, 0, 54, 122
2, 2995200, Note_on_c, 0, 57, 122
2, 2995200, Note_on_c, 0, 60, 122
2, 2995200, Note_on_c, 0, 62, 122
2, 2995200, Note_on_c, 0, 72, 122
2, 3002880, Note_off_c, 0, 72, 0
2, 3002880, Note_on_c, 0, 69, 117
2, 3010560, Note_off_c, 0, 54, 0
2, 3010560, Note_off_c, 0, 57, 0
2, 3010560, Note_off_c, 0, 60, 0
2, 3010560, Note_off_c, 0, 62, 0
2, 3010560, Note_off_c, 0, 69, 0
2, 3010560, Note_on_c, 0, 55, 119
2, 3010560, Note_on_c, 0, 60, 119
2, 3010560, Note_on_c, 0, 64, 119
2, 3010560, Note_on_c, 0, 67, 119
2, 3018240, Note_off_c, 0, 67, 0
2, 3018240, Note_on_c, 0, 72, 119
2, 3025920, Note_off_c, 0, 55, 0
2, 3025920, Note_off_c, 0, 60, 0
2, 3025920, Note_off_c, 0, 64, 0
2, 3025920, Note_off_c, 0, 72, 0
2, 3025920, Note_on_c, 0, 55, 119
2, 3025920, Note_on_c, 0, 60, 119
2, 3025920, Note_on_c, 0, 64, 119
2, 3025920, Note_on_c, 0, 76, 119
2, 3033600, Note_off_c, 0, 76, 0
2, 3033600, Note_on_c, 0, 79, 119
2, 3041280, Note_off_c, 0, 55, 0
2, 3041280, Note_off_c, 0, 60, 0
2, 3041280, Note_off_c, 0, 64, 0
2, 3041280, Note_on_c, 0, 55, 119
2, 3041280, Note_on_c, 0, 60, 119
2, 3041280, Note_on_c, 0, 64, 119
2, 3048960, Note_off_c, 0, 79, 0
2, 3048960, Note_on_c, 0, 76, 119
2, 3056640, Note_off_c, 0, 55, 0
2, 3056640, Note_off_c, 0, 60, 0
2, 3056640, Note_off_c, 0, 64, 0
2, 3056640, Note_off_c, 0, 76, 0
2, 3056640, Note_on_c, 0, 55, 119
2, 3056640, Note_on_c, 0, 60, 119
2, 3056640, Note_on_c, 0, 64, 119
2, 3056640, Note_on_c, 0, 72, 119
2, 3064320, Note_off_c, 0, 72, 0
2, 3064320, Note_on_c, 0, 67, 115
2, 3072000, Note_off_c, 0, 55, 0
2, 3072000, Note_off_c, 0, 60, 0
2, 3072000, Note_off_c, 0, 64, 0
2, 3072000, Note_off_c, 0, 67, 0
2, 3072000, Note_on_c, 0, 50, 114
2, 3072000, Note_on_c, 0, 60, 114
2, 3072000, Note_on_c, 0, 66, 114
2, 3072000, Note_on_c, 0, 69, 114
2, 3087360, Note_off_c, 0, 50, 0
2, 3087360, Note_off_c, 0, 60, 0
2, 3087360, Note_off_c, 0, 66, 0
2, 3087360, Note_off_c, 0, 69, 0
2, 3087360, Note_on_c, 0, 50, 100
2, 3087360, Note_on_c, 0, 57, 100
2, 3087360, Note_on_c, 0, 66, 100
2, 3087360, Note_on_c, 0, 72, 100
2, 3102720, Note_off_c, 0, 50, 0
2, 3102720, Note_off_c, 0, 57, 0
2, 3102720, Note_off_c, 0, 66, 0
2, 3102720, Note_off_c, 0, 72, 0
2, 3102720, Note_on_c, 0, 55, 100
2, 3102720, Note_on_c, 0, 59, 100
2, 3102720, Note_on_c, 0, 65, 100
2, 3102720, Note_on_c, 0, 76, 100
2, 3110400, Note_off_c, 0, 65, 0
2, 3110400, Note_off_c, 0, 76, 0
2, 3110400, Note_on_c, 0, 65, 100
2, 3110400, Note_on_c, 0, 74, 100
2, 3118080, Note_off_c, 0, 55, 0
2, 3118080, Note_off_c, 0, 59, 0
2, 3118080, Note_on_c, 0, 55, 100
2, 3118080, Note_on_c, 0, 59, 100
2, 3125760, Note_off_c, 0, 65, 0
2, 3125760, Note_off_c, 0, 74, 0
2, 3125760, Note_on_c, 0, 64, 100
2, 3125760, Note_on_c, 0, 72, 100
2, 3133440, Note_off_c, 0, 55, 0
2, 3133440, Note_off_c, 0, 59, 0
2, 3133440, Note_on_c, 0, 48, 97
2, 3133440, Note_on_c, 0, 60, 97
2, 3148800, Note_off_c, 0, 48, 0
2, 3148800, Note_off_c, 0, 60, 0
2, 3148800, Note_on_c, 0, 43, 100
2, 3148800, Note_on_c, 0, 55, 100
2, 3164160, Note_off_c, 0, 43, 0
2, 3164160, Note_off_c, 0, 55, 0
2, 3164160, Note_on_c, 0, 40, 100
2, 3164160, Note_on_c, 0, 52, 100
2, 3171840, Note_off_c, 0, 64, 0
2, 3171840, Note_off_c, 0, 72, 0
2, 3171840, Note_on_c, 0, 76, 100
2, 3171840, Note_on_c, 0, 84, 100
2, 3171840, Note_on_c, 0, 88, 100
2, 3179520, Note_off_c, 0, 40, 0
2, 3179520, Note_off_c, 0, 52, 0
2, 3179520, Note_off_c, 0, 76, 0
2, 3179520, Note_off_c, 0, 84, 0
2, 3179520, Note_off_c, 0, 88, 0
2, 3179520, Note_on_c, 0, 38, 100
2, 3179520, Note_on_c, 0, 50, 100
2, 3179520, Note_on_c, 0, 77, 100
2, 3179520, Note_on_c, 0, 86, 100
2, 3179520, Note_on_c, 0, 89, 100
2, 3187200, Note_off_c, 0, 77, 0
2, 3187200, Note_off_c, 0, 86, 0
2, 3187200, Note_off_c, 0, 89, 0
2, 3187200, Note_on_c, 0, 78, 100
2, 3187200, Note_on_c, 0, 87, 100
2, 3187200, Note_on_c, 0, 90, 100
2, 3194880, Note_off_c, 0, 38, 0
2, 3194880, Note_off_c, 0, 50, 0
2, 3194880, Note_off_c, 0, 78, 0
2, 3194880, Note_off_c, 0, 87, 0
2, 3194880, Note_off_c, 0, 90, 0
2, 3194880, Note_on_c, 0, 36, 100
2, 3194880, Note_on_c, 0, 48, 100
2, 3194880, Note_on_c, 0, 79, 100
2, 3194880, Note_on_c, 0, 88, 100
2, 3194880, Note_on_c, 0, 95, 100
2, 3210240, Note_off_c, 0, 36, 0
2, 3210240, Note_off_c, 0, 48, 0
2, 3210240, Note_off_c, 0, 79, 0
2, 3210240, Note_off_c, 0, 88, 0
2, 3210240, Note_off_c, 0, 95, 0
2, 3210240, Note_on_c, 0, 55, 100
2, 3210240, Note_on_c, 0, 60, 100
2, 3210240, Note_on_c, 0, 64, 100
2, 3210240, Note_on_c, 0, 81, 100
2, 3210240, Note_on_c, 0, 88, 100
2, 3210240, Note_on_c, 0, 96, 100
2, 3217920, Note_off_c, 0, 81, 0
2, 3217920, Note_off_c, 0, 88, 0
2, 3217920, Note_off_c, 0, 96, 0
2, 3217920, Note_on_c, 0, 79, 100
2, 3217920, Note_on_c, 0, 88, 100
2, 3217920, Note_on_c, 0, 95, 100
2, 3225600, Note_off_c, 0, 55, 0
2, 3225600, Note_off_c, 0, 60, 0
2, 3225600, Note_off_c, 0, 64, 0
2, 3225600, Note_on_c, 0, 43, 100
2, 3233280, Note_off_c, 0, 79, 0
2, 3233280, Note_off_c, 0, 88, 0
2, 3233280, Note_off_c, 0, 95, 0
2, 3233280, Note_on_c, 0, 64, 100
2, 3233280, Note_on_c, 0, 84, 100
2, 3233280, Note_on_c, 0, 88, 100
2, 3240960, Note_off_c, 0, 43, 0
2, 3240960, Note_off_c, 0, 64, 0
2, 3240960, Note_off_c, 0, 84, 0
2, 3240960, Note_off_c, 0, 88, 0
2, 3240960, Note_on_c, 0, 55, 100
2, 3240960, Note_on_c, 0, 60, 100
2, 3240960, Note_on_c, 0, 64, 100
2, 3240960, Note_on_c, 0, 77, 100
2, 3240960, Note_on_c, 0, 86, 100
2, 3240960, Note_on_c, 0, 89, 100
2, 3248640, Note_off_c, 0, 77, 0
2, 3248640, Note_off_c, 0, 86, 0
2, 3248640, Note_off_c, 0, 89, 0
2, 3248640, Note_on_c, 0, 78, 100
2, 3248640, Note_on_c, 0, 87, 100
2, 3248640, Note_on_c, 0, 90, 100
2, 3256320, Note_off_c, 0, 55, 0
2, 3256320, Note_off_c, 0, 60, 0
2, 3256320, Note_off_c, 0, 64, 0
2, 3256320, Note_off_c, 0, 78, 0
2, 3256320, Note_off_c, 0, 87, 0
2, 3256320, Note_off_c, 0, 90, 0
2, 3256320, Note_on_c, 0, 48, 100
2, 3256320, Note_on_c, 0, 79, 100
2, 3256320, Note_on_c, 0, 88, 100
2, 3256320, Note_on_c, 0, 91, 100
2, 3271680, Note_off_c, 0, 48, 0
2, 3271680, Note_off_c, 0, 79, 0
2, 3271680, Note_off_c, 0, 88, 0
2, 3271680, Note_off_c, 0, 91, 0
2, 3271680, Note_on_c, 0, 55, 100
2, 3271680, Note_on_c, 0, 60, 100
2, 3271680, Note_on_c, 0, 64, 100
2, 3271680, Note_on_c, 0, 81, 100
2, 3271680, Note_on_c, 0, 88, 100
2, 3271680, Note_on_c, 0, 93, 100
2, 3279360, Note_off_c, 0, 81, 0
2, 3279360, Note_off_c, 0, 88, 0
2, 3279360, Note_off_c, 0, 93, 0
2, 3279360, Note_on_c, 0, 79, 100
2, 3279360, Note_on_c, 0, 88, 100
2, 3279360, Note_on_c, 0, 91, 100
2, 3287040, Note_off_c, 0, 55, 0
2, 3287040, Note_off_c, 0, 60, 0
2, 3287040, Note_off_c, 0, 64, 0
2, 3287040, Note_on_c, 0, 43, 100
2, 3294720, Note_off_c, 0, 79, 0
2, 3294720, Note_off_c, 0, 88, 0
2, 3294720, Note_off_c, 0, 91, 0
2, 3294720, Note_on_c, 0, 88, 100
2, 3302400, Note_off_c, 0, 43, 0
2, 3302400, Note_off_c, 0, 88, 0
2, 3302400, Note_on_c, 0, 55, 100
2, 3302400, Note_on_c, 0, 60, 100
2, 3302400, Note_on_c, 0, 64, 100
2, 3302400, Note_on_c, 0, 84, 100
2, 3310080, Note_off_c, 0, 84, 0
2, 3310080, Note_on_c, 0, 79, 100
2, 3317760, Note_off_c, 0, 55, 0
2, 3317760, Note_off_c, 0, 60, 0
2, 3317760, Note_off_c, 0, 64, 0
2, 3317760, Note_off_c, 0, 79, 0
2, 3317760, Note_on_c, 0, 41, 100
2, 3317760, Note_on_c, 0, 81, 100
2, 3325440, Note_off_c, 0, 81, 0
2, 3325440, Note_on_c, 0, 83, 100
2, 3333120, Note_off_c, 0, 41, 0
2, 3333120, Note_off_c, 0, 83, 0
2, 3333120, Note_on_c, 0, 57, 100
2, 3333120, Note_on_c, 0, 60, 100
2, 3333120, Note_on_c, 0, 65, 100
2, 3333120, Note_on_c, 0, 84, 100
2, 3340800, Note_off_c, 0, 84, 0
2, 3340800, Note_on_c, 0, 86, 100
2, 3348480, Note_off_c, 0, 57, 0
2, 3348480, Note_off_c, 0, 60, 0
2, 3348480, Note_off_c, 0, 65, 0
2, 3348480, Note_off_c, 0, 86, 0
2, 3348480, Note_on_c, 0, 53, 100
2, 3348480, Note_on_c, 0, 88, 100
2, 3356160, Note_off_c, 0, 88, 0
2, 3356160, Note_on_c, 0, 86, 100
2, 3363840, Note_off_c, 0, 53, 0
2, 3363840, Note_off_c, 0, 86, 0
2, 3363840, Note_on_c, 0, 56, 100
2, 3363840, Note_on_c, 0, 60, 100
2, 3363840, Note_on_c, 0, 65, 100
2, 3363840, Note_on_c, 0, 84, 100
2, 3371520, Note_off_c, 0, 84, 0
2, 3371520, Note_on_c, 0, 86, 100
2, 3379200, Note_off_c, 0, 56, 0
2, 3379200, Note_off_c, 0, 60, 0
2, 3379200, Note_off_c, 0, 65, 0
2, 3379200, Note_off_c, 0, 86, 0
2, 3379200, Note_on_c, 0, 52, 100
2, 3379200, Note_on_c, 0, 79, 100
2, 3386880, Note_off_c, 0, 79, 0
2, 3386880, Note_on_c, 0, 88, 100
2, 3394560, Note_off_c, 0, 52, 0
2, 3394560, Note_off_c, 0, 88, 0
2, 3394560, Note_on_c, 0, 55, 100
2, 3394560, Note_on_c, 0, 60, 100
2, 3394560, Note_on_c, 0, 64, 100
2, 3394560, Note_on_c, 0, 89, 100
2, 3402240, Note_off_c, 0, 89, 0
2, 3402240, Note_on_c, 0, 91, 100
2, 3409920, Note_off_c, 0, 55, 0
2, 3409920, Note_off_c, 0, 60, 0
2, 3409920, Note_off_c, 0, 64, 0
2, 3409920, Note_off_c, 0, 91, 0
2, 3409920, Note_on_c, 0, 43, 100
2, 3409920, Note_on_c, 0, 93, 100
2, 3417600, Note_off_c, 0, 93, 0
2, 3417600, Note_on_c, 0, 91, 100
2, 3425280, Note_off_c, 0, 43, 0
2, 3425280, Note_off_c, 0, 91, 0
2, 3425280, Note_on_c, 0, 55, 100
2, 3425280, Note_on_c, 0, 60, 100
2, 3425280, Note_on_c, 0, 64, 100
2, 3425280, Note_on_c, 0, 88, 100
2, 3432960, Note_off_c, 0, 88, 0
2, 3432960, Note_on_c, 0, 89, 100
2, 3440640, Note_off_c, 0, 55, 0
2, 3440640, Note_off_c, 0, 60, 0
2, 3440640, Note_off_c, 0, 64, 0
2, 3440640, Note_off_c, 0, 89, 0
2, 3440640, Note_on_c, 0, 52, 100
2, 3440640, Note_on_c, 0, 79, 100
2, 3440640, Note_on_c, 0, 88, 100
2, 3440640, Note_on_c, 0, 91, 100
2, 3456000, Note_off_c, 0, 52, 0
2, 3456000, Note_off_c, 0, 79, 0
2, 3456000, Note_off_c, 0, 88, 0
2, 3456000, Note_off_c, 0, 91, 0
2, 3456000, Note_on_c, 0, 55, 100
2, 3456000, Note_on_c, 0, 60, 100
2, 3456000, Note_on_c, 0, 64, 100
2, 3456000, Note_on_c, 0, 81, 100
2, 3456000, Note_on_c, 0, 88, 100
2, 3456000, Note_on_c, 0, 93, 100
2, 3463680, Note_off_c, 0, 81, 0
2, 3463680, Note_off_c, 0, 88, 0
2, 3463680, Note_off_c, 0, 93, 0
2, 3463680, Note_on_c, 0, 79, 100
2, 3463680, Note_on_c, 0, 88, 100
2, 3463680, Note_on_c, 0, 91, 100
2, 3471360, Note_off_c, 0, 55, 0
2, 3471360, Note_off_c, 0, 60, 0
2, 3471360, Note_off_c, 0, 64, 0
2, 3471360, Note_on_c, 0, 43, 100
2, 3479040, Note_off_c, 0, 79, 0
2, 3479040, Note_off_c, 0, 88, 0
2, 3479040, Note_off_c, 0, 91, 0
2, 3479040, Note_on_c, 0, 77, 100
2, 3479040, Note_on_c, 0, 84, 100
2, 3479040, Note_on_c, 0, 88, 100
2, 3486720, Note_off_c, 0, 43, 0
2, 3486720, Note_off_c, 0, 77, 0
2, 3486720, Note_off_c, 0, 84, 0
2, 3486720, Note_off_c, 0, 88, 0
2, 3486720, Note_on_c, 0, 55, 100
2, 3486720, Note_on_c, 0, 60, 100
2, 3486720, Note_on_c, 0, 64, 100
2, 3486720, Note_on_c, 0, 79, 100
2, 3486720, Note_on_c, 0, 86, 100
2, 3486720, Note_on_c, 0, 89, 100
2, 3494400, Note_off_c, 0, 79, 0
2, 3494400, Note_off_c, 0, 86, 0
2, 3494400, Note_off_c, 0, 89, 0
2, 3494400, Note_on_c, 0, 80, 100
2, 3494400, Note_on_c, 0, 87, 100
2, 3494400, Note_on_c, 0, 90, 100
2, 3502080, Note_off_c, 0, 55, 0
2, 3502080, Note_off_c, 0, 60, 0
2, 3502080, Note_off_c, 0, 64, 0
2, 3502080, Note_off_c, 0, 80, 0
2, 3502080, Note_off_c, 0, 87, 0
2, 3502080, Note_off_c, 0, 90, 0
2, 3502080, Note_on_c, 0, 48, 100
2, 3502080, Note_on_c, 0, 79, 100
2, 3502080, Note_on_c, 0, 88, 100
2, 3502080, Note_on_c, 0, 91, 100
2, 3517440, Note_off_c, 0, 48, 0
2, 3517440, Note_off_c, 0, 79, 0
2, 3517440, Note_off_c, 0, 88, 0
2, 3517440, Note_off_c, 0, 91, 0
2, 3517440, Note_on_c, 0, 55, 100
2, 3517440, Note_on_c, 0, 60, 100
2, 3517440, Note_on_c, 0, 64, 100
2, 3517440, Note_on_c, 0, 81, 100
2, 3517440, Note_on_c, 0, 88, 100
2, 3517440, Note_on_c, 0, 93, 100
2, 3525120, Note_off_c, 0, 81, 0
2, 3525120, Note_off_c, 0, 88, 0
2, 3525120, Note_off_c, 0, 93, 0
2, 3525120, Note_on_c, 0, 79, 100
2, 3525120, Note_on_c, 0, 88, 100
2, 3525120, Note_on_c, 0, 91, 100
2, 3532800, Note_off_c, 0, 55, 0
2, 3532800, Note_off_c, 0, 60, 0
2, 3532800, Note_off_c, 0, 64, 0
2, 3532800, Note_on_c, 0, 52, 100
2, 3540480, Note_off_c, 0, 79, 0
2, 3540480, Note_off_c, 0, 88, 0
2, 3540480, Note_off_c, 0, 91, 0
2, 3540480, Note_on_c, 0, 91, 100
2, 3548160, Note_off_c, 0, 52, 0
2, 3548160, Note_off_c, 0, 91, 0
2, 3548160, Note_on_c, 0, 51, 100
2, 3548160, Note_on_c, 0, 93, 100
2, 3555840, Note_off_c, 0, 93, 0
2, 3555840, Note_on_c, 0, 94, 100
2, 3563520, Note_off_c, 0, 51, 0
2, 3563520, Note_off_c, 0, 94, 0
2, 3563520, Note_on_c, 0, 50, 100
2, 3563520, Note_on_c, 0, 86, 100
2, 3563520, Note_on_c, 0, 91, 100
2, 3563520, Note_on_c, 0, 95, 100
2, 3571200, Note_off_c, 0, 86, 0
2, 3571200, Note_off_c, 0, 91, 0
2, 3571200, Note_off_c, 0, 95, 0
2, 3571200, Note_on_c, 0, 86, 100
2, 3571200, Note_on_c, 0, 91, 100
2, 3571200, Note_on_c, 0, 95, 100
2, 3578880, Note_off_c, 0, 50, 0
2, 3578880, Note_on_c, 0, 55, 100
2, 3578880, Note_on_c, 0, 59, 100
2, 3578880, Note_on_c, 0, 62, 100
2, 3586560, Note_off_c, 0, 86, 0
2, 3586560, Note_off_c, 0, 91, 0
2, 3586560, Note_off_c, 0, 95, 0
2, 3586560, Note_on_c, 0, 84, 100
2, 3586560, Note_on_c, 0, 90, 100
2, 3586560, Note_on_c, 0, 95, 100
2, 3594240, Note_off_c, 0, 55, 0
2, 3594240, Note_off_c, 0, 59, 0
2, 3594240, Note_off_c, 0, 62, 0
2, 3594240, Note_on_c, 0, 50, 100
2, 3601920, Note_off_c, 0, 84, 0
2, 3601920, Note_off_c, 0, 90, 0
2, 3601920, Note_off_c, 0, 95, 0
2, 3601920, Note_on_c, 0, 93, 100
2, 3609600, Note_off_c, 0, 50, 0
2, 3609600, Note_off_c, 0, 93, 0
2, 3609600, Note_on_c, 0, 57, 100
2, 3609600, Note_on_c, 0, 60, 100
2, 3609600, Note_on_c, 0, 62, 100
2, 3609600, Note_on_c, 0, 84, 100
2, 3609600, Note_on_c, 0, 89, 100
2, 3617280, Note_off_c, 0, 84, 0
2, 3617280, Note_off_c, 0, 89, 0
2, 3617280, Note_on_c, 0, 86, 100
2, 3624960, Note_off_c, 0, 57, 0
2, 3624960, Note_off_c, 0, 60, 0
2, 3624960, Note_off_c, 0, 62, 0
2, 3624960, Note_off_c, 0, 86, 0
2, 3624960, Note_on_c, 0, 55, 100
2, 3624960, Note_on_c, 0, 59, 100
2, 3624960, Note_on_c, 0, 62, 100
2, 3624960, Note_on_c, 0, 83, 100
2, 3624960, Note_on_c, 0, 91, 100
2, 3640320, Note_off_c, 0, 55, 0
2, 3640320, Note_off_c, 0, 59, 0
2, 3640320, Note_off_c, 0, 62, 0
2, 3640320, Note_on_c, 0, 41, 100
2, 3640320, Note_on_c, 0, 53, 100
2, 3655680, Note_off_c, 0, 41, 0
2, 3655680, Note_off_c, 0, 53, 0
2, 3655680, Note_on_c, 0, 40, 100
2, 3655680, Note_on_c, 0, 52, 100
2, 3663360, Note_off_c, 0, 83, 0
2, 3663360, Note_off_c, 0, 91, 0
2, 3663360, Note_on_c, 0, 76, 100
2, 3663360, Note_on_c, 0, 84, 100
2, 3663360, Note_on_c, 0, 88, 100
2, 3671040, Note_off_c, 0, 40, 0
2, 3671040, Note_off_c, 0, 52, 0
2, 3671040, Note_off_c, 0, 76, 0
2, 3671040, Note_off_c, 0, 84, 0
2, 3671040, Note_off_c, 0, 88, 0
2, 3671040, Note_on_c, 0, 38, 100
2, 3671040, Note_on_c, 0, 50, 100
2, 3671040, Note_on_c, 0, 77, 100
2, 3671040, Note_on_c, 0, 86, 100
2, 3671040, Note_on_c, 0, 89, 100
2, 3678720, Note_off_c, 0, 77, 0
2, 3678720, Note_off_c, 0, 86, 0
2, 3678720, Note_off_c, 0, 89, 0
2, 3678720, Note_on_c, 0, 78, 100
2, 3678720, Note_on_c, 0, 87, 100
2, 3678720, Note_on_c, 0, 90, 100
2, 3686400, Note_off_c, 0, 38, 0
2, 3686400, Note_off_c, 0, 50, 0
2, 3686400, Note_off_c, 0, 78, 0
2, 3686400, Note_off_c, 0, 87, 0
2, 3686400, Note_off_c, 0, 90, 0
2, 3686400, Note_on_c, 0, 36, 100
2, 3686400, Note_on_c, 0, 48, 100
2, 3686400, Note_on_c, 0, 79, 100
2, 3686400, Note_on_c, 0, 88, 100
2, 3686400, Note_on_c, 0, 91, 100
2, 3701760, Note_off_c, 0, 36, 0
2, 3701760, Note_off_c, 0, 48, 0
2, 3701760, Note_off_c, 0, 79, 0
2, 3701760, Note_off_c, 0, 88, 0
2, 3701760, Note_off_c, 0, 91, 0
2, 3701760, Note_on_c, 0, 55, 100
2, 3701760, Note_on_c, 0, 60, 100
2, 3701760, Note_on_c, 0, 64, 100
2, 3701760, Note_on_c, 0, 81, 100
2, 3701760, Note_on_c, 0, 89, 100
2, 3701760, Note_on_c, 0, 93, 100
2, 3709440, Note_off_c, 0, 81, 0
2, 3709440, Note_off_c, 0, 89, 0
2, 3709440, Note_off_c, 0, 93, 0
2, 3709440, Note_on_c, 0, 79, 100
2, 3709440, Note_on_c, 0, 88, 100
2, 3709440, Note_on_c, 0, 91, 100
2, 3717120, Note_off_c, 0, 55, 0
2, 3717120, Note_off_c, 0, 60, 0
2, 3717120, Note_off_c, 0, 64, 0
2, 3717120, Note_on_c, 0, 43, 100
2, 3724800, Note_off_c, 0, 79, 0
2, 3724800, Note_off_c, 0, 88, 0
2, 3724800, Note_off_c, 0, 91, 0
2, 3724800, Note_on_c, 0, 77, 100
2, 3724800, Note_on_c, 0, 84, 100
2, 3724800, Note_on_c, 0, 88, 100
2, 3732480, Note_off_c, 0, 43, 0
2, 3732480, Note_off_c, 0, 77, 0
2, 3732480, Note_off_c, 0, 84, 0
2, 3732480, Note_off_c, 0, 88, 0
2, 3732480, Note_on_c, 0, 55, 100
2, 3732480, Note_on_c, 0, 60, 100
2, 3732480, Note_on_c, 0, 64, 100
2, 3732480, Note_on_c, 0, 79, 100
2, 3732480, Note_on_c, 0, 86, 100
2, 3732480, Note_on_c, 0, 89, 100
2, 3740160, Note_off_c, 0, 79, 0
2, 3740160, Note_off_c, 0, 86, 0
2, 3740160, Note_off_c, 0, 89, 0
2, 3740160, Note_on_c, 0, 80, 100
2, 3740160, Note_on_c, 0, 87, 100
2, 3740160, Note_on_c, 0, 90, 100
2, 3747840, Note_off_c, 0, 55, 0
2, 3747840, Note_off_c, 0, 60, 0
2, 3747840, Note_off_c, 0, 64, 0
2, 3747840, Note_off_c, 0, 80, 0
2, 3747840, Note_off_c, 0, 87, 0
2, 3747840, Note_off_c, 0, 90, 0
2, 3747840, Note_on_c, 0, 48, 100
2, 3747840, Note_on_c, 0, 79, 100
2, 3747840, Note_on_c, 0, 88, 100
2, 3747840, Note_on_c, 0, 91, 100
2, 3763200, Note_off_c, 0, 48, 0
2, 3763200, Note_off_c, 0, 79, 0
2, 3763200, Note_off_c, 0, 88, 0
2, 3763200, Note_off_c, 0, 91, 0
2, 3763200, Note_on_c, 0, 55, 100
2, 3763200, Note_on_c, 0, 60, 100
2, 3763200, Note_on_c, 0, 64, 100
2, 3763200, Note_on_c, 0, 81, 100
2, 3763200, Note_on_c, 0, 88, 100
2, 3763200, Note_on_c, 0, 93, 100
2, 3770880, Note_off_c, 0, 81, 0
2, 3770880, Note_off_c, 0, 88, 0
2, 3770880, Note_off_c, 0, 93, 0
2, 3770880, Note_on_c, 0, 79, 100
2, 3770880, Note_on_c, 0, 88, 100
2, 3770880, Note_on_c, 0, 91, 100
2, 3778560, Note_off_c, 0, 55, 0
2, 3778560, Note_off_c, 0, 60, 0
2, 3778560, Note_off_c, 0, 64, 0
2, 3778560, Note_on_c, 0, 43, 100
2, 3786240, Note_off_c, 0, 79, 0
2, 3786240, Note_off_c, 0, 88, 0
2, 3786240, Note_off_c, 0, 91, 0
2, 3786240, Note_on_c, 0, 88, 100
2, 3793920, Note_off_c, 0, 43, 0
2, 3793920, Note_off_c, 0, 88, 0
2, 3793920, Note_on_c, 0, 55, 100
2, 3793920, Note_on_c, 0, 60, 100
2, 3793920, Note_on_c, 0, 64, 100
2, 3793920, Note_on_c, 0, 84, 100
2, 3801600, Note_off_c, 0, 84, 0
2, 3801600, Note_on_c, 0, 79, 100
2, 3809280, Note_off_c, 0, 55, 0
2, 3809280, Note_off_c, 0, 60, 0
2, 3809280, Note_off_c, 0, 64, 0
2, 3809280, Note_off_c, 0, 79, 0
2, 3809280, Note_on_c, 0, 41, 100
2, 3809280, Note_on_c, 0, 81, 100
2, 3816960, Note_off_c, 0, 81, 0
2, 3816960, Note_on_c, 0, 83, 100
2, 3824640, Note_off_c, 0, 41, 0
2, 3824640, Note_off_c, 0, 83, 0
2, 3824640, Note_on_c, 0, 57, 100
2, 3824640, Note_on_c, 0, 60, 100
2, 3824640, Note_on_c, 0, 65, 100
2, 3824640, Note_on_c, 0, 84, 100
2, 3832320, Note_off_c, 0, 84, 0
2, 3832320, Note_on_c, 0, 86, 100
2, 3840000, Note_off_c, 0, 57, 0
2, 3840000, Note_off_c, 0, 60, 0
2, 3840000, Note_off_c, 0, 65, 0
2, 3840000, Note_off_c, 0, 86, 0
2, 3840000, Note_on_c, 0, 53, 100
2, 3840000, Note_on_c, 0, 88, 100
2, 3847680, Note_off_c, 0, 88, 0
2, 3847680, Note_on_c, 0, 86, 100
2, 3855360, Note_off_c, 0, 53, 0
2, 3855360, Note_off_c, 0, 86, 0
2, 3855360, Note_on_c, 0, 56, 100
2, 3855360, Note_on_c, 0, 60, 100
2, 3855360, Note_on_c, 0, 65, 100
2, 3855360, Note_on_c, 0, 84, 100
2, 3863040, Note_off_c, 0, 84, 0
2, 3863040, Note_on_c, 0, 86, 100
2, 3870720, Note_off_c, 0, 56, 0
2, 3870720, Note_off_c, 0, 60, 0
2, 3870720, Note_off_c, 0, 65, 0
2, 3870720, Note_off_c, 0, 86, 0
2, 3870720, Note_on_c, 0, 52, 100
2, 3870720, Note_on_c, 0, 84, 100
2, 3886080, Note_off_c, 0, 52, 0
2, 3886080, Note_on_c, 0, 55, 100
2, 3886080, Note_on_c, 0, 60, 100
2, 3886080, Note_on_c, 0, 64, 100
2, 3901440, Note_off_c, 0, 55, 0
2, 3901440, Note_off_c, 0, 60, 0
2, 3901440, Note_off_c, 0, 64, 0
2, 3901440, Note_on_c, 0, 48, 100
2, 3909120, Note_off_c, 0, 84, 0
2, 3909120, Note_on_c, 0, 79, 100
2, 3916800, Note_off_c, 0, 48, 0
2, 3916800, Note_off_c, 0, 79, 0
2, 3916800, Note_on_c, 0, 58, 100
2, 3916800, Note_on_c, 0, 60, 100
2, 3916800, Note_on_c, 0, 64, 100
2, 3916800, Note_on_c, 0, 78, 100
2, 3924480, Note_off_c, 0, 78, 0
2, 3924480, Note_on_c, 0, 79, 100
2, 3932160, Note_off_c, 0, 58, 0
2, 3932160, Note_off_c, 0, 60, 0
2, 3932160, Note_off_c, 0, 64, 0
2, 3932160, Note_off_c, 0, 79, 0
2, 3932160, Note_on_c, 0, 53, 100
2, 3932160, Note_on_c, 0, 57, 100
2, 3932160, Note_on_c, 0, 60, 100
2, 3932160, Note_on_c, 0, 64, 100
2, 3932160, Note_on_c, 0, 84, 100
2, 3947520, Note_off_c, 0, 53, 0
2, 3947520, Note_off_c, 0, 57, 0
2, 3947520, Note_off_c, 0, 60, 0
2, 3947520, Note_off_c, 0, 64, 0
2, 3947520, Note_off_c, 0, 84, 0
2, 3947520, Note_on_c, 0, 53, 100
2, 3947520, Note_on_c, 0, 57, 100
2, 3947520, Note_on_c, 0, 60, 100
2, 3947520, Note_on_c, 0, 64, 100
2, 3947520, Note_on_c, 0, 81, 100
2, 3955200, Note_off_c, 0, 81, 0
2, 3955200, Note_on_c, 0, 84, 100
2, 3962880, Note_off_c, 0, 53, 0
2, 3962880, Note_off_c, 0, 57, 0
2, 3962880, Note_off_c, 0, 60, 0
2, 3962880, Note_off_c, 0, 64, 0
2, 3962880, Note_on_c, 0, 54, 100
2, 3962880, Note_on_c, 0, 57, 100
2, 3962880, Note_on_c, 0, 60, 100
2, 3962880, Note_on_c, 0, 62, 100
2, 3970560, Note_off_c, 0, 84, 0
2, 3970560, Note_on_c, 0, 81, 100
2, 3978240, Note_off_c, 0, 54, 0
2, 3978240, Note_off_c, 0, 57, 0
2, 3978240, Note_off_c, 0, 60, 0
2, 3978240, Note_off_c, 0, 62, 0
2, 3978240, Note_off_c, 0, 81, 0
2, 3978240, Note_on_c, 0, 54, 100
2, 3978240, Note_on_c, 0, 57, 100
2, 3978240, Note_on_c, 0, 60, 100
2, 3978240, Note_on_c, 0, 62, 100
2, 3978240, Note_on_c, 0, 84, 100
2, 3985920, Note_off_c, 0, 84, 0
2, 3985920, Note_on_c, 0, 81, 100
2, 3993600, Note_off_c, 0, 54, 0
2, 3993600, Note_off_c, 0, 57, 0
2, 3993600, Note_off_c, 0, 60, 0
2, 3993600, Note_off_c, 0, 62, 0
2, 3993600, Note_off_c, 0, 81, 0
2, 3993600, Note_on_c, 0, 55, 100
2, 3993600, Note_on_c, 0, 60, 100
2, 3993600, Note_on_c, 0, 64, 100
2, 3993600, Note_on_c, 0, 79, 100
2, 4001280, Note_off_c, 0, 79, 0
2, 4001280, Note_on_c, 0, 84, 100
2, 4008960, Note_off_c, 0, 55, 0
2, 4008960, Note_off_c, 0, 60, 0
2, 4008960, Note_off_c, 0, 64, 0
2, 4008960, Note_off_c, 0, 84, 0
2, 4008960, Note_on_c, 0, 55, 100
2, 4008960, Note_on_c, 0, 60, 100
2, 4008960, Note_on_c, 0, 64, 100
2, 4008960, Note_on_c, 0, 88, 100
2, 4016640, Note_off_c, 0, 88, 0
2, 4016640, Note_on_c, 0, 91, 100
2, 4024320, Note_off_c, 0, 55, 0
2, 4024320, Note_off_c, 0, 60, 0
2, 4024320, Note_off_c, 0, 64, 0
2, 4024320, Note_on_c, 0, 55, 100
2, 4024320, Note_on_c, 0, 60, 100
2, 4024320, Note_on_c, 0, 64, 100
2, 4032000, Note_off_c, 0, 91, 0
2, 4032000, Note_on_c, 0, 88, 100
2, 4039680, Note_off_c, 0, 55, 0
2, 4039680, Note_off_c, 0, 60, 0
2, 4039680, Note_off_c, 0, 64, 0
2, 4039680, Note_off_c, 0, 88, 0
2, 4039680, Note_on_c, 0, 55, 100
2, 4039680, Note_on_c, 0, 60, 100
2, 4039680, Note_on_c, 0, 64, 100
2, 4039680, Note_on_c, 0, 84, 100
2, 4047360, Note_off_c, 0, 84, 0
2, 4047360, Note_on_c, 0, 79, 100
2, 4055040, Note_off_c, 0, 55, 0
2, 4055040, Note_off_c, 0, 60, 0
2, 4055040, Note_off_c, 0, 64, 0
2, 4055040, Note_off_c, 0, 79, 0
2, 4055040, Note_on_c, 0, 50, 100
2, 4055040, Note_on_c, 0, 60, 100
2, 4055040, Note_on_c, 0, 78, 100
2, 4055040, Note_on_c, 0, 81, 100
2, 4070400, Note_off_c, 0, 50, 0
2, 4070400, Note_off_c, 0, 60, 0
2, 4070400, Note_off_c, 0, 78, 0
2, 4070400, Note_off_c, 0, 81, 0
2, 4070400, Note_on_c, 0, 50, 100
2, 4070400, Note_on_c, 0, 57, 100
2, 4070400, Note_on_c, 0, 78, 100
2, 4070400, Note_on_c, 0, 84, 100
2, 4085760, Note_off_c, 0, 50, 0
2, 4085760, Note_off_c, 0, 57, 0
2, 4085760, Note_off_c, 0, 78, 0
2, 4085760, Note_off_c, 0, 84, 0
2, 4085760, Note_on_c, 0, 55, 100
2, 4085760, Note_on_c, 0, 59, 100
2, 4085760, Note_on_c, 0, 77, 100
2, 4085760, Note_on_c, 0, 88, 100
2, 4093440, Note_off_c, 0, 77, 0
2, 4093440, Note_off_c, 0, 88, 0
2, 4093440, Note_on_c, 0, 77, 100
2, 4093440, Note_on_c, 0, 86, 100
2, 4101120, Note_off_c, 0, 55, 0
2, 4101120, Note_off_c, 0, 59, 0
2, 4101120, Note_on_c, 0, 55, 100
2, 4101120, Note_on_c, 0, 59, 100
2, 4108800, Note_off_c, 0, 77, 0
2, 4108800, Note_off_c, 0, 86, 0
2, 4108800, Note_on_c, 0, 76, 100
2, 4108800, Note_on_c, 0, 84, 100
2, 4116480, Note_off_c, 0, 55, 0
2, 4116480, Note_off_c, 0, 59, 0
2, 4116480, Note_off_c, 0, 76, 0
2, 4116480, Note_off_c, 0, 84, 0
2, 4116480, Note_on_c, 0, 48, 100
2, 4116480, Note_on_c, 0, 60, 100
2, 4116480, Note_on_c, 0, 64, 100
2, 4116480, Note_on_c, 0, 72, 100
2, 4131840, Note_off_c, 0, 48, 0
2, 4131840, Note_off_c, 0, 60, 0
2, 4131840, Note_on_c, 0, 43, 100
2, 4131840, Note_on_c, 0, 55, 100
2, 4147200, Note_off_c, 0, 43, 0
2, 4147200, Note_off_c, 0, 55, 0
2, 4147200, Note_on_c, 0, 36, 100
2, 4147200, Note_on_c, 0, 48, 100
2, 4162560, Note_off_c, 0, 64, 0
2, 4162560, Note_off_c, 0, 72, 0
2, 4162560, Note_off_c, 0, 36, 0
2, 4162560, Note_off_c, 0, 48, 0
2, 4162560, Note_on_c, 0, 62, 94
2, 4170240, Note_off_c, 0, 62, 0
2, 4170240, Note_on_c, 0, 63, 76
2, 4177920, Note_off_c, 0, 63, 0
2, 4177920, Note_on_c, 0, 48, 69
2, 4177920, Note_on_c, 0, 64, 69
2, 4185600, Note_off_c, 0, 64, 0
2, 4185600, Note_on_c, 0, 72, 67
2, 4193280, Note_off_c, 0, 48, 0
2, 4193280, Note_on_c, 0, 52, 65
2, 4193280, Note_on_c, 0, 55, 65
2, 4193280, Note_on_c, 0, 60, 65
2, 4200960, Note_off_c, 0, 72, 0
2, 4200960, Note_on_c, 0, 64, 65
2, 4208640, Note_off_c, 0, 52, 0
2, 4208640, Note_off_c, 0, 55, 0
2, 4208640, Note_off_c, 0, 60, 0
2, 4208640, Note_off_c, 0, 64, 0
2, 4208640, Note_on_c, 0, 43, 64
2, 4208640, Note_on_c, 0, 55, 64
2, 4208640, Note_on_c, 0, 72, 64
2, 4224000, Note_off_c, 0, 43, 0
2, 4224000, Note_off_c, 0, 55, 0
2, 4224000, Note_off_c, 0, 72, 0
2, 4224000, Note_on_c, 0, 55, 64
2, 4224000, Note_on_c, 0, 58, 64
2, 4224000, Note_on_c, 0, 60, 64
2, 4224000, Note_on_c, 0, 64, 64
2, 4231680, Note_off_c, 0, 64, 0
2, 4231680, Note_on_c, 0, 72, 65
2, 4239360, Note_off_c, 0, 55, 0
2, 4239360, Note_off_c, 0, 58, 0
2, 4239360, Note_off_c, 0, 60, 0
2, 4239360, Note_on_c, 0, 41, 65
2, 4239360, Note_on_c, 0, 53, 65
2, 4254720, Note_off_c, 0, 41, 0
2, 4254720, Note_off_c, 0, 53, 0
2, 4254720, Note_on_c, 0, 57, 69
2, 4254720, Note_on_c, 0, 60, 69
2, 4270080, Note_off_c, 0, 57, 0
2, 4270080, Note_off_c, 0, 60, 0
2, 4270080, Note_on_c, 0, 40, 69
2, 4270080, Note_on_c, 0, 52, 69
2, 4277760, Note_off_c, 0, 72, 0
2, 4277760, Note_on_c, 0, 72, 69
2, 4277760, Note_on_c, 0, 76, 69
2, 4277760, Note_on_c, 0, 84, 69
2, 4285440, Note_off_c, 0, 40, 0
2, 4285440, Note_off_c, 0, 52, 0
2, 4285440, Note_off_c, 0, 72, 0
2, 4285440, Note_off_c, 0, 76, 0
2, 4285440, Note_off_c, 0, 84, 0
2, 4285440, Note_on_c, 0, 55, 69
2, 4285440, Note_on_c, 0, 60, 69
2, 4285440, Note_on_c, 0, 74, 69
2, 4285440, Note_on_c, 0, 77, 69
2, 4285440, Note_on_c, 0, 86, 69
2, 4293120, Note_off_c, 0, 74, 0
2, 4293120, Note_off_c, 0, 77, 0
2, 4293120, Note_off_c, 0, 86, 0
2, 4293120, Note_on_c, 0, 75, 82
2, 4293120, Note_on_c, 0, 78, 82
2, 4293120, Note_on_c, 0, 87, 82
2, 4300800, Note_off_c, 0, 55, 0
2, 4300800, Note_off_c, 0, 60, 0
2, 4300800, Note_off_c, 0, 75, 0
2, 4300800, Note_off_c, 0, 78, 0
2, 4300800, Note_off_c, 0, 87, 0
2, 4300800, Note_on_c, 0, 43, 100
2, 4300800, Note_on_c, 0, 76, 100
2, 4300800, Note_on_c, 0, 79, 100
2, 4300800, Note_on_c, 0, 88, 100
2, 4308480, Note_off_c, 0, 76, 0
2, 4308480, Note_off_c, 0, 79, 0
2, 4308480, Note_off_c, 0, 88, 0
2, 4308480, Note_on_c, 0, 72, 100
2, 4308480, Note_on_c, 0, 76, 100
2, 4308480, Note_on_c, 0, 84, 100
2, 4316160, Note_off_c, 0, 43, 0
2, 4316160, Note_off_c, 0, 72, 0
2, 4316160, Note_off_c, 0, 76, 0
2, 4316160, Note_off_c, 0, 84, 0
2, 4316160, Note_on_c, 0, 52, 100
2, 4316160, Note_on_c, 0, 55, 100
2, 4316160, Note_on_c, 0, 60, 100
2, 4316160, Note_on_c, 0, 74, 100
2, 4316160, Note_on_c, 0, 77, 100
2, 4316160, Note_on_c, 0, 86, 100
2, 4323840, Note_off_c, 0, 74, 0
2, 4323840, Note_off_c, 0, 77, 0
2, 4323840, Note_off_c, 0, 86, 0
2, 4323840, Note_on_c, 0, 76, 100
2, 4323840, Note_on_c, 0, 79, 100
2, 4323840, Note_on_c, 0, 88, 100
2, 4331520, Note_off_c, 0, 52, 0
2, 4331520, Note_off_c, 0, 55, 0
2, 4331520, Note_off_c, 0, 60, 0
2, 4331520, Note_on_c, 0, 43, 100
2, 4339200, Note_off_c, 0, 76, 0
2, 4339200, Note_off_c, 0, 79, 0
2, 4339200, Note_off_c, 0, 88, 0
2, 4339200, Note_on_c, 0, 71, 100
2, 4339200, Note_on_c, 0, 74, 100
2, 4339200, Note_on_c, 0, 83, 100
2, 4346880, Note_off_c, 0, 43, 0
2, 4346880, Note_off_c, 0, 71, 0
2, 4346880, Note_off_c, 0, 74, 0
2, 4346880, Note_off_c, 0, 83, 0
2, 4346880, Note_on_c, 0, 53, 100
2, 4346880, Note_on_c, 0, 55, 100
2, 4346880, Note_on_c, 0, 59, 100
2, 4346880, Note_on_c, 0, 74, 100
2, 4346880, Note_on_c, 0, 77, 100
2, 4346880, Note_on_c, 0, 86, 100
2, 4362240, Note_off_c, 0, 53, 0
2, 4362240, Note_off_c, 0, 55, 0
2, 4362240, Note_off_c, 0, 59, 0
2, 4362240, Note_off_c, 0, 74, 0
2, 4362240, Note_off_c, 0, 77, 0
2, 4362240, Note_off_c, 0, 86, 0
2, 4362240, Note_on_c, 0, 48, 100
2, 4362240, Note_on_c, 0, 72, 100
2, 4362240, Note_on_c, 0, 76, 100
2, 4362240, Note_on_c, 0, 84, 100
2, 4377600, Note_off_c, 0, 48, 0
2, 4377600, Note_on_c, 0, 52, 100
2, 4377600, Note_on_c, 0, 55, 100
2, 4377600, Note_on_c, 0, 60, 100
2, 4392960, Note_off_c, 0, 52, 0
2, 4392960, Note_off_c, 0, 55, 0
2, 4392960, Note_off_c, 0, 60, 0
2, 4392960, Note_on_c, 0, 52, 100
2, 4392960, Note_on_c, 0, 55, 100
2, 4392960, Note_on_c, 0, 60, 100
2, 4408320, Note_off_c, 0, 72, 0
2, 4408320, Note_off_c, 0, 76, 0
2, 4408320, Note_off_c, 0, 84, 0
2, 4408320, Note_off_c, 0, 52, 0
2, 4408320, Note_off_c, 0, 55, 0
2, 4408320, Note_off_c, 0, 60, 0
2, 4408320, Note_on_c, 0, 55, 96
2, 4408320, Note_on_c, 0, 59, 96
2, 4408320, Note_on_c, 0, 62, 96
2, 4416000, Note_off_c, 0, 62, 0
2, 4416000, Note_on_c, 0, 63, 86
2, 4423680, Note_off_c, 0, 55, 0
2, 4423680, Note_off_c, 0, 59, 0
2, 4423680, Note_off_c, 0, 63, 0
2, 4423680, Note_on_c, 0, 48, 78
2, 4423680, Note_on_c, 0, 64, 78
2, 4431360, Note_off_c, 0, 64, 0
2, 4431360, Note_on_c, 0, 72, 72
2, 4439040, Note_off_c, 0, 48, 0
2, 4439040, Note_on_c, 0, 52, 72
2, 4439040, Note_on_c, 0, 55, 72
2, 4439040, Note_on_c, 0, 60, 72
2, 4446720, Note_off_c, 0, 72, 0
2, 4446720, Note_on_c, 0, 64, 69
2, 4454400, Note_off_c, 0, 52, 0
2, 4454400, Note_off_c, 0, 55, 0
2, 4454400, Note_off_c, 0, 60, 0
2, 4454400, Note_off_c, 0, 64, 0
2, 4454400, Note_on_c, 0, 43, 65
2, 4454400, Note_on_c, 0, 55, 65
2, 4454400, Note_on_c, 0, 72, 65
2, 4469760, Note_off_c, 0, 43, 0
2, 4469760, Note_off_c, 0, 55, 0
2, 4469760, Note_off_c, 0, 72, 0
2, 4469760, Note_on_c, 0, 55, 65
2, 4469760, Note_on_c, 0, 58, 65
2, 4469760, Note_on_c, 0, 60, 65
2, 4469760, Note_on_c, 0, 64, 65
2, 4477440, Note_off_c, 0, 64, 0
2, 4477440, Note_on_c, 0, 72, 65
2, 4485120, Note_off_c, 0, 55, 0
2, 4485120, Note_off_c, 0, 58, 0
2, 4485120, Note_off_c, 0, 60, 0
2, 4485120, Note_on_c, 0, 41, 66
2, 4485120, Note_on_c, 0, 53, 66
2, 4500480, Note_off_c, 0, 41, 0
2, 4500480, Note_off_c, 0, 53, 0
2, 4500480, Note_on_c, 0, 57, 69
2, 4500480, Note_on_c, 0, 60, 69
2, 4515840, Note_off_c, 0, 57, 0
2, 4515840, Note_off_c, 0, 60, 0
2, 4515840, Note_on_c, 0, 40, 70
2, 4515840, Note_on_c, 0, 52, 70
2, 4531200, Note_off_c, 0, 72, 0
2, 4531200, Note_off_c, 0, 40, 0
2, 4531200, Note_off_c, 0, 52, 0
2, 4531200, Note_on_c, 0, 39, 80
2, 4531200, Note_on_c, 0, 51, 80
2, 4531200, Note_on_c, 0, 69, 80
2, 4531200, Note_on_c, 0, 72, 80
2, 4531200, Note_on_c, 0, 81, 80
2, 4538880, Note_off_c, 0, 69, 0
2, 4538880, Note_off_c, 0, 72, 0
2, 4538880, Note_off_c, 0, 81, 0
2, 4538880, Note_on_c, 0, 67, 89
2, 4538880, Note_on_c, 0, 71, 89
2, 4538880, Note_on_c, 0, 79, 89
2, 4546560, Note_off_c, 0, 39, 0
2, 4546560, Note_off_c, 0, 51, 0
2, 4546560, Note_off_c, 0, 67, 0
2, 4546560, Note_off_c, 0, 71, 0
2, 4546560, Note_off_c, 0, 79, 0
2, 4546560, Note_on_c, 0, 38, 100
2, 4546560, Note_on_c, 0, 50, 100
2, 4546560, Note_on_c, 0, 66, 100
2, 4546560, Note_on_c, 0, 73, 100
2, 4546560, Note_on_c, 0, 78, 100
2, 4554240, Note_off_c, 0, 66, 0
2, 4554240, Note_off_c, 0, 73, 0
2, 4554240, Note_off_c, 0, 78, 0
2, 4554240, Note_on_c, 0, 69, 100
2, 4554240, Note_on_c, 0, 81, 100
2, 4561920, Note_off_c, 0, 38, 0
2, 4561920, Note_off_c, 0, 50, 0
2, 4561920, Note_off_c, 0, 69, 0
2, 4561920, Note_off_c, 0, 81, 0
2, 4561920, Note_on_c, 0, 50, 100
2, 4561920, Note_on_c, 0, 54, 100
2, 4561920, Note_on_c, 0, 57, 100
2, 4561920, Note_on_c, 0, 60, 100
2, 4561920, Note_on_c, 0, 72, 100
2, 4561920, Note_on_c, 0, 84, 100
2, 4569600, Note_off_c, 0, 72, 0
2, 4569600, Note_off_c, 0, 84, 0
2, 4569600, Note_on_c, 0, 76, 100
2, 4569600, Note_on_c, 0, 88, 100
2, 4577280, Note_off_c, 0, 50, 0
2, 4577280, Note_off_c, 0, 54, 0
2, 4577280, Note_off_c, 0, 57, 0
2, 4577280, Note_off_c, 0, 60, 0
2, 4577280, Note_on_c, 0, 50, 100
2, 4584960, Note_off_c, 0, 76, 0
2, 4584960, Note_off_c, 0, 88, 0
2, 4584960, Note_on_c, 0, 74, 100
2, 4584960, Note_on_c, 0, 86, 100
2, 4592640, Note_off_c, 0, 50, 0
2, 4592640, Note_off_c, 0, 74, 0
2, 4592640, Note_off_c, 0, 86, 0
2, 4592640, Note_on_c, 0, 54, 100
2, 4592640, Note_on_c, 0, 57, 100
2, 4592640, Note_on_c, 0, 60, 100
2, 4592640, Note_on_c, 0, 72, 100
2, 4592640, Note_on_c, 0, 84, 100
2, 4600320, Note_off_c, 0, 72, 0
2, 4600320, Note_off_c, 0, 84, 0
2, 4600320, Note_on_c, 0, 69, 93
2, 4600320, Note_on_c, 0, 81, 93
2, 4608000, Note_off_c, 0, 54, 0
2, 4608000, Note_off_c, 0, 57, 0
2, 4608000, Note_off_c, 0, 60, 0
2, 4608000, Note_off_c, 0, 69, 0
2, 4608000, Note_off_c, 0, 81, 0
2, 4608000, Note_on_c, 0, 55, 81
2, 4608000, Note_on_c, 0, 59, 81
2, 4608000, Note_on_c, 0, 74, 81
2, 4608000, Note_on_c, 0, 77, 81
2, 4608000, Note_on_c, 0, 86, 81
2, 4623360, Note_off_c, 0, 55, 0
2, 4623360, Note_off_c, 0, 59, 0
2, 4623360, Note_on_c, 0, 43, 63
2, 4623360, Note_on_c, 0, 55, 63
2, 4638720, Note_off_c, 0, 43, 0
2, 4638720, Note_off_c, 0, 55, 0
2, 4638720, Note_on_c, 0, 45, 61
2, 4638720, Note_on_c, 0, 57, 61
2, 4654080, Note_off_c, 0, 74, 0
2, 4654080, Note_off_c, 0, 77, 0
2, 4654080, Note_off_c, 0, 86, 0
2, 4654080, Note_off_c, 0, 45, 0
2, 4654080, Note_off_c, 0, 57, 0
2, 4654080, Note_on_c, 0, 47, 60
2, 4654080, Note_on_c, 0, 59, 60
2, 4654080, Note_on_c, 0, 62, 60
2, 4661760, Note_off_c, 0, 62, 0
2, 4661760, Note_on_c, 0, 63, 60
2, 4669440, Note_off_c, 0, 47, 0
2, 4669440, Note_off_c, 0, 59, 0
2, 4669440, Note_off_c, 0, 63, 0
2, 4669440, Note_on_c, 0, 48, 58
2, 4669440, Note_on_c, 0, 64, 58
2, 4677120, Note_off_c, 0, 64, 0
2, 4677120, Note_on_c, 0, 72, 58
2, 4684800, Note_off_c, 0, 48, 0
2, 4684800, Note_on_c, 0, 52, 64
2, 4684800, Note_on_c, 0, 55, 64
2, 4684800, Note_on_c, 0, 60, 64
2, 4692480, Note_off_c, 0, 72, 0
2, 4692480, Note_on_c, 0, 64, 64
2, 4700160, Note_off_c, 0, 52, 0
2, 4700160, Note_off_c, 0, 55, 0
2, 4700160, Note_off_c, 0, 60, 0
2, 4700160, Note_off_c, 0, 64, 0
2, 4700160, Note_on_c, 0, 43, 64
2, 4700160, Note_on_c, 0, 55, 64
2, 4700160, Note_on_c, 0, 72, 64
2, 4715520, Note_off_c, 0, 43, 0
2, 4715520, Note_off_c, 0, 55, 0
2, 4715520, Note_off_c, 0, 72, 0
2, 4715520, Note_on_c, 0, 55, 65
2, 4715520, Note_on_c, 0, 58, 65
2, 4715520, Note_on_c, 0, 60, 65
2, 4715520, Note_on_c, 0, 64, 65
2, 4723200, Note_off_c, 0, 64, 0
2, 4723200, Note_on_c, 0, 72, 65
2, 4730880, Note_off_c, 0, 55, 0
2, 4730880, Note_off_c, 0, 58, 0
2, 4730880, Note_off_c, 0, 60, 0
2, 4730880, Note_on_c, 0, 41, 66
2, 4730880, Note_on_c, 0, 53, 66
2, 4746240, Note_off_c, 0, 41, 0
2, 4746240, Note_off_c, 0, 53, 0
2, 4746240, Note_on_c, 0, 57, 75
2, 4746240, Note_on_c, 0, 60, 75
2, 4761600, Note_off_c, 0, 57, 0
2, 4761600, Note_off_c, 0, 60, 0
2, 4761600, Note_on_c, 0, 40, 82
2, 4761600, Note_on_c, 0, 52, 82
2, 4769280, Note_off_c, 0, 72, 0
2, 4769280, Note_on_c, 0, 72, 87
2, 4769280, Note_on_c, 0, 76, 87
2, 4769280, Note_on_c, 0, 84, 87
2, 4776960, Note_off_c, 0, 40, 0
2, 4776960, Note_off_c, 0, 52, 0
2, 4776960, Note_off_c, 0, 72, 0
2, 4776960, Note_off_c, 0, 76, 0
2, 4776960, Note_off_c, 0, 84, 0
2, 4776960, Note_on_c, 0, 55, 93
2, 4776960, Note_on_c, 0, 60, 93
2, 4776960, Note_on_c, 0, 74, 93
2, 4776960, Note_on_c, 0, 77, 93
2, 4776960, Note_on_c, 0, 86, 93
2, 4784640, Note_off_c, 0, 74, 0
2, 4784640, Note_off_c, 0, 77, 0
2, 4784640, Note_off_c, 0, 86, 0
2, 4784640, Note_on_c, 0, 75, 100
2, 4784640, Note_on_c, 0, 78, 100
2, 4784640, Note_on_c, 0, 87, 100
2, 4792320, Note_off_c, 0, 55, 0
2, 4792320, Note_off_c, 0, 60, 0
2, 4792320, Note_off_c, 0, 75, 0
2, 4792320, Note_off_c, 0, 78, 0
2, 4792320, Note_off_c, 0, 87, 0
2, 4792320, Note_on_c, 0, 43, 100
2, 4792320, Note_on_c, 0, 79, 100
2, 4792320, Note_on_c, 0, 88, 100
2, 4800000, Note_off_c, 0, 79, 0
2, 4800000, Note_off_c, 0, 88, 0
2, 4800000, Note_on_c, 0, 72, 100
2, 4800000, Note_on_c, 0, 76, 100
2, 4800000, Note_on_c, 0, 84, 100
2, 4807680, Note_off_c, 0, 43, 0
2, 4807680, Note_off_c, 0, 72, 0
2, 4807680, Note_off_c, 0, 76, 0
2, 4807680, Note_off_c, 0, 84, 0
2, 4807680, Note_on_c, 0, 52, 100
2, 4807680, Note_on_c, 0, 55, 100
2, 4807680, Note_on_c, 0, 60, 100
2, 4807680, Note_on_c, 0, 74, 100
2, 4807680, Note_on_c, 0, 77, 100
2, 4807680, Note_on_c, 0, 86, 100
2, 4815360, Note_off_c, 0, 74, 0
2, 4815360, Note_off_c, 0, 77, 0
2, 4815360, Note_off_c, 0, 86, 0
2, 4815360, Note_on_c, 0, 76, 100
2, 4815360, Note_on_c, 0, 79, 100
2, 4815360, Note_on_c, 0, 88, 100
2, 4823040, Note_off_c, 0, 52, 0
2, 4823040, Note_off_c, 0, 55, 0
2, 4823040, Note_off_c, 0, 60, 0
2, 4823040, Note_on_c, 0, 43, 100
2, 4830720, Note_off_c, 0, 76, 0
2, 4830720, Note_off_c, 0, 79, 0
2, 4830720, Note_off_c, 0, 88, 0
2, 4830720, Note_on_c, 0, 71, 100
2, 4830720, Note_on_c, 0, 74, 100
2, 4830720, Note_on_c, 0, 83, 100
2, 4838400, Note_off_c, 0, 43, 0
2, 4838400, Note_off_c, 0, 71, 0
2, 4838400, Note_off_c, 0, 74, 0
2, 4838400, Note_off_c, 0, 83, 0
2, 4838400, Note_on_c, 0, 53, 100
2, 4838400, Note_on_c, 0, 55, 100
2, 4838400, Note_on_c, 0, 60, 100
2, 4838400, Note_on_c, 0, 74, 100
2, 4838400, Note_on_c, 0, 77, 100
2, 4838400, Note_on_c, 0, 86, 100
2, 4853760, Note_off_c, 0, 53, 0
2, 4853760, Note_off_c, 0, 55, 0
2, 4853760, Note_off_c, 0, 60, 0
2, 4853760, Note_off_c, 0, 74, 0
2, 4853760, Note_off_c, 0, 77, 0
2, 4853760, Note_off_c, 0, 86, 0
2, 4853760, Note_on_c, 0, 48, 100
2, 4853760, Note_on_c, 0, 72, 100
2, 4853760, Note_on_c, 0, 76, 100
2, 4853760, Note_on_c, 0, 84, 100
2, 4869120, Note_off_c, 0, 48, 0
2, 4869120, Note_on_c, 0, 52, 100
2, 4869120, Note_on_c, 0, 55, 100
2, 4869120, Note_on_c, 0, 60, 100
2, 4884480, Note_off_c, 0, 52, 0
2, 4884480, Note_off_c, 0, 55, 0
2, 4884480, Note_off_c, 0, 60, 0
2, 4884480, Note_on_c, 0, 55, 100
2, 4884480, Note_on_c, 0, 60, 100
2, 4884480, Note_on_c, 0, 64, 100
2, 4899840, Note_off_c, 0, 72, 0
2, 4899840, Note_off_c, 0, 76, 0
2, 4899840, Note_off_c, 0, 84, 0
2, 4899840, Note_off_c, 0, 55, 0
2, 4899840, Note_off_c, 0, 60, 0
2, 4899840, Note_off_c, 0, 64, 0
2, 4899840, Note_on_c, 0, 72, 100
2, 4899840, Note_on_c, 0, 84, 100
2, 4907520, Note_off_c, 0, 72, 0
2, 4907520, Note_off_c, 0, 84, 0
2, 4907520, Note_on_c, 0, 74, 100
2, 4907520, Note_on_c, 0, 86, 100
2, 4915200, Note_off_c, 0, 74, 0
2, 4915200, Note_off_c, 0, 86, 0
2, 4915200, Note_on_c, 0, 48, 100
2, 4915200, Note_on_c, 0, 60, 100
2, 4915200, Note_on_c, 0, 76, 100
2, 4915200, Note_on_c, 0, 88, 100
2, 4922880, Note_off_c, 0, 76, 0
2, 4922880, Note_off_c, 0, 88, 0
2, 4922880, Note_on_c, 0, 72, 100
2, 4922880, Note_on_c, 0, 84, 100
2, 4930560, Note_off_c, 0, 48, 0
2, 4930560, Note_off_c, 0, 60, 0
2, 4930560, Note_off_c, 0, 72, 0
2, 4930560, Note_off_c, 0, 84, 0
2, 4930560, Note_on_c, 0, 55, 100
2, 4930560, Note_on_c, 0, 60, 100
2, 4930560, Note_on_c, 0, 64, 100
2, 4930560, Note_on_c, 0, 74, 100
2, 4930560, Note_on_c, 0, 86, 100
2, 4938240, Note_off_c, 0, 74, 0
2, 4938240, Note_off_c, 0, 86, 0
2, 4938240, Note_on_c, 0, 76, 100
2, 4938240, Note_on_c, 0, 88, 100
2, 4945920, Note_off_c, 0, 55, 0
2, 4945920, Note_off_c, 0, 60, 0
2, 4945920, Note_off_c, 0, 64, 0
2, 4945920, Note_on_c, 0, 46, 100
2, 4945920, Note_on_c, 0, 58, 100
2, 4953600, Note_off_c, 0, 76, 0
2, 4953600, Note_off_c, 0, 88, 0
2, 4953600, Note_on_c, 0, 72, 100
2, 4953600, Note_on_c, 0, 84, 100
2, 4961280, Note_off_c, 0, 46, 0
2, 4961280, Note_off_c, 0, 58, 0
2, 4961280, Note_off_c, 0, 72, 0
2, 4961280, Note_off_c, 0, 84, 0
2, 4961280, Note_on_c, 0, 55, 100
2, 4961280, Note_on_c, 0, 60, 100
2, 4961280, Note_on_c, 0, 64, 100
2, 4961280, Note_on_c, 0, 74, 100
2, 4961280, Note_on_c, 0, 86, 100
2, 4968960, Note_off_c, 0, 74, 0
2, 4968960, Note_off_c, 0, 86, 0
2, 4968960, Note_on_c, 0, 72, 100
2, 4968960, Note_on_c, 0, 84, 100
2, 4976640, Note_off_c, 0, 55, 0
2, 4976640, Note_off_c, 0, 60, 0
2, 4976640, Note_off_c, 0, 64, 0
2, 4976640, Note_off_c, 0, 72, 0
2, 4976640, Note_off_c, 0, 84, 0
2, 4976640, Note_on_c, 0, 48, 100
2, 4976640, Note_on_c, 0, 60, 100
2, 4976640, Note_on_c, 0, 76, 100
2, 4976640, Note_on_c, 0, 88, 100
2, 4984320, Note_off_c, 0, 76, 0
2, 4984320, Note_off_c, 0, 88, 0
2, 4984320, Note_on_c, 0, 72, 100
2, 4984320, Note_on_c, 0, 84, 100
2, 4992000, Note_off_c, 0, 48, 0
2, 4992000, Note_off_c, 0, 60, 0
2, 4992000, Note_off_c, 0, 72, 0
2, 4992000, Note_off_c, 0, 84, 0
2, 4992000, Note_on_c, 0, 55, 100
2, 4992000, Note_on_c, 0, 60, 100
2, 4992000, Note_on_c, 0, 64, 100
2, 4992000, Note_on_c, 0, 74, 100
2, 4992000, Note_on_c, 0, 86, 100
2, 4999680, Note_off_c, 0, 74, 0
2, 4999680, Note_off_c, 0, 86, 0
2, 4999680, Note_on_c, 0, 76, 100
2, 4999680, Note_on_c, 0, 88, 100
2, 5007360, Note_off_c, 0, 55, 0
2, 5007360, Note_off_c, 0, 60, 0
2, 5007360, Note_off_c, 0, 64, 0
2, 5007360, Note_on_c, 0, 46, 100
2, 5007360, Note_on_c, 0, 58, 100
2, 5015040, Note_off_c, 0, 76, 0
2, 5015040, Note_off_c, 0, 88, 0
2, 5015040, Note_on_c, 0, 72, 100
2, 5015040, Note_on_c, 0, 84, 100
2, 5022720, Note_off_c, 0, 46, 0
2, 5022720, Note_off_c, 0, 58, 0
2, 5022720, Note_off_c, 0, 72, 0
2, 5022720, Note_off_c, 0, 84, 0
2, 5022720, Note_on_c, 0, 55, 100
2, 5022720, Note_on_c, 0, 60, 100
2, 5022720, Note_on_c, 0, 64, 100
2, 5022720, Note_on_c, 0, 74, 100
2, 5022720, Note_on_c, 0, 86, 100
2, 5030400, Note_off_c, 0, 74, 0
2, 5030400, Note_off_c, 0, 86, 0
2, 5030400, Note_on_c, 0, 72, 100
2, 5030400, Note_on_c, 0, 84, 100
2, 5038080, Note_off_c, 0, 55, 0
2, 5038080, Note_off_c, 0, 60, 0
2, 5038080, Note_off_c, 0, 64, 0
2, 5038080, Note_off_c, 0, 72, 0
2, 5038080, Note_off_c, 0, 84, 0
2, 5038080, Note_on_c, 0, 43, 100
2, 5038080, Note_on_c, 0, 55, 100
2, 5038080, Note_on_c, 0, 76, 100
2, 5038080, Note_on_c, 0, 79, 100
2, 5038080, Note_on_c, 0, 88, 100
2, 5045760, Note_off_c, 0, 76, 0
2, 5045760, Note_off_c, 0, 79, 0
2, 5045760, Note_off_c, 0, 88, 0
2, 5045760, Note_on_c, 0, 72, 100
2, 5045760, Note_on_c, 0, 76, 100
2, 5045760, Note_on_c, 0, 84, 100
2, 5053440, Note_off_c, 0, 43, 0
2, 5053440, Note_off_c, 0, 55, 0
2, 5053440, Note_off_c, 0, 72, 0
2, 5053440, Note_off_c, 0, 76, 0
2, 5053440, Note_off_c, 0, 84, 0
2, 5053440, Note_on_c, 0, 55, 100
2, 5053440, Note_on_c, 0, 60, 100
2, 5053440, Note_on_c, 0, 64, 100
2, 5053440, Note_on_c, 0, 74, 100
2, 5053440, Note_on_c, 0, 77, 100
2, 5053440, Note_on_c, 0, 86, 100
2, 5061120, Note_off_c, 0, 74, 0
2, 5061120, Note_off_c, 0, 77, 0
2, 5061120, Note_off_c, 0, 86, 0
2, 5061120, Note_on_c, 0, 76, 100
2, 5061120, Note_on_c, 0, 79, 100
2, 5061120, Note_on_c, 0, 88, 100
2, 5068800, Note_off_c, 0, 55, 0
2, 5068800, Note_off_c, 0, 60, 0
2, 5068800, Note_off_c, 0, 64, 0
2, 5068800, Note_on_c, 0, 43, 100
2, 5076480, Note_off_c, 0, 76, 0
2, 5076480, Note_off_c, 0, 79, 0
2, 5076480, Note_off_c, 0, 88, 0
2, 5076480, Note_on_c, 0, 71, 100
2, 5076480, Note_on_c, 0, 74, 100
2, 5076480, Note_on_c, 0, 83, 100
2, 5084160, Note_off_c, 0, 43, 0
2, 5084160, Note_off_c, 0, 71, 0
2, 5084160, Note_off_c, 0, 74, 0
2, 5084160, Note_off_c, 0, 83, 0
2, 5084160, Note_on_c, 0, 55, 100
2, 5084160, Note_on_c, 0, 59, 100
2, 5084160, Note_on_c, 0, 74, 100
2, 5084160, Note_on_c, 0, 77, 100
2, 5084160, Note_on_c, 0, 86, 100
2, 5099520, Note_off_c, 0, 55, 0
2, 5099520, Note_off_c, 0, 59, 0
2, 5099520, Note_off_c, 0, 74, 0
2, 5099520, Note_off_c, 0, 77, 0
2, 5099520, Note_off_c, 0, 86, 0
2, 5099520, Note_on_c, 0, 48, 100
2, 5099520, Note_on_c, 0, 55, 100
2, 5099520, Note_on_c, 0, 60, 100
2, 5099520, Note_on_c, 0, 72, 100
2, 5099520, Note_on_c, 0, 76, 100
2, 5099520, Note_on_c, 0, 84, 100
2, 5114880, Note_off_c, 0, 48, 0
2, 5114880, Note_off_c, 0, 55, 0
2, 5114880, Note_off_c, 0, 60, 0
2, 5114880, Note_on_c, 0, 43, 100
2, 5114880, Note_on_c, 0, 55, 100
2, 5130240, Note_off_c, 0, 72, 0
2, 5130240, Note_off_c, 0, 76, 0
2, 5130240, Note_off_c, 0, 84, 0
2, 5130240, Note_off_c, 0, 43, 0
2, 5130240, Note_off_c, 0, 55, 0
2, 5130240, Note_on_c, 0, 36, 100
2, 5130240, Note_on_c, 0, 48, 100
2, 5130240, Note_on_c, 0, 72, 100
2, 5130240, Note_on_c, 0, 76, 100
2, 5130240, Note_on_c, 0, 84, 100
2, 5145600, Note_off_c, 0, 36, 0
2, 5145600, Note_off_c, 0, 48, 0
2, 5145600, Note_off_c, 0, 72, 0
2, 5145600, Note_off_c, 0, 76, 0
2, 5145600, Note_off_c, 0, 84, 0
2, 5160960, Note_on_c, 0, 41, 100
2, 5160960, Note_on_c, 0, 77, 100
2, 5160960, Note_on_c, 0, 81, 100
2, 5168640, Note_off_c, 0, 77, 0
2, 5168640, Note_off_c, 0, 81, 0
2, 5168640, Note_on_c, 0, 80, 100
2, 5176320, Note_off_c, 0, 41, 0
2, 5176320, Note_off_c, 0, 80, 0
2, 5176320, Note_on_c, 0, 57, 100
2, 5176320, Note_on_c, 0, 60, 100
2, 5176320, Note_on_c, 0, 65, 100
2, 5176320, Note_on_c, 0, 77, 100
2, 5176320, Note_on_c, 0, 81, 100
2, 5191680, Note_off_c, 0, 57, 0
2, 5191680, Note_off_c, 0, 60, 0
2, 5191680, Note_off_c, 0, 65, 0
2, 5191680, Note_on_c, 0, 48, 100
2, 5207040, Note_off_c, 0, 77, 0
2, 5207040, Note_off_c, 0, 81, 0
2, 5207040, Note_off_c, 0, 48, 0
2, 5207040, Note_on_c, 0, 57, 100
2, 5207040, Note_on_c, 0, 60, 100
2, 5207040, Note_on_c, 0, 65, 100
2, 5207040, Note_on_c, 0, 77, 100
2, 5207040, Note_on_c, 0, 81, 100
2, 5207040, Note_on_c, 0, 84, 100
2, 5222400, Note_off_c, 0, 57, 0
2, 5222400, Note_off_c, 0, 60, 0
2, 5222400, Note_off_c, 0, 65, 0
2, 5222400, Note_off_c, 0, 77, 0
2, 5222400, Note_off_c, 0, 81, 0
2, 5222400, Note_off_c, 0, 84, 0
2, 5222400, Note_on_c, 0, 48, 100
2, 5222400, Note_on_c, 0, 77, 100
2, 5222400, Note_on_c, 0, 82, 100
2, 5222400, Note_on_c, 0, 86, 100
2, 5237760, Note_off_c, 0, 48, 0
2, 5237760, Note_on_c, 0, 58, 100
2, 5237760, Note_on_c, 0, 62, 100
2, 5237760, Note_on_c, 0, 65, 100
2, 5237760, Note_on_c, 0, 70, 100
2, 5245440, Note_off_c, 0, 70, 0
2, 5245440, Note_on_c, 0, 69, 100
2, 5253120, Note_off_c, 0, 58, 0
2, 5253120, Note_off_c, 0, 62, 0
2, 5253120, Note_off_c, 0, 65, 0
2, 5253120, Note_off_c, 0, 69, 0
2, 5253120, Note_on_c, 0, 53, 100
2, 5253120, Note_on_c, 0, 70, 100
2, 5260800, Note_off_c, 0, 70, 0
2, 5260800, Note_on_c, 0, 72, 100
2, 5268480, Note_off_c, 0, 53, 0
2, 5268480, Note_off_c, 0, 72, 0
2, 5268480, Note_on_c, 0, 58, 100
2, 5268480, Note_on_c, 0, 62, 100
2, 5268480, Note_on_c, 0, 65, 100
2, 5268480, Note_on_c, 0, 74, 100
2, 5283840, Note_off_c, 0, 77, 0
2, 5283840, Note_off_c, 0, 82, 0
2, 5283840, Note_off_c, 0, 86, 0
2, 5283840, Note_off_c, 0, 58, 0
2, 5283840, Note_off_c, 0, 62, 0
2, 5283840, Note_off_c, 0, 65, 0
2, 5283840, Note_off_c, 0, 74, 0
2, 5283840, Note_on_c, 0, 38, 100
2, 5283840, Note_on_c, 0, 74, 100
2, 5283840, Note_on_c, 0, 77, 100
2, 5291520, Note_off_c, 0, 74, 0
2, 5291520, Note_off_c, 0, 77, 0
2, 5291520, Note_on_c, 0, 76, 100
2, 5299200, Note_off_c, 0, 38, 0
2, 5299200, Note_off_c, 0, 76, 0
2, 5299200, Note_on_c, 0, 57, 100
2, 5299200, Note_on_c, 0, 62, 100
2, 5299200, Note_on_c, 0, 65, 100
2, 5299200, Note_on_c, 0, 74, 100
2, 5299200, Note_on_c, 0, 77, 100
2, 5314560, Note_off_c, 0, 57, 0
2, 5314560, Note_off_c, 0, 62, 0
2, 5314560, Note_off_c, 0, 65, 0
2, 5314560, Note_on_c, 0, 45, 100
2, 5329920, Note_off_c, 0, 74, 0
2, 5329920, Note_off_c, 0, 77, 0
2, 5329920, Note_off_c, 0, 45, 0
2, 5329920, Note_on_c, 0, 57, 100
2, 5329920, Note_on_c, 0, 62, 100
2, 5329920, Note_on_c, 0, 65, 100
2, 5329920, Note_on_c, 0, 74, 100
2, 5329920, Note_on_c, 0, 77, 100
2, 5329920, Note_on_c, 0, 81, 100
2, 5345280, Note_off_c, 0, 57, 0
2, 5345280, Note_off_c, 0, 62, 0
2, 5345280, Note_off_c, 0, 65, 0
2, 5345280, Note_off_c, 0, 74, 0
2, 5345280, Note_off_c, 0, 77, 0
2, 5345280, Note_off_c, 0, 81, 0
2, 5345280, Note_on_c, 0, 43, 100
2, 5345280, Note_on_c, 0, 74, 100
2, 5345280, Note_on_c, 0, 79, 100
2, 5345280, Note_on_c, 0, 82, 100
2, 5360640, Note_off_c, 0, 43, 0
2, 5360640, Note_on_c, 0, 58, 100
2, 5360640, Note_on_c, 0, 62, 100
2, 5360640, Note_on_c, 0, 67, 100
2, 5368320, Note_off_c, 0, 67, 0
2, 5368320, Note_on_c, 0, 66, 100
2, 5376000, Note_off_c, 0, 58, 0
2, 5376000, Note_off_c, 0, 62, 0
2, 5376000, Note_off_c, 0, 66, 0
2, 5376000, Note_on_c, 0, 50, 100
2, 5376000, Note_on_c, 0, 67, 100
2, 5383680, Note_off_c, 0, 67, 0
2, 5383680, Note_on_c, 0, 69, 100
2, 5391360, Note_off_c, 0, 50, 0
2, 5391360, Note_off_c, 0, 69, 0
2, 5391360, Note_on_c, 0, 58, 100
2, 5391360, Note_on_c, 0, 62, 100
2, 5391360, Note_on_c, 0, 70, 100
2, 5399040, Note_off_c, 0, 74, 0
2, 5399040, Note_off_c, 0, 79, 0
2, 5399040, Note_off_c, 0, 82, 0
2, 5399040, Note_on_c, 0, 82, 100
2, 5406720, Note_off_c, 0, 58, 0
2, 5406720, Note_off_c, 0, 62, 0
2, 5406720, Note_off_c, 0, 70, 0
2, 5406720, Note_off_c, 0, 82, 0
2, 5406720, Note_on_c, 0, 46, 100
2, 5406720, Note_on_c, 0, 58, 100
2, 5406720, Note_on_c, 0, 74, 100
2, 5422080, Note_off_c, 0, 46, 0
2, 5422080, Note_off_c, 0, 58, 0
2, 5422080, Note_off_c, 0, 74, 0
2, 5422080, Note_on_c, 0, 58, 100
2, 5422080, Note_on_c, 0, 62, 100
2, 5422080, Note_on_c, 0, 79, 100
2, 5429760, Note_off_c, 0, 79, 0
2, 5429760, Note_on_c, 0, 74, 100
2, 5437440, Note_off_c, 0, 58, 0
2, 5437440, Note_off_c, 0, 62, 0
2, 5437440, Note_on_c, 0, 43, 100
2, 5437440, Note_on_c, 0, 55, 100
2, 5445120, Note_off_c, 0, 74, 0
2, 5445120, Note_on_c, 0, 79, 100
2, 5452800, Note_off_c, 0, 43, 0
2, 5452800, Note_off_c, 0, 55, 0
2, 5452800, Note_off_c, 0, 79, 0
2, 5452800, Note_on_c, 0, 44, 100
2, 5452800, Note_on_c, 0, 56, 100
2, 5452800, Note_on_c, 0, 74, 100
2, 5468160, Note_off_c, 0, 44, 0
2, 5468160, Note_off_c, 0, 56, 0
2, 5468160, Note_off_c, 0, 74, 0
2, 5468160, Note_on_c, 0, 45, 100
2, 5468160, Note_on_c, 0, 57, 100
2, 5468160, Note_on_c, 0, 72, 100
2, 5483520, Note_off_c, 0, 45, 0
2, 5483520, Note_off_c, 0, 57, 0
2, 5483520, Note_on_c, 0, 57, 100
2, 5483520, Note_on_c, 0, 60, 100
2, 5483520, Note_on_c, 0, 65, 100
2, 5498880, Note_off_c, 0, 72, 0
2, 5498880, Note_off_c, 0, 57, 0
2, 5498880, Note_off_c, 0, 60, 0
2, 5498880, Note_off_c, 0, 65, 0
2, 5498880, Note_on_c, 0, 50, 100
2, 5498880, Note_on_c, 0, 77, 100
2, 5514240, Note_off_c, 0, 50, 0
2, 5514240, Note_on_c, 0, 57, 100
2, 5514240, Note_on_c, 0, 62, 100
2, 5514240, Note_on_c, 0, 65, 100
2, 5529600, Note_off_c, 0, 77, 0
2, 5529600, Note_off_c, 0, 57, 0
2, 5529600, Note_off_c, 0, 62, 0
2, 5529600, Note_off_c, 0, 65, 0
2, 5529600, Note_on_c, 0, 52, 100
2, 5529600, Note_on_c, 0, 76, 100
2, 5537280, Note_off_c, 0, 76, 0
2, 5537280, Note_on_c, 0, 80, 100
2, 5544960, Note_off_c, 0, 52, 0
2, 5544960, Note_off_c, 0, 80, 0
2, 5544960, Note_on_c, 0, 59, 100
2, 5544960, Note_on_c, 0, 62, 100
2, 5544960, Note_on_c, 0, 64, 100
2, 5544960, Note_on_c, 0, 83, 100
2, 5552640, Note_off_c, 0, 83, 0
2, 5552640, Note_on_c, 0, 88, 100
2, 5560320, Note_off_c, 0, 59, 0
2, 5560320, Note_off_c, 0, 62, 0
2, 5560320, Note_off_c, 0, 64, 0
2, 5560320, Note_on_c, 0, 56, 100
2, 5568000, Note_off_c, 0, 88, 0
2, 5568000, Note_on_c, 0, 86, 100
2, 5575680, Note_off_c, 0, 56, 0
2, 5575680, Note_off_c, 0, 86, 0
2, 5575680, Note_on_c, 0, 59, 100
2, 5575680, Note_on_c, 0, 62, 100
2, 5575680, Note_on_c, 0, 64, 100
2, 5575680, Note_on_c, 0, 83, 100
2, 5583360, Note_off_c, 0, 83, 0
2, 5583360, Note_on_c, 0, 84, 100
2, 5591040, Note_off_c, 0, 59, 0
2, 5591040, Note_off_c, 0, 62, 0
2, 5591040, Note_off_c, 0, 64, 0
2, 5591040, Note_off_c, 0, 84, 0
2, 5591040, Note_on_c, 0, 57, 100
2, 5591040, Note_on_c, 0, 60, 100
2, 5591040, Note_on_c, 0, 64, 100
2, 5591040, Note_on_c, 0, 81, 100
2, 5621760, Note_off_c, 0, 57, 0
2, 5621760, Note_off_c, 0, 60, 0
2, 5621760, Note_off_c, 0, 64, 0
2, 5621760, Note_off_c, 0, 81, 0
2, 5621760, Note_on_c, 0, 55, 100
2, 5621760, Note_on_c, 0, 60, 100
2, 5621760, Note_on_c, 0, 64, 100
2, 5621760, Note_on_c, 0, 82, 100
2, 5637120, Note_off_c, 0, 55, 0
2, 5637120, Note_off_c, 0, 60, 0
2, 5637120, Note_off_c, 0, 64, 0
2, 5637120, Note_on_c, 0, 48, 100
2, 5652480, Note_off_c, 0, 82, 0
2, 5652480, Note_off_c, 0, 48, 0
2, 5652480, Note_on_c, 0, 41, 100
2, 5652480, Note_on_c, 0, 77, 100
2, 5652480, Note_on_c, 0, 81, 100
2, 5660160, Note_off_c, 0, 77, 0
2, 5660160, Note_off_c, 0, 81, 0
2, 5660160, Note_on_c, 0, 80, 100
2, 5667840, Note_off_c, 0, 41, 0
2, 5667840, Note_off_c, 0, 80, 0
2, 5667840, Note_on_c, 0, 57, 100
2, 5667840, Note_on_c, 0, 60, 100
2, 5667840, Note_on_c, 0, 65, 100
2, 5667840, Note_on_c, 0, 77, 100
2, 5667840, Note_on_c, 0, 81, 100
2, 5683200, Note_off_c, 0, 57, 0
2, 5683200, Note_off_c, 0, 60, 0
2, 5683200, Note_off_c, 0, 65, 0
2, 5683200, Note_on_c, 0, 48, 100
2, 5698560, Note_off_c, 0, 77, 0
2, 5698560, Note_off_c, 0, 81, 0
2, 5698560, Note_off_c, 0, 48, 0
2, 5698560, Note_on_c, 0, 57, 100
2, 5698560, Note_on_c, 0, 60, 100
2, 5698560, Note_on_c, 0, 65, 100
2, 5698560, Note_on_c, 0, 77, 100
2, 5698560, Note_on_c, 0, 81, 100
2, 5698560, Note_on_c, 0, 84, 100
2, 5713920, Note_off_c, 0, 57, 0
2, 5713920, Note_off_c, 0, 60, 0
2, 5713920, Note_off_c, 0, 65, 0
2, 5713920, Note_off_c, 0, 77, 0
2, 5713920, Note_off_c, 0, 81, 0
2, 5713920, Note_off_c, 0, 84, 0
2, 5713920, Note_on_c, 0, 46, 100
2, 5713920, Note_on_c, 0, 77, 100
2, 5713920, Note_on_c, 0, 82, 100
2, 5713920, Note_on_c, 0, 86, 100
2, 5729280, Note_off_c, 0, 46, 0
2, 5729280, Note_on_c, 0, 58, 100
2, 5729280, Note_on_c, 0, 62, 100
2, 5729280, Note_on_c, 0, 65, 100
2, 5729280, Note_on_c, 0, 70, 100
2, 5736960, Note_off_c, 0, 70, 0
2, 5736960, Note_on_c, 0, 69, 100
2, 5744640, Note_off_c, 0, 58, 0
2, 5744640, Note_off_c, 0, 62, 0
2, 5744640, Note_off_c, 0, 65, 0
2, 5744640, Note_off_c, 0, 69, 0
2, 5744640, Note_on_c, 0, 53, 100
2, 5744640, Note_on_c, 0, 70, 100
2, 5752320, Note_off_c, 0, 70, 0
2, 5752320, Note_on_c, 0, 72, 100
2, 5760000, Note_off_c, 0, 53, 0
2, 5760000, Note_off_c, 0, 72, 0
2, 5760000, Note_on_c, 0, 58, 100
2, 5760000, Note_on_c, 0, 62, 100
2, 5760000, Note_on_c, 0, 65, 100
2, 5760000, Note_on_c, 0, 74, 100
2, 5775360, Note_off_c, 0, 77, 0
2, 5775360, Note_off_c, 0, 82, 0
2, 5775360, Note_off_c, 0, 86, 0
2, 5775360, Note_off_c, 0, 58, 0
2, 5775360, Note_off_c, 0, 62, 0
2, 5775360, Note_off_c, 0, 65, 0
2, 5775360, Note_off_c, 0, 74, 0
2, 5775360, Note_on_c, 0, 38, 100
2, 5775360, Note_on_c, 0, 74, 100
2, 5775360, Note_on_c, 0, 77, 100
2, 5783040, Note_off_c, 0, 74, 0
2, 5783040, Note_off_c, 0, 77, 0
2, 5783040, Note_on_c, 0, 76, 100
2, 5790720, Note_off_c, 0, 38, 0
2, 5790720, Note_off_c, 0, 76, 0
2, 5790720, Note_on_c, 0, 57, 100
2, 5790720, Note_on_c, 0, 62, 100
2, 5790720, Note_on_c, 0, 65, 100
2, 5790720, Note_on_c, 0, 74, 100
2, 5790720, Note_on_c, 0, 77, 100
2, 5806080, Note_off_c, 0, 57, 0
2, 5806080, Note_off_c, 0, 62, 0
2, 5806080, Note_off_c, 0, 65, 0
2, 5806080, Note_on_c, 0, 45, 100
2, 5821440, Note_off_c, 0, 74, 0
2, 5821440, Note_off_c, 0, 77, 0
2, 5821440, Note_off_c, 0, 45, 0
2, 5821440, Note_on_c, 0, 57, 100
2, 5821440, Note_on_c, 0, 62, 100
2, 5821440, Note_on_c, 0, 65, 100
2, 5821440, Note_on_c, 0, 74, 100
2, 5821440, Note_on_c, 0, 77, 100
2, 5821440, Note_on_c, 0, 81, 100
2, 5836800, Note_off_c, 0, 57, 0
2, 5836800, Note_off_c, 0, 62, 0
2, 5836800, Note_off_c, 0, 65, 0
2, 5836800, Note_off_c, 0, 74, 0
2, 5836800, Note_off_c, 0, 77, 0
2, 5836800, Note_off_c, 0, 81, 0
2, 5836800, Note_on_c, 0, 43, 100
2, 5836800, Note_on_c, 0, 74, 100
2, 5836800, Note_on_c, 0, 79, 100
2, 5836800, Note_on_c, 0, 82, 100
2, 5852160, Note_off_c, 0, 43, 0
2, 5852160, Note_on_c, 0, 58, 100
2, 5852160, Note_on_c, 0, 62, 100
2, 5852160, Note_on_c, 0, 67, 100
2, 5859840, Note_off_c, 0, 67, 0
2, 5859840, Note_on_c, 0, 66, 100
2, 5867520, Note_off_c, 0, 58, 0
2, 5867520, Note_off_c, 0, 62, 0
2, 5867520, Note_off_c, 0, 66, 0
2, 5867520, Note_on_c, 0, 50, 100
2, 5867520, Note_on_c, 0, 67, 100
2, 5875200, Note_off_c, 0, 67, 0
2, 5875200, Note_on_c, 0, 69, 100
2, 5882880, Note_off_c, 0, 50, 0
2, 5882880, Note_off_c, 0, 69, 0
2, 5882880, Note_on_c, 0, 58, 100
2, 5882880, Note_on_c, 0, 62, 100
2, 5882880, Note_on_c, 0, 70, 100
2, 5890560, Note_off_c, 0, 74, 0
2, 5890560, Note_off_c, 0, 79, 0
2, 5890560, Note_off_c, 0, 82, 0
2, 5890560, Note_on_c, 0, 82, 100
2, 5898240, Note_off_c, 0, 58, 0
2, 5898240, Note_off_c, 0, 62, 0
2, 5898240, Note_off_c, 0, 70, 0
2, 5898240, Note_off_c, 0, 82, 0
2, 5898240, Note_on_c, 0, 46, 100
2, 5898240, Note_on_c, 0, 58, 100
2, 5898240, Note_on_c, 0, 74, 100
2, 5913600, Note_off_c, 0, 46, 0
2, 5913600, Note_off_c, 0, 58, 0
2, 5913600, Note_off_c, 0, 74, 0
2, 5913600, Note_on_c, 0, 58, 100
2, 5913600, Note_on_c, 0, 62, 100
2, 5913600, Note_on_c, 0, 79, 100
2, 5921280, Note_off_c, 0, 79, 0
2, 5921280, Note_on_c, 0, 74, 100
2, 5928960, Note_off_c, 0, 58, 0
2, 5928960, Note_off_c, 0, 62, 0
2, 5928960, Note_on_c, 0, 43, 100
2, 5928960, Note_on_c, 0, 55, 100
2, 5936640, Note_off_c, 0, 74, 0
2, 5936640, Note_on_c, 0, 79, 100
2, 5944320, Note_off_c, 0, 43, 0
2, 5944320, Note_off_c, 0, 55, 0
2, 5944320, Note_off_c, 0, 79, 0
2, 5944320, Note_on_c, 0, 44, 100
2, 5944320, Note_on_c, 0, 56, 100
2, 5944320, Note_on_c, 0, 74, 100
2, 5959680, Note_off_c, 0, 44, 0
2, 5959680, Note_off_c, 0, 56, 0
2, 5959680, Note_off_c, 0, 74, 0
2, 5959680, Note_on_c, 0, 45, 100
2, 5959680, Note_on_c, 0, 57, 100
2, 5959680, Note_on_c, 0, 72, 100
2, 5975040, Note_off_c, 0, 45, 0
2, 5975040, Note_off_c, 0, 57, 0
2, 5975040, Note_on_c, 0, 41, 117
2, 5975040, Note_on_c, 0, 53, 117
2, 5990400, Note_off_c, 0, 72, 0
2, 5990400, Note_off_c, 0, 41, 0
2, 5990400, Note_off_c, 0, 53, 0
2, 5990400, Note_on_c, 0, 40, 127
2, 5990400, Note_on_c, 0, 52, 127
2, 5990400, Note_on_c, 0, 68, 127
2, 5990400, Note_on_c, 0, 71, 127
2, 5990400, Note_on_c, 0, 77, 127
2, 6005760, Note_off_c, 0, 40, 0
2, 6005760, Note_off_c, 0, 52, 0
2, 6005760, Note_on_c, 0, 39, 120
2, 6005760, Note_on_c, 0, 51, 120
2, 6013440, Note_off_c, 0, 68, 0
2, 6013440, Note_off_c, 0, 71, 0
2, 6013440, Note_off_c, 0, 77, 0
2, 6013440, Note_on_c, 0, 77, 107
2, 6021120, Note_off_c, 0, 39, 0
2, 6021120, Note_off_c, 0, 51, 0
2, 6021120, Note_off_c, 0, 77, 0
2, 6021120, Note_on_c, 0, 36, 100
2, 6021120, Note_on_c, 0, 48, 100
2, 6021120, Note_on_c, 0, 69, 100
2, 6021120, Note_on_c, 0, 72, 100
2, 6021120, Note_on_c, 0, 81, 100
2, 6028800, Note_off_c, 0, 69, 0
2, 6028800, Note_off_c, 0, 72, 0
2, 6028800, Note_off_c, 0, 81, 0
2, 6028800, Note_on_c, 0, 72, 100
2, 6028800, Note_on_c, 0, 84, 100
2, 6036480, Note_off_c, 0, 36, 0
2, 6036480, Note_off_c, 0, 48, 0
2, 6036480, Note_on_c, 0, 57, 100
2, 6036480, Note_on_c, 0, 60, 100
2, 6036480, Note_on_c, 0, 65, 100
2, 6044160, Note_off_c, 0, 72, 0
2, 6044160, Note_off_c, 0, 84, 0
2, 6044160, Note_on_c, 0, 70, 100
2, 6044160, Note_on_c, 0, 79, 100
2, 6051840, Note_off_c, 0, 57, 0
2, 6051840, Note_off_c, 0, 60, 0
2, 6051840, Note_off_c, 0, 65, 0
2, 6051840, Note_off_c, 0, 70, 0
2, 6051840, Note_on_c, 0, 48, 100
2, 6051840, Note_on_c, 0, 60, 100
2, 6059520, Note_off_c, 0, 79, 0
2, 6059520, Note_on_c, 0, 72, 100
2, 6067200, Note_off_c, 0, 48, 0
2, 6067200, Note_off_c, 0, 60, 0
2, 6067200, Note_off_c, 0, 72, 0
2, 6067200, Note_on_c, 0, 36, 100
2, 6067200, Note_on_c, 0, 48, 100
2, 6067200, Note_on_c, 0, 70, 100
2, 6067200, Note_on_c, 0, 74, 100
2, 6074880, Note_off_c, 0, 74, 0
2, 6074880, Note_on_c, 0, 76, 100
2, 6082560, Note_off_c, 0, 36, 0
2, 6082560, Note_off_c, 0, 48, 0
2, 6082560, Note_off_c, 0, 70, 0
2, 6082560, Note_off_c, 0, 76, 0
2, 6082560, Note_on_c, 0, 41, 100
2, 6082560, Note_on_c, 0, 53, 100
2, 6082560, Note_on_c, 0, 69, 100
2, 6082560, Note_on_c, 0, 77, 100
2, 6097920, Note_off_c, 0, 41, 0
2, 6097920, Note_off_c, 0, 53, 0
2, 6097920, Note_off_c, 0, 69, 0
2, 6097920, Note_off_c, 0, 77, 0
2, 6097920, Note_on_c, 0, 71, 100
2, 6105600, Note_off_c, 0, 71, 0
2, 6105600, Note_on_c, 0, 72, 100
2, 6113280, Note_off_c, 0, 72, 0
2, 6113280, Note_on_c, 0, 74, 100
2, 6120960, Note_off_c, 0, 74, 0
2, 6120960, Note_on_c, 0, 76, 100
2, 6128640, Note_off_c, 0, 76, 0
2, 6128640, Note_on_c, 0, 77, 100
2, 6136320, Note_off_c, 0, 77, 0
2, 6136320, Note_on_c, 0, 79, 100
2, 6144000, Note_off_c, 0, 79, 0
2, 6144000, Note_on_c, 0, 41, 100
2, 6144000, Note_on_c, 0, 77, 100
2, 6144000, Note_on_c, 0, 81, 100
2, 6151680, Note_off_c, 0, 77, 0
2, 6151680, Note_off_c, 0, 81, 0
2, 6151680, Note_on_c, 0, 80, 100
2, 6159360, Note_off_c, 0, 41, 0
2, 6159360, Note_off_c, 0, 80, 0
2, 6159360, Note_on_c, 0, 57, 100
2, 6159360, Note_on_c, 0, 60, 100
2, 6159360, Note_on_c, 0, 65, 100
2, 6159360, Note_on_c, 0, 77, 100
2, 6159360, Note_on_c, 0, 81, 100
2, 6174720, Note_off_c, 0, 57, 0
2, 6174720, Note_off_c, 0, 60, 0
2, 6174720, Note_off_c, 0, 65, 0
2, 6174720, Note_on_c, 0, 48, 100
2, 6190080, Note_off_c, 0, 77, 0
2, 6190080, Note_off_c, 0, 81, 0
2, 6190080, Note_off_c, 0, 48, 0
2, 6190080, Note_on_c, 0, 57, 100
2, 6190080, Note_on_c, 0, 60, 100
2, 6190080, Note_on_c, 0, 65, 100
2, 6190080, Note_on_c, 0, 77, 100
2, 6190080, Note_on_c, 0, 81, 100
2, 6190080, Note_on_c, 0, 84, 100
2, 6205440, Note_off_c, 0, 57, 0
2, 6205440, Note_off_c, 0, 60, 0
2, 6205440, Note_off_c, 0, 65, 0
2, 6205440, Note_off_c, 0, 77, 0
2, 6205440, Note_off_c, 0, 81, 0
2, 6205440, Note_off_c, 0, 84, 0
2, 6205440, Note_on_c, 0, 48, 100
2, 6205440, Note_on_c, 0, 77, 100
2, 6205440, Note_on_c, 0, 82, 100
2, 6205440, Note_on_c, 0, 86, 100
2, 6220800, Note_off_c, 0, 48, 0
2, 6220800, Note_on_c, 0, 58, 100
2, 6220800, Note_on_c, 0, 62, 100
2, 6220800, Note_on_c, 0, 65, 100
2, 6220800, Note_on_c, 0, 70, 100
2, 6228480, Note_off_c, 0, 70, 0
2, 6228480, Note_on_c, 0, 69, 100
2, 6236160, Note_off_c, 0, 58, 0
2, 6236160, Note_off_c, 0, 62, 0
2, 6236160, Note_off_c, 0, 65, 0
2, 6236160, Note_off_c, 0, 69, 0
2, 6236160, Note_on_c, 0, 53, 100
2, 6236160, Note_on_c, 0, 70, 100
2, 6243840, Note_off_c, 0, 70, 0
2, 6243840, Note_on_c, 0, 72, 100
2, 6251520, Note_off_c, 0, 53, 0
2, 6251520, Note_off_c, 0, 72, 0
2, 6251520, Note_on_c, 0, 58, 100
2, 6251520, Note_on_c, 0, 62, 100
2, 6251520, Note_on_c, 0, 65, 100
2, 6251520, Note_on_c, 0, 74, 100
2, 6266880, Note_off_c, 0, 77, 0
2, 6266880, Note_off_c, 0, 82, 0
2, 6266880, Note_off_c, 0, 86, 0
2, 6266880, Note_off_c, 0, 58, 0
2, 6266880, Note_off_c, 0, 62, 0
2, 6266880, Note_off_c, 0, 65, 0
2, 6266880, Note_off_c, 0, 74, 0
2, 6266880, Note_on_c, 0, 38, 100
2, 6266880, Note_on_c, 0, 74, 100
2, 6266880, Note_on_c, 0, 77, 100
2, 6274560, Note_off_c, 0, 74, 0
2, 6274560, Note_off_c, 0, 77, 0
2, 6274560, Note_on_c, 0, 76, 100
2, 6282240, Note_off_c, 0, 38, 0
2, 6282240, Note_off_c, 0, 76, 0
2, 6282240, Note_on_c, 0, 57, 100
2, 6282240, Note_on_c, 0, 62, 100
2, 6282240, Note_on_c, 0, 65, 100
2, 6282240, Note_on_c, 0, 74, 100
2, 6282240, Note_on_c, 0, 77, 100
2, 6297600, Note_off_c, 0, 57, 0
2, 6297600, Note_off_c, 0, 62, 0
2, 6297600, Note_off_c, 0, 65, 0
2, 6297600, Note_on_c, 0, 45, 100
2, 6312960, Note_off_c, 0, 74, 0
2, 6312960, Note_off_c, 0, 77, 0
2, 6312960, Note_off_c, 0, 45, 0
2, 6312960, Note_on_c, 0, 57, 100
2, 6312960, Note_on_c, 0, 62, 100
2, 6312960, Note_on_c, 0, 65, 100
2, 6312960, Note_on_c, 0, 74, 100
2, 6312960, Note_on_c, 0, 77, 100
2, 6312960, Note_on_c, 0, 81, 100
2, 6328320, Note_off_c, 0, 57, 0
2, 6328320, Note_off_c, 0, 62, 0
2, 6328320, Note_off_c, 0, 65, 0
2, 6328320, Note_off_c, 0, 74, 0
2, 6328320, Note_off_c, 0, 77, 0
2, 6328320, Note_off_c, 0, 81, 0
2, 6328320, Note_on_c, 0, 43, 100
2, 6328320, Note_on_c, 0, 74, 100
2, 6328320, Note_on_c, 0, 79, 100
2, 6328320, Note_on_c, 0, 82, 100
2, 6343680, Note_off_c, 0, 43, 0
2, 6343680, Note_on_c, 0, 58, 100
2, 6343680, Note_on_c, 0, 62, 100
2, 6343680, Note_on_c, 0, 67, 100
2, 6351360, Note_off_c, 0, 67, 0
2, 6351360, Note_on_c, 0, 66, 100
2, 6359040, Note_off_c, 0, 58, 0
2, 6359040, Note_off_c, 0, 62, 0
2, 6359040, Note_off_c, 0, 66, 0
2, 6359040, Note_on_c, 0, 50, 100
2, 6359040, Note_on_c, 0, 67, 100
2, 6366720, Note_off_c, 0, 67, 0
2, 6366720, Note_on_c, 0, 69, 100
2, 6374400, Note_off_c, 0, 50, 0
2, 6374400, Note_off_c, 0, 69, 0
2, 6374400, Note_on_c, 0, 58, 100
2, 6374400, Note_on_c, 0, 62, 100
2, 6374400, Note_on_c, 0, 70, 100
2, 6382080, Note_off_c, 0, 74, 0
2, 6382080, Note_off_c, 0, 79, 0
2, 6382080, Note_off_c, 0, 82, 0
2, 6382080, Note_on_c, 0, 82, 100
2, 6389760, Note_off_c, 0, 58, 0
2, 6389760, Note_off_c, 0, 62, 0
2, 6389760, Note_off_c, 0, 70, 0
2, 6389760, Note_off_c, 0, 82, 0
2, 6389760, Note_on_c, 0, 46, 100
2, 6389760, Note_on_c, 0, 58, 100
2, 6389760, Note_on_c, 0, 74, 100
2, 6405120, Note_off_c, 0, 46, 0
2, 6405120, Note_off_c, 0, 58, 0
2, 6405120, Note_off_c, 0, 74, 0
2, 6405120, Note_on_c, 0, 58, 100
2, 6405120, Note_on_c, 0, 62, 100
2, 6405120, Note_on_c, 0, 79, 100
2, 6412800, Note_off_c, 0, 79, 0
2, 6412800, Note_on_c, 0, 74, 100
2, 6420480, Note_off_c, 0, 58, 0
2, 6420480, Note_off_c, 0, 62, 0
2, 6420480, Note_on_c, 0, 43, 100
2, 6420480, Note_on_c, 0, 55, 100
2, 6428160, Note_off_c, 0, 74, 0
2, 6428160, Note_on_c, 0, 79, 100
2, 6435840, Note_off_c, 0, 43, 0
2, 6435840, Note_off_c, 0, 55, 0
2, 6435840, Note_off_c, 0, 79, 0
2, 6435840, Note_on_c, 0, 44, 100
2, 6435840, Note_on_c, 0, 56, 100
2, 6435840, Note_on_c, 0, 74, 100
2, 6451200, Note_off_c, 0, 44, 0
2, 6451200, Note_off_c, 0, 56, 0
2, 6451200, Note_off_c, 0, 74, 0
2, 6451200, Note_on_c, 0, 45, 100
2, 6451200, Note_on_c, 0, 57, 100
2, 6451200, Note_on_c, 0, 72, 100
2, 6466560, Note_off_c, 0, 45, 0
2, 6466560, Note_off_c, 0, 57, 0
2, 6466560, Note_on_c, 0, 57, 100
2, 6466560, Note_on_c, 0, 60, 100
2, 6466560, Note_on_c, 0, 65, 100
2, 6481920, Note_off_c, 0, 72, 0
2, 6481920, Note_off_c, 0, 57, 0
2, 6481920, Note_off_c, 0, 60, 0
2, 6481920, Note_off_c, 0, 65, 0
2, 6481920, Note_on_c, 0, 50, 100
2, 6481920, Note_on_c, 0, 77, 100
2, 6497280, Note_off_c, 0, 50, 0
2, 6497280, Note_on_c, 0, 57, 100
2, 6497280, Note_on_c, 0, 62, 100
2, 6497280, Note_on_c, 0, 65, 100
2, 6512640, Note_off_c, 0, 77, 0
2, 6512640, Note_off_c, 0, 57, 0
2, 6512640, Note_off_c, 0, 62, 0
2, 6512640, Note_off_c, 0, 65, 0
2, 6512640, Note_on_c, 0, 52, 100
2, 6512640, Note_on_c, 0, 76, 100
2, 6520320, Note_off_c, 0, 76, 0
2, 6520320, Note_on_c, 0, 80, 100
2, 6528000, Note_off_c, 0, 52, 0
2, 6528000, Note_off_c, 0, 80, 0
2, 6528000, Note_on_c, 0, 59, 100
2, 6528000, Note_on_c, 0, 62, 100
2, 6528000, Note_on_c, 0, 64, 100
2, 6528000, Note_on_c, 0, 83, 100
2, 6535680, Note_off_c, 0, 83, 0
2, 6535680, Note_on_c, 0, 88, 100
2, 6543360, Note_off_c, 0, 59, 0
2, 6543360, Note_off_c, 0, 62, 0
2, 6543360, Note_off_c, 0, 64, 0
2, 6543360, Note_on_c, 0, 56, 100
2, 6551040, Note_off_c, 0, 88, 0
2, 6551040, Note_on_c, 0, 86, 100
2, 6558720, Note_off_c, 0, 56, 0
2, 6558720, Note_off_c, 0, 86, 0
2, 6558720, Note_on_c, 0, 59, 100
2, 6558720, Note_on_c, 0, 62, 100
2, 6558720, Note_on_c, 0, 64, 100
2, 6558720, Note_on_c, 0, 83, 100
2, 6566400, Note_off_c, 0, 83, 0
2, 6566400, Note_on_c, 0, 84, 100
2, 6574080, Note_off_c, 0, 59, 0
2, 6574080, Note_off_c, 0, 62, 0
2, 6574080, Note_off_c, 0, 64, 0
2, 6574080, Note_off_c, 0, 84, 0
2, 6574080, Note_on_c, 0, 57, 100
2, 6574080, Note_on_c, 0, 60, 100
2, 6574080, Note_on_c, 0, 64, 100
2, 6574080, Note_on_c, 0, 81, 100
2, 6604800, Note_off_c, 0, 57, 0
2, 6604800, Note_off_c, 0, 60, 0
2, 6604800, Note_off_c, 0, 64, 0
2, 6604800, Note_off_c, 0, 81, 0
2, 6604800, Note_on_c, 0, 55, 125
2, 6604800, Note_on_c, 0, 60, 125
2, 6604800, Note_on_c, 0, 64, 125
2, 6604800, Note_on_c, 0, 82, 125
2, 6620160, Note_off_c, 0, 55, 0
2, 6620160, Note_off_c, 0, 60, 0
2, 6620160, Note_off_c, 0, 64, 0
2, 6620160, Note_on_c, 0, 48, 100
2, 6635520, Note_off_c, 0, 82, 0
2, 6635520, Note_off_c, 0, 48, 0
2, 6635520, Note_on_c, 0, 41, 100
2, 6635520, Note_on_c, 0, 77, 100
2, 6635520, Note_on_c, 0, 81, 100
2, 6643200, Note_off_c, 0, 77, 0
2, 6643200, Note_off_c, 0, 81, 0
2, 6643200, Note_on_c, 0, 80, 100
2, 6650880, Note_off_c, 0, 41, 0
2, 6650880, Note_off_c, 0, 80, 0
2, 6650880, Note_on_c, 0, 57, 100
2, 6650880, Note_on_c, 0, 60, 100
2, 6650880, Note_on_c, 0, 65, 100
2, 6650880, Note_on_c, 0, 77, 100
2, 6650880, Note_on_c, 0, 81, 100
2, 6666240, Note_off_c, 0, 57, 0
2, 6666240, Note_off_c, 0, 60, 0
2, 6666240, Note_off_c, 0, 65, 0
2, 6666240, Note_on_c, 0, 48, 100
2, 6681600, Note_off_c, 0, 77, 0
2, 6681600, Note_off_c, 0, 81, 0
2, 6681600, Note_off_c, 0, 48, 0
2, 6681600, Note_on_c, 0, 57, 100
2, 6681600, Note_on_c, 0, 60, 100
2, 6681600, Note_on_c, 0, 65, 100
2, 6681600, Note_on_c, 0, 77, 100
2, 6681600, Note_on_c, 0, 81, 100
2, 6681600, Note_on_c, 0, 84, 100
2, 6696960, Note_off_c, 0, 57, 0
2, 6696960, Note_off_c, 0, 60, 0
2, 6696960, Note_off_c, 0, 65, 0
2, 6696960, Note_off_c, 0, 77, 0
2, 6696960, Note_off_c, 0, 81, 0
2, 6696960, Note_off_c, 0, 84, 0
2, 6696960, Note_on_c, 0, 46, 100
2, 6696960, Note_on_c, 0, 77, 100
2, 6696960, Note_on_c, 0, 82, 100
2, 6696960, Note_on_c, 0, 86, 100
2, 6712320, Note_off_c, 0, 46, 0
2, 6712320, Note_on_c, 0, 58, 100
2, 6712320, Note_on_c, 0, 62, 100
2, 6712320, Note_on_c, 0, 65, 100
2, 6712320, Note_on_c, 0, 70, 100
2, 6720000, Note_off_c, 0, 70, 0
2, 6720000, Note_on_c, 0, 69, 100
2, 6727680, Note_off_c, 0, 58, 0
2, 6727680, Note_off_c, 0, 62, 0
2, 6727680, Note_off_c, 0, 65, 0
2, 6727680, Note_off_c, 0, 69, 0
2, 6727680, Note_on_c, 0, 53, 100
2, 6727680, Note_on_c, 0, 70, 100
2, 6735360, Note_off_c, 0, 70, 0
2, 6735360, Note_on_c, 0, 72, 100
2, 6743040, Note_off_c, 0, 53, 0
2, 6743040, Note_off_c, 0, 72, 0
2, 6743040, Note_on_c, 0, 58, 100
2, 6743040, Note_on_c, 0, 62, 100
2, 6743040, Note_on_c, 0, 65, 100
2, 6743040, Note_on_c, 0, 74, 100
2, 6758400, Note_off_c, 0, 77, 0
2, 6758400, Note_off_c, 0, 82, 0
2, 6758400, Note_off_c, 0, 86, 0
2, 6758400, Note_off_c, 0, 58, 0
2, 6758400, Note_off_c, 0, 62, 0
2, 6758400, Note_off_c, 0, 65, 0
2, 6758400, Note_off_c, 0, 74, 0
2, 6758400, Note_on_c, 0, 38, 100
2, 6758400, Note_on_c, 0, 74, 100
2, 6758400, Note_on_c, 0, 77, 100
2, 6766080, Note_off_c, 0, 74, 0
2, 6766080, Note_off_c, 0, 77, 0
2, 6766080, Note_on_c, 0, 76, 100
2, 6773760, Note_off_c, 0, 38, 0
2, 6773760, Note_off_c, 0, 76, 0
2, 6773760, Note_on_c, 0, 57, 100
2, 6773760, Note_on_c, 0, 62, 100
2, 6773760, Note_on_c, 0, 65, 100
2, 6773760, Note_on_c, 0, 74, 100
2, 6773760, Note_on_c, 0, 77, 100
2, 6789120, Note_off_c, 0, 57, 0
2, 6789120, Note_off_c, 0, 62, 0
2, 6789120, Note_off_c, 0, 65, 0
2, 6789120, Note_on_c, 0, 45, 100
2, 6804480, Note_off_c, 0, 74, 0
2, 6804480, Note_off_c, 0, 77, 0
2, 6804480, Note_off_c, 0, 45, 0
2, 6804480, Note_on_c, 0, 57, 100
2, 6804480, Note_on_c, 0, 62, 100
2, 6804480, Note_on_c, 0, 65, 100
2, 6804480, Note_on_c, 0, 74, 100
2, 6804480, Note_on_c, 0, 77, 100
2, 6804480, Note_on_c, 0, 81, 100
2, 6819840, Note_off_c, 0, 57, 0
2, 6819840, Note_off_c, 0, 62, 0
2, 6819840, Note_off_c, 0, 65, 0
2, 6819840, Note_off_c, 0, 74, 0
2, 6819840, Note_off_c, 0, 77, 0
2, 6819840, Note_off_c, 0, 81, 0
2, 6819840, Note_on_c, 0, 43, 100
2, 6819840, Note_on_c, 0, 74, 100
2, 6819840, Note_on_c, 0, 79, 100
2, 6819840, Note_on_c, 0, 82, 100
2, 6835200, Note_off_c, 0, 43, 0
2, 6835200, Note_on_c, 0, 58, 100
2, 6835200, Note_on_c, 0, 62, 100
2, 6835200, Note_on_c, 0, 67, 100
2, 6842880, Note_off_c, 0, 67, 0
2, 6842880, Note_on_c, 0, 66, 100
2, 6850560, Note_off_c, 0, 58, 0
2, 6850560, Note_off_c, 0, 62, 0
2, 6850560, Note_off_c, 0, 66, 0
2, 6850560, Note_on_c, 0, 50, 100
2, 6850560, Note_on_c, 0, 67, 100
2, 6858240, Note_off_c, 0, 67, 0
2, 6858240, Note_on_c, 0, 69, 100
2, 6865920, Note_off_c, 0, 50, 0
2, 6865920, Note_off_c, 0, 69, 0
2, 6865920, Note_on_c, 0, 58, 100
2, 6865920, Note_on_c, 0, 62, 100
2, 6865920, Note_on_c, 0, 70, 100
2, 6873600, Note_off_c, 0, 74, 0
2, 6873600, Note_off_c, 0, 79, 0
2, 6873600, Note_off_c, 0, 82, 0
2, 6873600, Note_on_c, 0, 82, 100
2, 6881280, Note_off_c, 0, 58, 0
2, 6881280, Note_off_c, 0, 62, 0
2, 6881280, Note_off_c, 0, 70, 0
2, 6881280, Note_off_c, 0, 82, 0
2, 6881280, Note_on_c, 0, 46, 100
2, 6881280, Note_on_c, 0, 58, 100
2, 6881280, Note_on_c, 0, 74, 100
2, 6896640, Note_off_c, 0, 46, 0
2, 6896640, Note_off_c, 0, 58, 0
2, 6896640, Note_off_c, 0, 74, 0
2, 6896640, Note_on_c, 0, 58, 100
2, 6896640, Note_on_c, 0, 62, 100
2, 6896640, Note_on_c, 0, 79, 100
2, 6904320, Note_off_c, 0, 79, 0
2, 6904320, Note_on_c, 0, 74, 100
2, 6912000, Note_off_c, 0, 58, 0
2, 6912000, Note_off_c, 0, 62, 0
2, 6912000, Note_on_c, 0, 43, 100
2, 6912000, Note_on_c, 0, 55, 100
2, 6919680, Note_off_c, 0, 74, 0
2, 6919680, Note_on_c, 0, 79, 100
2, 6927360, Note_off_c, 0, 43, 0
2, 6927360, Note_off_c, 0, 55, 0
2, 6927360, Note_off_c, 0, 79, 0
2, 6927360, Note_on_c, 0, 44, 100
2, 6927360, Note_on_c, 0, 56, 100
2, 6927360, Note_on_c, 0, 74, 100
2, 6942720, Note_off_c, 0, 44, 0
2, 6942720, Note_off_c, 0, 56, 0
2, 6942720, Note_off_c, 0, 74, 0
2, 6942720, Note_on_c, 0, 45, 100
2, 6942720, Note_on_c, 0, 57, 100
2, 6942720, Note_on_c, 0, 72, 100
2, 6958080, Note_off_c, 0, 45, 0
2, 6958080, Note_off_c, 0, 57, 0
2, 6958080, Note_on_c, 0, 41, 107
2, 6958080, Note_on_c, 0, 53, 107
2, 6973440, Note_off_c, 0, 72, 0
2, 6973440, Note_off_c, 0, 41, 0
2, 6973440, Note_off_c, 0, 53, 0
2, 6973440, Note_on_c, 0, 40, 124
2, 6973440, Note_on_c, 0, 52, 124
2, 6973440, Note_on_c, 0, 68, 124
2, 6973440, Note_on_c, 0, 71, 124
2, 6973440, Note_on_c, 0, 76, 124
2, 6988800, Note_off_c, 0, 40, 0
2, 6988800, Note_off_c, 0, 52, 0
2, 6988800, Note_on_c, 0, 39, 110
2, 6988800, Note_on_c, 0, 51, 110
2, 6996480, Note_off_c, 0, 68, 0
2, 6996480, Note_off_c, 0, 71, 0
2, 6996480, Note_off_c, 0, 76, 0
2, 6996480, Note_on_c, 0, 76, 100
2, 7004160, Note_off_c, 0, 39, 0
2, 7004160, Note_off_c, 0, 51, 0
2, 7004160, Note_off_c, 0, 76, 0
2, 7004160, Note_on_c, 0, 36, 100
2, 7004160, Note_on_c, 0, 48, 100
2, 7004160, Note_on_c, 0, 69, 100
2, 7004160, Note_on_c, 0, 72, 100
2, 7004160, Note_on_c, 0, 81, 100
2, 7011840, Note_off_c, 0, 69, 0
2, 7011840, Note_off_c, 0, 72, 0
2, 7011840, Note_off_c, 0, 81, 0
2, 7011840, Note_on_c, 0, 72, 100
2, 7011840, Note_on_c, 0, 84, 100
2, 7019520, Note_off_c, 0, 36, 0
2, 7019520, Note_off_c, 0, 48, 0
2, 7019520, Note_on_c, 0, 57, 100
2, 7019520, Note_on_c, 0, 60, 100
2, 7019520, Note_on_c, 0, 65, 100
2, 7027200, Note_off_c, 0, 72, 0
2, 7027200, Note_off_c, 0, 84, 0
2, 7027200, Note_on_c, 0, 70, 100
2, 7027200, Note_on_c, 0, 79, 100
2, 7034880, Note_off_c, 0, 57, 0
2, 7034880, Note_off_c, 0, 60, 0
2, 7034880, Note_off_c, 0, 65, 0
2, 7034880, Note_off_c, 0, 70, 0
2, 7034880, Note_on_c, 0, 48, 100
2, 7034880, Note_on_c, 0, 60, 100
2, 7042560, Note_off_c, 0, 79, 0
2, 7042560, Note_on_c, 0, 72, 100
2, 7050240, Note_off_c, 0, 48, 0
2, 7050240, Note_off_c, 0, 60, 0
2, 7050240, Note_off_c, 0, 72, 0
2, 7050240, Note_on_c, 0, 36, 100
2, 7050240, Note_on_c, 0, 48, 100
2, 7050240, Note_on_c, 0, 70, 100
2, 7050240, Note_on_c, 0, 74, 100
2, 7057920, Note_off_c, 0, 74, 0
2, 7057920, Note_on_c, 0, 76, 100
2, 7065600, Note_off_c, 0, 36, 0
2, 7065600, Note_off_c, 0, 48, 0
2, 7065600, Note_off_c, 0, 70, 0
2, 7065600, Note_off_c, 0, 76, 0
2, 7065600, Note_on_c, 0, 41, 100
2, 7065600, Note_on_c, 0, 53, 100
2, 7065600, Note_on_c, 0, 69, 100
2, 7065600, Note_on_c, 0, 77, 100
2, 7080960, Note_off_c, 0, 41, 0
2, 7080960, Note_off_c, 0, 53, 0
2, 7080960, Note_off_c, 0, 69, 0
2, 7080960, Note_off_c, 0, 77, 0
2, 7096320, Note_on_c, 0, 28, 127
2, 7096320, Note_on_c, 0, 41, 127
2, 7096320, Note_on_c, 0, 77, 127
2, 7096320, Note_on_c, 0, 81, 127
2, 7096320, Note_on_c, 0, 84, 127
2, 7096320, Note_on_c, 0, 89, 127
2, 7111680, Note_off_c, 0, 28, 0
2, 7111680, Note_off_c, 0, 41, 0
2, 7111680, Note_off_c, 0, 77, 0
2, 7111680, Note_off_c, 0, 81, 0
2, 7111680, Note_off_c, 0, 84, 0
2, 7111680, Note_off_c, 0, 89, 0
2, 7127040, Note_on_c, 0, 53, 100
2, 7127040, Note_on_c, 0, 57, 100
2, 7127040, Note_on_c, 0, 60, 100
2, 7127040, Note_on_c, 0, 65, 100
2, 7127040, Note_on_c, 0, 72, 100
2, 7142400, Note_off_c, 0, 53, 0
2, 7142400, Note_off_c, 0, 57, 0
2, 7142400, Note_off_c, 0, 60, 0
2, 7142400, Note_off_c, 0, 65, 0
2, 7142400, Note_off_c, 0, 72, 0
2, 7142400, Note_on_c, 0, 53, 100
2, 7142400, Note_on_c, 0, 57, 100
2, 7142400, Note_on_c, 0, 60, 100
2, 7142400, Note_on_c, 0, 65, 100
2, 7142400, Note_on_c, 0, 69, 100
2, 7150080, Note_off_c, 0, 69, 0
2, 7150080, Note_on_c, 0, 72, 100
2, 7157760, Note_off_c, 0, 53, 0
2, 7157760, Note_off_c, 0, 57, 0
2, 7157760, Note_off_c, 0, 60, 0
2, 7157760, Note_off_c, 0, 65, 0
2, 7157760, Note_on_c, 0, 54, 100
2, 7157760, Note_on_c, 0, 57, 100
2, 7157760, Note_on_c, 0, 61, 100
2, 7157760, Note_on_c, 0, 62, 100
2, 7165440, Note_off_c, 0, 72, 0
2, 7165440, Note_on_c, 0, 69, 100
2, 7173120, Note_off_c, 0, 54, 0
2, 7173120, Note_off_c, 0, 57, 0
2, 7173120, Note_off_c, 0, 61, 0
2, 7173120, Note_off_c, 0, 62, 0
2, 7173120, Note_off_c, 0, 69, 0
2, 7173120, Note_on_c, 0, 54, 100
2, 7173120, Note_on_c, 0, 57, 100
2, 7173120, Note_on_c, 0, 61, 100
2, 7173120, Note_on_c, 0, 62, 100
2, 7173120, Note_on_c, 0, 72, 100
2, 7180800, Note_off_c, 0, 72, 0
2, 7180800, Note_on_c, 0, 69, 100
2, 7188480, Note_off_c, 0, 54, 0
2, 7188480, Note_off_c, 0, 57, 0
2, 7188480, Note_off_c, 0, 61, 0
2, 7188480, Note_off_c, 0, 62, 0
2, 7188480, Note_off_c, 0, 69, 0
2, 7188480, Note_on_c, 0, 55, 100
2, 7188480, Note_on_c, 0, 60, 100
2, 7188480, Note_on_c, 0, 64, 100
2, 7188480, Note_on_c, 0, 67, 100
2, 7196160, Note_off_c, 0, 67, 0
2, 7196160, Note_on_c, 0, 72, 100
2, 7203840, Note_off_c, 0, 55, 0
2, 7203840, Note_off_c, 0, 60, 0
2, 7203840, Note_off_c, 0, 64, 0
2, 7203840, Note_off_c, 0, 72, 0
2, 7203840, Note_on_c, 0, 55, 100
2, 7203840, Note_on_c, 0, 60, 100
2, 7203840, Note_on_c, 0, 64, 100
2, 7203840, Note_on_c, 0, 76, 100
2, 7211520, Note_off_c, 0, 76, 0
2, 7211520, Note_on_c, 0, 79, 100
2, 7219200, Note_off_c, 0, 55, 0
2, 7219200, Note_off_c, 0, 60, 0
2, 7219200, Note_off_c, 0, 64, 0
2, 7219200, Note_on_c, 0, 55, 100
2, 7219200, Note_on_c, 0, 60, 100
2, 7219200, Note_on_c, 0, 64, 100
2, 7226880, Note_off_c, 0, 79, 0
2, 7226880, Note_on_c, 0, 76, 100
2, 7234560, Note_off_c, 0, 55, 0
2, 7234560, Note_off_c, 0, 60, 0
2, 7234560, Note_off_c, 0, 64, 0
2, 7234560, Note_off_c, 0, 76, 0
2, 7234560, Note_on_c, 0, 55, 100
2, 7234560, Note_on_c, 0, 60, 100
2, 7234560, Note_on_c, 0, 64, 100
2, 7234560, Note_on_c, 0, 72, 100
2, 7242240, Note_off_c, 0, 72, 0
2, 7242240, Note_on_c, 0, 67, 100
2, 7249920, Note_off_c, 0, 55, 0
2, 7249920, Note_off_c, 0, 60, 0
2, 7249920, Note_off_c, 0, 64, 0
2, 7249920, Note_off_c, 0, 67, 0
2, 7249920, Note_on_c, 0, 50, 100
2, 7249920, Note_on_c, 0, 60, 100
2, 7249920, Note_on_c, 0, 66, 100
2, 7249920, Note_on_c, 0, 69, 100
2, 7265280, Note_off_c, 0, 50, 0
2, 7265280, Note_off_c, 0, 60, 0
2, 7265280, Note_off_c, 0, 66, 0
2, 7265280, Note_off_c, 0, 69, 0
2, 7265280, Note_on_c, 0, 50, 100
2, 7265280, Note_on_c, 0, 57, 100
2, 7265280, Note_on_c, 0, 66, 100
2, 7265280, Note_on_c, 0, 72, 100
2, 7280640, Note_off_c, 0, 50, 0
2, 7280640, Note_off_c, 0, 57, 0
2, 7280640, Note_off_c, 0, 66, 0
2, 7280640, Note_off_c, 0, 72, 0
2, 7280640, Note_on_c, 0, 55, 100
2, 7280640, Note_on_c, 0, 59, 100
2, 7280640, Note_on_c, 0, 65, 100
2, 7280640, Note_on_c, 0, 76, 100
2, 7288320, Note_off_c, 0, 65, 0
2, 7288320, Note_off_c, 0, 76, 0
2, 7288320, Note_on_c, 0, 65, 100
2, 7288320, Note_on_c, 0, 74, 100
2, 7296000, Note_off_c, 0, 55, 0
2, 7296000, Note_off_c, 0, 59, 0
2, 7296000, Note_on_c, 0, 55, 100
2, 7296000, Note_on_c, 0, 59, 100
2, 7303680, Note_off_c, 0, 65, 0
2, 7303680, Note_off_c, 0, 74, 0
2, 7303680, Note_on_c, 0, 64, 100
2, 7303680, Note_on_c, 0, 72, 100
2, 7311360, Note_off_c, 0, 55, 0
2, 7311360, Note_off_c, 0, 59, 0
2, 7311360, Note_on_c, 0, 48, 100
2, 7311360, Note_on_c, 0, 60, 100
2, 7342080, Note_off_c, 0, 64, 0
2, 7342080, Note_off_c, 0, 72, 0
2, 7342080, Note_off_c, 0, 48, 0
2, 7342080, Note_off_c, 0, 60, 0
2, 7342080, Note_on_c, 0, 36, 127
2, 7342080, Note_on_c, 0, 48, 127
2, 7342080, Note_on_c, 0, 72, 127
2, 7342080, Note_on_c, 0, 76, 127
2, 7342080, Note_on_c, 0, 79, 127
2, 7342080, Note_on_c, 0, 84, 127
2, 7357440, Note_off_c, 0, 36, 0
2, 7357440, Note_off_c, 0, 48, 0
2, 7357440, Note_off_c, 0, 72, 0
2, 7357440, Note_off_c, 0, 76, 0
2, 7357440, Note_off_c, 0, 79, 0
2, 7357440, Note_off_c, 0, 84, 0
2, 7372800, Note_on_c, 0, 41, 100
2, 7372800, Note_on_c, 0, 62, 100
2, 7372800, Note_on_c, 0, 65, 100
2, 7388160, Note_off_c, 0, 41, 0
2, 7388160, Note_off_c, 0, 62, 0
2, 7388160, Note_off_c, 0, 65, 0
2, 7388160, Note_on_c, 0, 53, 100
2, 7388160, Note_on_c, 0, 57, 100
2, 7388160, Note_on_c, 0, 61, 100
2, 7388160, Note_on_c, 0, 64, 100
2, 7395840, Note_off_c, 0, 61, 0
2, 7395840, Note_off_c, 0, 64, 0
2, 7395840, Note_on_c, 0, 62, 100
2, 7395840, Note_on_c, 0, 65, 100
2, 7403520, Note_off_c, 0, 53, 0
2, 7403520, Note_off_c, 0, 57, 0
2, 7403520, Note_on_c, 0, 50, 100
2, 7411200, Note_off_c, 0, 62, 0
2, 7411200, Note_off_c, 0, 65, 0
2, 7411200, Note_on_c, 0, 61, 100
2, 7411200, Note_on_c, 0, 64, 100
2, 7418880, Note_off_c, 0, 50, 0
2, 7418880, Note_off_c, 0, 61, 0
2, 7418880, Note_off_c, 0, 64, 0
2, 7418880, Note_on_c, 0, 53, 100
2, 7418880, Note_on_c, 0, 57, 100
2, 7418880, Note_on_c, 0, 62, 100
2, 7418880, Note_on_c, 0, 65, 100
2, 7434240, Note_off_c, 0, 53, 0
2, 7434240, Note_off_c, 0, 57, 0
2, 7434240, Note_off_c, 0, 62, 0
2, 7434240, Note_off_c, 0, 65, 0
2, 7434240, Note_on_c, 0, 41, 77
2, 7441920, Note_on_c, 0, 69, 77
2, 7449600, Note_off_c, 0, 41, 0
2, 7449600, Note_off_c, 0, 69, 0
2, 7449600, Note_on_c, 0, 53, 77
2, 7449600, Note_on_c, 0, 57, 77
2, 7449600, Note_on_c, 0, 65, 77
2, 7449600, Note_on_c, 0, 74, 77
2, 7457280, Note_off_c, 0, 65, 0
2, 7457280, Note_off_c, 0, 74, 0
2, 7457280, Note_on_c, 0, 69, 77
2, 7464960, Note_off_c, 0, 53, 0
2, 7464960, Note_off_c, 0, 57, 0
2, 7464960, Note_off_c, 0, 69, 0
2, 7464960, Note_on_c, 0, 45, 77
2, 7464960, Note_on_c, 0, 72, 77
2, 7472640, Note_off_c, 0, 72, 0
2, 7472640, Note_on_c, 0, 74, 77
2, 7480320, Note_off_c, 0, 45, 0
2, 7480320, Note_off_c, 0, 74, 0
2, 7480320, Note_on_c, 0, 53, 77
2, 7480320, Note_on_c, 0, 57, 77
2, 7480320, Note_on_c, 0, 72, 77
2, 7488000, Note_off_c, 0, 72, 0
2, 7488000, Note_on_c, 0, 69, 77
2, 7495680, Note_off_c, 0, 53, 0
2, 7495680, Note_off_c, 0, 57, 0
2, 7495680, Note_off_c, 0, 69, 0
2, 7495680, Note_on_c, 0, 48, 104
2, 7495680, Note_on_c, 0, 64, 104
2, 7495680, Note_on_c, 0, 67, 104
2, 7511040, Note_off_c, 0, 48, 0
2, 7511040, Note_off_c, 0, 64, 0
2, 7511040, Note_off_c, 0, 67, 0
2, 7511040, Note_on_c, 0, 52, 100
2, 7511040, Note_on_c, 0, 55, 100
2, 7511040, Note_on_c, 0, 63, 100
2, 7511040, Note_on_c, 0, 66, 100
2, 7518720, Note_off_c, 0, 63, 0
2, 7518720, Note_off_c, 0, 66, 0
2, 7518720, Note_on_c, 0, 60, 100
2, 7518720, Note_on_c, 0, 64, 100
2, 7518720, Note_on_c, 0, 67, 100
2, 7526400, Note_off_c, 0, 52, 0
2, 7526400, Note_off_c, 0, 55, 0
2, 7526400, Note_on_c, 0, 43, 100
2, 7534080, Note_off_c, 0, 60, 0
2, 7534080, Note_off_c, 0, 64, 0
2, 7534080, Note_off_c, 0, 67, 0
2, 7534080, Note_on_c, 0, 63, 100
2, 7534080, Note_on_c, 0, 66, 100
2, 7541760, Note_off_c, 0, 43, 0
2, 7541760, Note_off_c, 0, 63, 0
2, 7541760, Note_off_c, 0, 66, 0
2, 7541760, Note_on_c, 0, 52, 100
2, 7541760, Note_on_c, 0, 55, 100
2, 7541760, Note_on_c, 0, 60, 100
2, 7541760, Note_on_c, 0, 64, 100
2, 7541760, Note_on_c, 0, 67, 100
2, 7557120, Note_off_c, 0, 52, 0
2, 7557120, Note_off_c, 0, 55, 0
2, 7557120, Note_off_c, 0, 60, 0
2, 7557120, Note_off_c, 0, 64, 0
2, 7557120, Note_off_c, 0, 67, 0
2, 7557120, Note_on_c, 0, 48, 100
2, 7564800, Note_on_c, 0, 72, 100
2, 7572480, Note_off_c, 0, 48, 0
2, 7572480, Note_off_c, 0, 72, 0
2, 7572480, Note_on_c, 0, 52, 100
2, 7572480, Note_on_c, 0, 55, 100
2, 7572480, Note_on_c, 0, 60, 100
2, 7572480, Note_on_c, 0, 67, 100
2, 7572480, Note_on_c, 0, 76, 100
2, 7580160, Note_off_c, 0, 67, 0
2, 7580160, Note_off_c, 0, 76, 0
2, 7580160, Note_on_c, 0, 72, 100
2, 7587840, Note_off_c, 0, 52, 0
2, 7587840, Note_off_c, 0, 55, 0
2, 7587840, Note_off_c, 0, 60, 0
2, 7587840, Note_off_c, 0, 72, 0
2, 7587840, Note_on_c, 0, 43, 100
2, 7587840, Note_on_c, 0, 74, 100
2, 7595520, Note_off_c, 0, 74, 0
2, 7595520, Note_on_c, 0, 76, 100
2, 7603200, Note_off_c, 0, 43, 0
2, 7603200, Note_off_c, 0, 76, 0
2, 7603200, Note_on_c, 0, 52, 100
2, 7603200, Note_on_c, 0, 55, 100
2, 7603200, Note_on_c, 0, 60, 100
2, 7603200, Note_on_c, 0, 74, 100
2, 7610880, Note_off_c, 0, 74, 0
2, 7610880, Note_on_c, 0, 72, 100
2, 7618560, Note_off_c, 0, 52, 0
2, 7618560, Note_off_c, 0, 55, 0
2, 7618560, Note_off_c, 0, 60, 0
2, 7618560, Note_off_c, 0, 72, 0
2, 7618560, Note_on_c, 0, 43, 100
2, 7618560, Note_on_c, 0, 71, 100
2, 7618560, Note_on_c, 0, 74, 100
2, 7633920, Note_off_c, 0, 43, 0
2, 7633920, Note_off_c, 0, 71, 0
2, 7633920, Note_off_c, 0, 74, 0
2, 7633920, Note_on_c, 0, 53, 100
2, 7633920, Note_on_c, 0, 55, 100
2, 7633920, Note_on_c, 0, 59, 100
2, 7633920, Note_on_c, 0, 70, 100
2, 7633920, Note_on_c, 0, 73, 100
2, 7641600, Note_off_c, 0, 70, 0
2, 7641600, Note_off_c, 0, 73, 0
2, 7641600, Note_on_c, 0, 71, 100
2, 7641600, Note_on_c, 0, 74, 100
2, 7649280, Note_off_c, 0, 53, 0
2, 7649280, Note_off_c, 0, 55, 0
2, 7649280, Note_off_c, 0, 59, 0
2, 7649280, Note_on_c, 0, 47, 100
2, 7656960, Note_off_c, 0, 71, 0
2, 7656960, Note_off_c, 0, 74, 0
2, 7656960, Note_on_c, 0, 70, 100
2, 7656960, Note_on_c, 0, 73, 100
2, 7664640, Note_off_c, 0, 47, 0
2, 7664640, Note_off_c, 0, 70, 0
2, 7664640, Note_off_c, 0, 73, 0
2, 7664640, Note_on_c, 0, 53, 100
2, 7664640, Note_on_c, 0, 55, 100
2, 7664640, Note_on_c, 0, 59, 100
2, 7664640, Note_on_c, 0, 71, 100
2, 7664640, Note_on_c, 0, 74, 100
2, 7680000, Note_off_c, 0, 53, 0
2, 7680000, Note_off_c, 0, 55, 0
2, 7680000, Note_off_c, 0, 59, 0
2, 7680000, Note_off_c, 0, 71, 0
2, 7680000, Note_off_c, 0, 74, 0
2, 7680000, Note_on_c, 0, 43, 100
2, 7687680, Note_on_c, 0, 77, 100
2, 7695360, Note_off_c, 0, 43, 0
2, 7695360, Note_off_c, 0, 77, 0
2, 7695360, Note_on_c, 0, 53, 100
2, 7695360, Note_on_c, 0, 55, 100
2, 7695360, Note_on_c, 0, 59, 100
2, 7695360, Note_on_c, 0, 71, 100
2, 7695360, Note_on_c, 0, 81, 100
2, 7703040, Note_off_c, 0, 71, 0
2, 7703040, Note_off_c, 0, 81, 0
2, 7703040, Note_on_c, 0, 77, 100
2, 7710720, Note_off_c, 0, 53, 0
2, 7710720, Note_off_c, 0, 55, 0
2, 7710720, Note_off_c, 0, 59, 0
2, 7710720, Note_off_c, 0, 77, 0
2, 7710720, Note_on_c, 0, 47, 100
2, 7710720, Note_on_c, 0, 79, 100
2, 7718400, Note_off_c, 0, 79, 0
2, 7718400, Note_on_c, 0, 81, 100
2, 7726080, Note_off_c, 0, 47, 0
2, 7726080, Note_off_c, 0, 81, 0
2, 7726080, Note_on_c, 0, 53, 100
2, 7726080, Note_on_c, 0, 55, 100
2, 7726080, Note_on_c, 0, 59, 100
2, 7726080, Note_on_c, 0, 79, 100
2, 7733760, Note_off_c, 0, 79, 0
2, 7733760, Note_on_c, 0, 77, 100
2, 7741440, Note_off_c, 0, 53, 0
2, 7741440, Note_off_c, 0, 55, 0
2, 7741440, Note_off_c, 0, 59, 0
2, 7741440, Note_off_c, 0, 77, 0
2, 7741440, Note_on_c, 0, 51, 120
2, 7741440, Note_on_c, 0, 54, 120
2, 7741440, Note_on_c, 0, 60, 120
2, 7741440, Note_on_c, 0, 72, 120
2, 7741440, Note_on_c, 0, 84, 120
2, 7749120, Note_off_c, 0, 72, 0
2, 7749120, Note_off_c, 0, 84, 0
2, 7749120, Note_on_c, 0, 72, 120
2, 7749120, Note_on_c, 0, 84, 120
2, 7756800, Note_off_c, 0, 51, 0
2, 7756800, Note_off_c, 0, 54, 0
2, 7756800, Note_off_c, 0, 60, 0
2, 7756800, Note_off_c, 0, 72, 0
2, 7756800, Note_off_c, 0, 84, 0
2, 7756800, Note_on_c, 0, 51, 120
2, 7756800, Note_on_c, 0, 54, 120
2, 7756800, Note_on_c, 0, 60, 120
2, 7756800, Note_on_c, 0, 72, 120
2, 7756800, Note_on_c, 0, 84, 120
2, 7787520, Note_off_c, 0, 51, 0
2, 7787520, Note_off_c, 0, 54, 0
2, 7787520, Note_off_c, 0, 60, 0
2, 7787520, Note_off_c, 0, 72, 0
2, 7787520, Note_off_c, 0, 84, 0
2, 7787520, Note_on_c, 0, 51, 119
2, 7787520, Note_on_c, 0, 54, 119
2, 7787520, Note_on_c, 0, 60, 119
2, 7787520, Note_on_c, 0, 72, 119
2, 7787520, Note_on_c, 0, 81, 119
2, 7802880, Note_off_c, 0, 51, 0
2, 7802880, Note_off_c, 0, 54, 0
2, 7802880, Note_off_c, 0, 60, 0
2, 7802880, Note_off_c, 0, 72, 0
2, 7802880, Note_off_c, 0, 81, 0
2, 7802880, Note_on_c, 0, 52, 119
2, 7802880, Note_on_c, 0, 55, 119
2, 7802880, Note_on_c, 0, 60, 119
2, 7802880, Note_on_c, 0, 72, 119
2, 7802880, Note_on_c, 0, 79, 119
2, 7818240, Note_off_c, 0, 52, 0
2, 7818240, Note_off_c, 0, 55, 0
2, 7818240, Note_off_c, 0, 60, 0
2, 7818240, Note_off_c, 0, 72, 0
2, 7818240, Note_off_c, 0, 79, 0
2, 7818240, Note_on_c, 0, 64, 100
2, 7818240, Note_on_c, 0, 67, 100
2, 7825920, Note_off_c, 0, 64, 0
2, 7825920, Note_off_c, 0, 67, 0
2, 7825920, Note_on_c, 0, 64, 100
2, 7825920, Note_on_c, 0, 67, 100
2, 7833600, Note_off_c, 0, 64, 0
2, 7833600, Note_off_c, 0, 67, 0
2, 7833600, Note_on_c, 0, 64, 100
2, 7833600, Note_on_c, 0, 67, 100
2, 7848960, Note_off_c, 0, 64, 0
2, 7848960, Note_off_c, 0, 67, 0
2, 7848960, Note_on_c, 0, 64, 100
2, 7848960, Note_on_c, 0, 67, 100
2, 7864320, Note_off_c, 0, 64, 0
2, 7864320, Note_off_c, 0, 67, 0
2, 7864320, Note_on_c, 0, 41, 100
2, 7864320, Note_on_c, 0, 62, 100
2, 7864320, Note_on_c, 0, 65, 100
2, 7879680, Note_off_c, 0, 41, 0
2, 7879680, Note_off_c, 0, 62, 0
2, 7879680, Note_off_c, 0, 65, 0
2, 7879680, Note_on_c, 0, 53, 100
2, 7879680, Note_on_c, 0, 57, 100
2, 7879680, Note_on_c, 0, 61, 100
2, 7879680, Note_on_c, 0, 64, 100
2, 7887360, Note_off_c, 0, 61, 0
2, 7887360, Note_off_c, 0, 64, 0
2, 7887360, Note_on_c, 0, 62, 100
2, 7887360, Note_on_c, 0, 65, 100
2, 7895040, Note_off_c, 0, 53, 0
2, 7895040, Note_off_c, 0, 57, 0
2, 7895040, Note_on_c, 0, 45, 100
2, 7902720, Note_off_c, 0, 62, 0
2, 7902720, Note_off_c, 0, 65, 0
2, 7902720, Note_on_c, 0, 61, 100
2, 7902720, Note_on_c, 0, 64, 100
2, 7910400, Note_off_c, 0, 45, 0
2, 7910400, Note_off_c, 0, 61, 0
2, 7910400, Note_off_c, 0, 64, 0
2, 7910400, Note_on_c, 0, 53, 100
2, 7910400, Note_on_c, 0, 57, 100
2, 7910400, Note_on_c, 0, 62, 100
2, 7910400, Note_on_c, 0, 65, 100
2, 7925760, Note_off_c, 0, 53, 0
2, 7925760, Note_off_c, 0, 57, 0
2, 7925760, Note_off_c, 0, 62, 0
2, 7925760, Note_off_c, 0, 65, 0
2, 7925760, Note_on_c, 0, 41, 82
2, 7933440, Note_on_c, 0, 69, 82
2, 7941120, Note_off_c, 0, 41, 0
2, 7941120, Note_off_c, 0, 69, 0
2, 7941120, Note_on_c, 0, 53, 84
2, 7941120, Note_on_c, 0, 57, 84
2, 7941120, Note_on_c, 0, 65, 84
2, 7941120, Note_on_c, 0, 74, 84
2, 7948800, Note_off_c, 0, 65, 0
2, 7948800, Note_off_c, 0, 74, 0
2, 7948800, Note_on_c, 0, 69, 84
2, 7956480, Note_off_c, 0, 53, 0
2, 7956480, Note_off_c, 0, 57, 0
2, 7956480, Note_off_c, 0, 69, 0
2, 7956480, Note_on_c, 0, 45, 84
2, 7956480, Note_on_c, 0, 72, 84
2, 7964160, Note_off_c, 0, 72, 0
2, 7964160, Note_on_c, 0, 74, 84
2, 7971840, Note_off_c, 0, 45, 0
2, 7971840, Note_off_c, 0, 74, 0
2, 7971840, Note_on_c, 0, 53, 85
2, 7971840, Note_on_c, 0, 57, 85
2, 7971840, Note_on_c, 0, 72, 85
2, 7979520, Note_off_c, 0, 72, 0
2, 7979520, Note_on_c, 0, 69, 87
2, 7987200, Note_off_c, 0, 53, 0
2, 7987200, Note_off_c, 0, 57, 0
2, 7987200, Note_off_c, 0, 69, 0
2, 7987200, Note_on_c, 0, 48, 99
2, 7987200, Note_on_c, 0, 62, 99
2, 7987200, Note_on_c, 0, 65, 99
2, 8002560, Note_off_c, 0, 48, 0
2, 8002560, Note_off_c, 0, 62, 0
2, 8002560, Note_off_c, 0, 65, 0
2, 8002560, Note_on_c, 0, 52, 100
2, 8002560, Note_on_c, 0, 55, 100
2, 8002560, Note_on_c, 0, 59, 100
2, 8002560, Note_on_c, 0, 61, 100
2, 8002560, Note_on_c, 0, 64, 100
2, 8010240, Note_off_c, 0, 61, 0
2, 8010240, Note_off_c, 0, 64, 0
2, 8010240, Note_on_c, 0, 62, 100
2, 8010240, Note_on_c, 0, 65, 100
2, 8017920, Note_off_c, 0, 52, 0
2, 8017920, Note_off_c, 0, 55, 0
2, 8017920, Note_off_c, 0, 59, 0
2, 8017920, Note_on_c, 0, 43, 100
2, 8025600, Note_off_c, 0, 62, 0
2, 8025600, Note_off_c, 0, 65, 0
2, 8025600, Note_on_c, 0, 61, 100
2, 8025600, Note_on_c, 0, 64, 100
2, 8033280, Note_off_c, 0, 43, 0
2, 8033280, Note_off_c, 0, 61, 0
2, 8033280, Note_off_c, 0, 64, 0
2, 8033280, Note_on_c, 0, 52, 100
2, 8033280, Note_on_c, 0, 55, 100
2, 8033280, Note_on_c, 0, 59, 100
2, 8033280, Note_on_c, 0, 62, 100
2, 8033280, Note_on_c, 0, 65, 100
2, 8048640, Note_off_c, 0, 52, 0
2, 8048640, Note_off_c, 0, 55, 0
2, 8048640, Note_off_c, 0, 59, 0
2, 8048640, Note_off_c, 0, 62, 0
2, 8048640, Note_off_c, 0, 65, 0
2, 8048640, Note_on_c, 0, 48, 100
2, 8056320, Note_on_c, 0, 72, 100
2, 8064000, Note_off_c, 0, 48, 0
2, 8064000, Note_off_c, 0, 72, 0
2, 8064000, Note_on_c, 0, 52, 100
2, 8064000, Note_on_c, 0, 55, 100
2, 8064000, Note_on_c, 0, 59, 100
2, 8064000, Note_on_c, 0, 67, 100
2, 8064000, Note_on_c, 0, 76, 100
2, 8071680, Note_off_c, 0, 67, 0
2, 8071680, Note_off_c, 0, 76, 0
2, 8071680, Note_on_c, 0, 72, 100
2, 8079360, Note_off_c, 0, 52, 0
2, 8079360, Note_off_c, 0, 55, 0
2, 8079360, Note_off_c, 0, 59, 0
2, 8079360, Note_off_c, 0, 72, 0
2, 8079360, Note_on_c, 0, 43, 100
2, 8079360, Note_on_c, 0, 74, 100
2, 8087040, Note_off_c, 0, 74, 0
2, 8087040, Note_on_c, 0, 76, 100
2, 8094720, Note_off_c, 0, 43, 0
2, 8094720, Note_off_c, 0, 76, 0
2, 8094720, Note_on_c, 0, 52, 100
2, 8094720, Note_on_c, 0, 55, 100
2, 8094720, Note_on_c, 0, 59, 100
2, 8094720, Note_on_c, 0, 74, 100
2, 8102400, Note_off_c, 0, 74, 0
2, 8102400, Note_on_c, 0, 72, 100
2, 8110080, Note_off_c, 0, 52, 0
2, 8110080, Note_off_c, 0, 55, 0
2, 8110080, Note_off_c, 0, 59, 0
2, 8110080, Note_off_c, 0, 72, 0
2, 8110080, Note_on_c, 0, 41, 100
2, 8110080, Note_on_c, 0, 53, 100
2, 8110080, Note_on_c, 0, 69, 100
2, 8117760, Note_off_c, 0, 69, 0
2, 8117760, Note_on_c, 0, 68, 100
2, 8125440, Note_off_c, 0, 41, 0
2, 8125440, Note_off_c, 0, 53, 0
2, 8125440, Note_off_c, 0, 68, 0
2, 8125440, Note_on_c, 0, 38, 100
2, 8125440, Note_on_c, 0, 50, 100
2, 8125440, Note_on_c, 0, 69, 100
2, 8133120, Note_off_c, 0, 69, 0
2, 8133120, Note_on_c, 0, 69, 100
2, 8133120, Note_on_c, 0, 79, 100
2, 8140800, Note_off_c, 0, 38, 0
2, 8140800, Note_off_c, 0, 50, 0
2, 8140800, Note_on_c, 0, 40, 100
2, 8140800, Note_on_c, 0, 52, 100
2, 8148480, Note_off_c, 0, 69, 0
2, 8148480, Note_off_c, 0, 79, 0
2, 8148480, Note_on_c, 0, 69, 100
2, 8148480, Note_on_c, 0, 77, 100
2, 8156160, Note_off_c, 0, 40, 0
2, 8156160, Note_off_c, 0, 52, 0
2, 8156160, Note_on_c, 0, 41, 100
2, 8156160, Note_on_c, 0, 53, 100
2, 8163840, Note_off_c, 0, 69, 0
2, 8163840, Note_off_c, 0, 77, 0
2, 8163840, Note_on_c, 0, 69, 100
2, 8163840, Note_on_c, 0, 72, 100
2, 8171520, Note_off_c, 0, 41, 0
2, 8171520, Note_off_c, 0, 53, 0
2, 8171520, Note_off_c, 0, 69, 0
2, 8171520, Note_off_c, 0, 72, 0
2, 8171520, Note_on_c, 0, 43, 100
2, 8171520, Note_on_c, 0, 55, 100
2, 8171520, Note_on_c, 0, 67, 100
2, 8171520, Note_on_c, 0, 76, 100
2, 8179200, Note_off_c, 0, 67, 0
2, 8179200, Note_off_c, 0, 76, 0
2, 8179200, Note_on_c, 0, 73, 100
2, 8186880, Note_off_c, 0, 43, 0
2, 8186880, Note_off_c, 0, 55, 0
2, 8186880, Note_off_c, 0, 73, 0
2, 8186880, Note_on_c, 0, 55, 100
2, 8186880, Note_on_c, 0, 60, 100
2, 8186880, Note_on_c, 0, 64, 100
2, 8186880, Note_on_c, 0, 74, 100
2, 8194560, Note_off_c, 0, 74, 0
2, 8194560, Note_on_c, 0, 81, 100
2, 8202240, Note_off_c, 0, 55, 0
2, 8202240, Note_off_c, 0, 60, 0
2, 8202240, Note_off_c, 0, 64, 0
2, 8202240, Note_on_c, 0, 54, 100
2, 8202240, Note_on_c, 0, 61, 100
2, 8202240, Note_on_c, 0, 62, 100
2, 8209920, Note_off_c, 0, 81, 0
2, 8209920, Note_on_c, 0, 84, 100
2, 8217600, Note_off_c, 0, 54, 0
2, 8217600, Note_off_c, 0, 61, 0
2, 8217600, Note_off_c, 0, 62, 0
2, 8217600, Note_off_c, 0, 84, 0
2, 8217600, Note_on_c, 0, 55, 100
2, 8217600, Note_on_c, 0, 60, 100
2, 8217600, Note_on_c, 0, 64, 100
2, 8217600, Note_on_c, 0, 79, 100
2, 8225280, Note_off_c, 0, 79, 0
2, 8225280, Note_on_c, 0, 76, 100
2, 8232960, Note_off_c, 0, 55, 0
2, 8232960, Note_off_c, 0, 60, 0
2, 8232960, Note_off_c, 0, 64, 0
2, 8232960, Note_off_c, 0, 76, 0
2, 8232960, Note_on_c, 0, 45, 100
2, 8232960, Note_on_c, 0, 57, 100
2, 8232960, Note_on_c, 0, 66, 100
2, 8232960, Note_on_c, 0, 72, 100
2, 8248320, Note_off_c, 0, 45, 0
2, 8248320, Note_off_c, 0, 57, 0
2, 8248320, Note_off_c, 0, 66, 0
2, 8248320, Note_off_c, 0, 72, 0
2, 8248320, Note_on_c, 0, 38, 100
2, 8248320, Note_on_c, 0, 50, 100
2, 8248320, Note_on_c, 0, 66, 100
2, 8248320, Note_on_c, 0, 72, 100
2, 8263680, Note_off_c, 0, 38, 0
2, 8263680, Note_off_c, 0, 50, 0
2, 8263680, Note_off_c, 0, 66, 0
2, 8263680, Note_off_c, 0, 72, 0
2, 8263680, Note_on_c, 0, 43, 100
2, 8263680, Note_on_c, 0, 55, 100
2, 8263680, Note_on_c, 0, 65, 100
2, 8263680, Note_on_c, 0, 69, 100
2, 8263680, Note_on_c, 0, 76, 100
2, 8271360, Note_off_c, 0, 65, 0
2, 8271360, Note_off_c, 0, 69, 0
2, 8271360, Note_off_c, 0, 76, 0
2, 8271360, Note_on_c, 0, 65, 100
2, 8271360, Note_on_c, 0, 69, 100
2, 8271360, Note_on_c, 0, 74, 100
2, 8279040, Note_off_c, 0, 43, 0
2, 8279040, Note_off_c, 0, 55, 0
2, 8279040, Note_on_c, 0, 47, 100
2, 8279040, Note_on_c, 0, 59, 100
2, 8286720, Note_off_c, 0, 65, 0
2, 8286720, Note_off_c, 0, 69, 0
2, 8286720, Note_off_c, 0, 74, 0
2, 8286720, Note_on_c, 0, 64, 100
2, 8286720, Note_on_c, 0, 67, 100
2, 8286720, Note_on_c, 0, 72, 100
2, 8294400, Note_off_c, 0, 47, 0
2, 8294400, Note_off_c, 0, 59, 0
2, 8294400, Note_on_c, 0, 48, 100
2, 8294400, Note_on_c, 0, 60, 100
2, 8309760, Note_off_c, 0, 64, 0
2, 8309760, Note_off_c, 0, 67, 0
2, 8309760, Note_off_c, 0, 72, 0
2, 8309760, Note_off_c, 0, 48, 0
2, 8309760, Note_off_c, 0, 60, 0
2, 8309760, Note_on_c, 0, 64, 100
2, 8309760, Note_on_c, 0, 67, 100
2, 8317440, Note_off_c, 0, 64, 0
2, 8317440, Note_off_c, 0, 67, 0
2, 8317440, Note_on_c, 0, 64, 100
2, 8317440, Note_on_c, 0, 67, 100
2, 8325120, Note_off_c, 0, 64, 0
2, 8325120, Note_off_c, 0, 67, 0
2, 8325120, Note_on_c, 0, 64, 100
2, 8325120, Note_on_c, 0, 67, 100
2, 8340480, Note_off_c, 0, 64, 0
2, 8340480, Note_off_c, 0, 67, 0
2, 8340480, Note_on_c, 0, 64, 100
2, 8340480, Note_on_c, 0, 67, 100
2, 8355840, Note_off_c, 0, 64, 0
2, 8355840, Note_off_c, 0, 67, 0
2, 8355840, Note_on_c, 0, 41, 100
2, 8355840, Note_on_c, 0, 62, 100
2, 8355840, Note_on_c, 0, 65, 100
2, 8371200, Note_off_c, 0, 41, 0
2, 8371200, Note_off_c, 0, 62, 0
2, 8371200, Note_off_c, 0, 65, 0
2, 8371200, Note_on_c, 0, 53, 100
2, 8371200, Note_on_c, 0, 57, 100
2, 8371200, Note_on_c, 0, 61, 100
2, 8371200, Note_on_c, 0, 64, 100
2, 8378880, Note_off_c, 0, 61, 0
2, 8378880, Note_off_c, 0, 64, 0
2, 8378880, Note_on_c, 0, 62, 100
2, 8378880, Note_on_c, 0, 65, 100
2, 8386560, Note_off_c, 0, 53, 0
2, 8386560, Note_off_c, 0, 57, 0
2, 8386560, Note_on_c, 0, 50, 100
2, 8394240, Note_off_c, 0, 62, 0
2, 8394240, Note_off_c, 0, 65, 0
2, 8394240, Note_on_c, 0, 61, 100
2, 8394240, Note_on_c, 0, 64, 100
2, 8401920, Note_off_c, 0, 50, 0
2, 8401920, Note_off_c, 0, 61, 0
2, 8401920, Note_off_c, 0, 64, 0
2, 8401920, Note_on_c, 0, 53, 100
2, 8401920, Note_on_c, 0, 57, 100
2, 8401920, Note_on_c, 0, 62, 100
2, 8401920, Note_on_c, 0, 65, 100
2, 8417280, Note_off_c, 0, 53, 0
2, 8417280, Note_off_c, 0, 57, 0
2, 8417280, Note_off_c, 0, 62, 0
2, 8417280, Note_off_c, 0, 65, 0
2, 8417280, Note_on_c, 0, 41, 100
2, 8424960, Note_on_c, 0, 69, 100
2, 8432640, Note_off_c, 0, 41, 0
2, 8432640, Note_off_c, 0, 69, 0
2, 8432640, Note_on_c, 0, 53, 100
2, 8432640, Note_on_c, 0, 57, 100
2, 8432640, Note_on_c, 0, 65, 100
2, 8432640, Note_on_c, 0, 74, 100
2, 8440320, Note_off_c, 0, 65, 0
2, 8440320, Note_off_c, 0, 74, 0
2, 8440320, Note_on_c, 0, 69, 100
2, 8448000, Note_off_c, 0, 53, 0
2, 8448000, Note_off_c, 0, 57, 0
2, 8448000, Note_off_c, 0, 69, 0
2, 8448000, Note_on_c, 0, 45, 100
2, 8448000, Note_on_c, 0, 72, 100
2, 8455680, Note_off_c, 0, 72, 0
2, 8455680, Note_on_c, 0, 74, 100
2, 8463360, Note_off_c, 0, 45, 0
2, 8463360, Note_off_c, 0, 74, 0
2, 8463360, Note_on_c, 0, 53, 100
2, 8463360, Note_on_c, 0, 57, 100
2, 8463360, Note_on_c, 0, 72, 100
2, 8471040, Note_off_c, 0, 72, 0
2, 8471040, Note_on_c, 0, 69, 100
2, 8478720, Note_off_c, 0, 53, 0
2, 8478720, Note_off_c, 0, 57, 0
2, 8478720, Note_off_c, 0, 69, 0
2, 8478720, Note_on_c, 0, 48, 80
2, 8478720, Note_on_c, 0, 64, 80
2, 8478720, Note_on_c, 0, 67, 80
2, 8494080, Note_off_c, 0, 48, 0
2, 8494080, Note_off_c, 0, 64, 0
2, 8494080, Note_off_c, 0, 67, 0
2, 8494080, Note_on_c, 0, 52, 80
2, 8494080, Note_on_c, 0, 55, 80
2, 8494080, Note_on_c, 0, 63, 80
2, 8494080, Note_on_c, 0, 66, 80
2, 8501760, Note_off_c, 0, 63, 0
2, 8501760, Note_off_c, 0, 66, 0
2, 8501760, Note_on_c, 0, 60, 80
2, 8501760, Note_on_c, 0, 64, 80
2, 8501760, Note_on_c, 0, 67, 80
2, 8509440, Note_off_c, 0, 52, 0
2, 8509440, Note_off_c, 0, 55, 0
2, 8509440, Note_on_c, 0, 43, 80
2, 8517120, Note_off_c, 0, 60, 0
2, 8517120, Note_off_c, 0, 64, 0
2, 8517120, Note_off_c, 0, 67, 0
2, 8517120, Note_on_c, 0, 63, 80
2, 8517120, Note_on_c, 0, 66, 80
2, 8524800, Note_off_c, 0, 43, 0
2, 8524800, Note_off_c, 0, 63, 0
2, 8524800, Note_off_c, 0, 66, 0
2, 8524800, Note_on_c, 0, 52, 80
2, 8524800, Note_on_c, 0, 55, 80
2, 8524800, Note_on_c, 0, 60, 80
2, 8524800, Note_on_c, 0, 64, 80
2, 8524800, Note_on_c, 0, 67, 80
2, 8540160, Note_off_c, 0, 52, 0
2, 8540160, Note_off_c, 0, 55, 0
2, 8540160, Note_off_c, 0, 60, 0
2, 8540160, Note_off_c, 0, 64, 0
2, 8540160, Note_off_c, 0, 67, 0
2, 8540160, Note_on_c, 0, 48, 100
2, 8547840, Note_on_c, 0, 72, 100
2, 8555520, Note_off_c, 0, 48, 0
2, 8555520, Note_off_c, 0, 72, 0
2, 8555520, Note_on_c, 0, 52, 100
2, 8555520, Note_on_c, 0, 55, 100
2, 8555520, Note_on_c, 0, 60, 100
2, 8555520, Note_on_c, 0, 67, 100
2, 8555520, Note_on_c, 0, 76, 100
2, 8563200, Note_off_c, 0, 67, 0
2, 8563200, Note_off_c, 0, 76, 0
2, 8563200, Note_on_c, 0, 72, 100
2, 8570880, Note_off_c, 0, 52, 0
2, 8570880, Note_off_c, 0, 55, 0
2, 8570880, Note_off_c, 0, 60, 0
2, 8570880, Note_off_c, 0, 72, 0
2, 8570880, Note_on_c, 0, 43, 100
2, 8570880, Note_on_c, 0, 74, 100
2, 8578560, Note_off_c, 0, 74, 0
2, 8578560, Note_on_c, 0, 76, 100
2, 8586240, Note_off_c, 0, 43, 0
2, 8586240, Note_off_c, 0, 76, 0
2, 8586240, Note_on_c, 0, 52, 100
2, 8586240, Note_on_c, 0, 55, 100
2, 8586240, Note_on_c, 0, 60, 100
2, 8586240, Note_on_c, 0, 74, 100
2, 8593920, Note_off_c, 0, 74, 0
2, 8593920, Note_on_c, 0, 72, 100
2, 8601600, Note_off_c, 0, 52, 0
2, 8601600, Note_off_c, 0, 55, 0
2, 8601600, Note_off_c, 0, 60, 0
2, 8601600, Note_off_c, 0, 72, 0
2, 8601600, Note_on_c, 0, 43, 100
2, 8601600, Note_on_c, 0, 71, 100
2, 8601600, Note_on_c, 0, 74, 100
2, 8616960, Note_off_c, 0, 43, 0
2, 8616960, Note_off_c, 0, 71, 0
2, 8616960, Note_off_c, 0, 74, 0
2, 8616960, Note_on_c, 0, 53, 100
2, 8616960, Note_on_c, 0, 55, 100
2, 8616960, Note_on_c, 0, 59, 100
2, 8616960, Note_on_c, 0, 70, 100
2, 8616960, Note_on_c, 0, 73, 100
2, 8624640, Note_off_c, 0, 70, 0
2, 8624640, Note_off_c, 0, 73, 0
2, 8624640, Note_on_c, 0, 71, 100
2, 8624640, Note_on_c, 0, 74, 100
2, 8632320, Note_off_c, 0, 53, 0
2, 8632320, Note_off_c, 0, 55, 0
2, 8632320, Note_off_c, 0, 59, 0
2, 8632320, Note_on_c, 0, 47, 100
2, 8640000, Note_off_c, 0, 71, 0
2, 8640000, Note_off_c, 0, 74, 0
2, 8640000, Note_on_c, 0, 70, 100
2, 8640000, Note_on_c, 0, 73, 100
2, 8647680, Note_off_c, 0, 47, 0
2, 8647680, Note_off_c, 0, 70, 0
2, 8647680, Note_off_c, 0, 73, 0
2, 8647680, Note_on_c, 0, 53, 100
2, 8647680, Note_on_c, 0, 55, 100
2, 8647680, Note_on_c, 0, 59, 100
2, 8647680, Note_on_c, 0, 71, 100
2, 8647680, Note_on_c, 0, 74, 100
2, 8663040, Note_off_c, 0, 53, 0
2, 8663040, Note_off_c, 0, 55, 0
2, 8663040, Note_off_c, 0, 59, 0
2, 8663040, Note_off_c, 0, 71, 0
2, 8663040, Note_off_c, 0, 74, 0
2, 8663040, Note_on_c, 0, 43, 100
2, 8670720, Note_on_c, 0, 77, 100
2, 8678400, Note_off_c, 0, 43, 0
2, 8678400, Note_off_c, 0, 77, 0
2, 8678400, Note_on_c, 0, 53, 100
2, 8678400, Note_on_c, 0, 55, 100
2, 8678400, Note_on_c, 0, 59, 100
2, 8678400, Note_on_c, 0, 71, 100
2, 8678400, Note_on_c, 0, 81, 100
2, 8686080, Note_off_c, 0, 71, 0
2, 8686080, Note_off_c, 0, 81, 0
2, 8686080, Note_on_c, 0, 77, 100
2, 8693760, Note_off_c, 0, 53, 0
2, 8693760, Note_off_c, 0, 55, 0
2, 8693760, Note_off_c, 0, 59, 0
2, 8693760, Note_off_c, 0, 77, 0
2, 8693760, Note_on_c, 0, 47, 100
2, 8693760, Note_on_c, 0, 79, 100
2, 8701440, Note_off_c, 0, 79, 0
2, 8701440, Note_on_c, 0, 81, 100
2, 8709120, Note_off_c, 0, 47, 0
2, 8709120, Note_off_c, 0, 81, 0
2, 8709120, Note_on_c, 0, 53, 100
2, 8709120, Note_on_c, 0, 55, 100
2, 8709120, Note_on_c, 0, 59, 100
2, 8709120, Note_on_c, 0, 79, 100
2, 8716800, Note_off_c, 0, 79, 0
2, 8716800, Note_on_c, 0, 77, 100
2, 8724480, Note_off_c, 0, 53, 0
2, 8724480, Note_off_c, 0, 55, 0
2, 8724480, Note_off_c, 0, 59, 0
2, 8724480, Note_off_c, 0, 77, 0
2, 8724480, Note_on_c, 0, 51, 125
2, 8724480, Note_on_c, 0, 54, 125
2, 8724480, Note_on_c, 0, 60, 125
2, 8724480, Note_on_c, 0, 72, 125
2, 8724480, Note_on_c, 0, 84, 125
2, 8732160, Note_off_c, 0, 72, 0
2, 8732160, Note_off_c, 0, 84, 0
2, 8732160, Note_on_c, 0, 72, 121
2, 8732160, Note_on_c, 0, 84, 121
2, 8739840, Note_off_c, 0, 51, 0
2, 8739840, Note_off_c, 0, 54, 0
2, 8739840, Note_off_c, 0, 60, 0
2, 8739840, Note_off_c, 0, 72, 0
2, 8739840, Note_off_c, 0, 84, 0
2, 8739840, Note_on_c, 0, 51, 119
2, 8739840, Note_on_c, 0, 54, 119
2, 8739840, Note_on_c, 0, 60, 119
2, 8739840, Note_on_c, 0, 72, 119
2, 8739840, Note_on_c, 0, 84, 119
2, 8770560, Note_off_c, 0, 51, 0
2, 8770560, Note_off_c, 0, 54, 0
2, 8770560, Note_off_c, 0, 60, 0
2, 8770560, Note_off_c, 0, 72, 0
2, 8770560, Note_off_c, 0, 84, 0
2, 8770560, Note_on_c, 0, 51, 127
2, 8770560, Note_on_c, 0, 54, 127
2, 8770560, Note_on_c, 0, 60, 127
2, 8770560, Note_on_c, 0, 72, 127
2, 8770560, Note_on_c, 0, 81, 127
2, 8785920, Note_off_c, 0, 51, 0
2, 8785920, Note_off_c, 0, 54, 0
2, 8785920, Note_off_c, 0, 60, 0
2, 8785920, Note_off_c, 0, 72, 0
2, 8785920, Note_off_c, 0, 81, 0
2, 8785920, Note_on_c, 0, 52, 127
2, 8785920, Note_on_c, 0, 55, 127
2, 8785920, Note_on_c, 0, 60, 127
2, 8785920, Note_on_c, 0, 72, 127
2, 8785920, Note_on_c, 0, 79, 127
2, 8801280, Note_off_c, 0, 52, 0
2, 8801280, Note_off_c, 0, 55, 0
2, 8801280, Note_off_c, 0, 60, 0
2, 8801280, Note_off_c, 0, 72, 0
2, 8801280, Note_off_c, 0, 79, 0
2, 8801280, Note_on_c, 0, 64, 100
2, 8801280, Note_on_c, 0, 67, 100
2, 8808960, Note_off_c, 0, 64, 0
2, 8808960, Note_off_c, 0, 67, 0
2, 8808960, Note_on_c, 0, 64, 100
2, 8808960, Note_on_c, 0, 67, 100
2, 8816640, Note_off_c, 0, 64, 0
2, 8816640, Note_off_c, 0, 67, 0
2, 8816640, Note_on_c, 0, 64, 100
2, 8816640, Note_on_c, 0, 67, 100
2, 8832000, Note_off_c, 0, 64, 0
2, 8832000, Note_off_c, 0, 67, 0
2, 8832000, Note_on_c, 0, 64, 100
2, 8832000, Note_on_c, 0, 67, 100
2, 8847360, Note_off_c, 0, 64, 0
2, 8847360, Note_off_c, 0, 67, 0
2, 8847360, Note_on_c, 0, 41, 100
2, 8847360, Note_on_c, 0, 62, 100
2, 8847360, Note_on_c, 0, 65, 100
2, 8862720, Note_off_c, 0, 41, 0
2, 8862720, Note_off_c, 0, 62, 0
2, 8862720, Note_off_c, 0, 65, 0
2, 8862720, Note_on_c, 0, 53, 100
2, 8862720, Note_on_c, 0, 57, 100
2, 8862720, Note_on_c, 0, 61, 100
2, 8862720, Note_on_c, 0, 64, 100
2, 8870400, Note_off_c, 0, 61, 0
2, 8870400, Note_off_c, 0, 64, 0
2, 8870400, Note_on_c, 0, 62, 100
2, 8870400, Note_on_c, 0, 65, 100
2, 8878080, Note_off_c, 0, 53, 0
2, 8878080, Note_off_c, 0, 57, 0
2, 8878080, Note_on_c, 0, 45, 100
2, 8885760, Note_off_c, 0, 62, 0
2, 8885760, Note_off_c, 0, 65, 0
2, 8885760, Note_on_c, 0, 61, 100
2, 8885760, Note_on_c, 0, 64, 100
2, 8893440, Note_off_c, 0, 45, 0
2, 8893440, Note_off_c, 0, 61, 0
2, 8893440, Note_off_c, 0, 64, 0
2, 8893440, Note_on_c, 0, 53, 100
2, 8893440, Note_on_c, 0, 57, 100
2, 8893440, Note_on_c, 0, 62, 100
2, 8893440, Note_on_c, 0, 65, 100
2, 8908800, Note_off_c, 0, 53, 0
2, 8908800, Note_off_c, 0, 57, 0
2, 8908800, Note_off_c, 0, 62, 0
2, 8908800, Note_off_c, 0, 65, 0
2, 8908800, Note_on_c, 0, 41, 70
2, 8916480, Note_on_c, 0, 69, 70
2, 8924160, Note_off_c, 0, 41, 0
2, 8924160, Note_off_c, 0, 69, 0
2, 8924160, Note_on_c, 0, 53, 70
2, 8924160, Note_on_c, 0, 57, 70
2, 8924160, Note_on_c, 0, 65, 70
2, 8924160, Note_on_c, 0, 74, 70
2, 8931840, Note_off_c, 0, 65, 0
2, 8931840, Note_off_c, 0, 74, 0
2, 8931840, Note_on_c, 0, 69, 70
2, 8939520, Note_off_c, 0, 53, 0
2, 8939520, Note_off_c, 0, 57, 0
2, 8939520, Note_off_c, 0, 69, 0
2, 8939520, Note_on_c, 0, 45, 70
2, 8939520, Note_on_c, 0, 72, 70
2, 8947200, Note_off_c, 0, 72, 0
2, 8947200, Note_on_c, 0, 74, 70
2, 8954880, Note_off_c, 0, 45, 0
2, 8954880, Note_off_c, 0, 74, 0
2, 8954880, Note_on_c, 0, 53, 70
2, 8954880, Note_on_c, 0, 57, 70
2, 8954880, Note_on_c, 0, 72, 70
2, 8962560, Note_off_c, 0, 72, 0
2, 8962560, Note_on_c, 0, 69, 72
2, 8970240, Note_off_c, 0, 53, 0
2, 8970240, Note_off_c, 0, 57, 0
2, 8970240, Note_off_c, 0, 69, 0
2, 8970240, Note_on_c, 0, 48, 100
2, 8970240, Note_on_c, 0, 62, 100
2, 8970240, Note_on_c, 0, 65, 100
2, 8985600, Note_off_c, 0, 48, 0
2, 8985600, Note_off_c, 0, 62, 0
2, 8985600, Note_off_c, 0, 65, 0
2, 8985600, Note_on_c, 0, 52, 100
2, 8985600, Note_on_c, 0, 55, 100
2, 8985600, Note_on_c, 0, 59, 100
2, 8985600, Note_on_c, 0, 61, 100
2, 8985600, Note_on_c, 0, 64, 100
2, 8993280, Note_off_c, 0, 61, 0
2, 8993280, Note_off_c, 0, 64, 0
2, 8993280, Note_on_c, 0, 62, 100
2, 8993280, Note_on_c, 0, 65, 100
2, 9000960, Note_off_c, 0, 52, 0
2, 9000960, Note_off_c, 0, 55, 0
2, 9000960, Note_off_c, 0, 59, 0
2, 9000960, Note_on_c, 0, 43, 100
2, 9008640, Note_off_c, 0, 62, 0
2, 9008640, Note_off_c, 0, 65, 0
2, 9008640, Note_on_c, 0, 61, 100
2, 9008640, Note_on_c, 0, 64, 100
2, 9016320, Note_off_c, 0, 43, 0
2, 9016320, Note_off_c, 0, 61, 0
2, 9016320, Note_off_c, 0, 64, 0
2, 9016320, Note_on_c, 0, 52, 100
2, 9016320, Note_on_c, 0, 55, 100
2, 9016320, Note_on_c, 0, 59, 100
2, 9016320, Note_on_c, 0, 62, 100
2, 9016320, Note_on_c, 0, 65, 100
2, 9031680, Note_off_c, 0, 52, 0
2, 9031680, Note_off_c, 0, 55, 0
2, 9031680, Note_off_c, 0, 59, 0
2, 9031680, Note_off_c, 0, 62, 0
2, 9031680, Note_off_c, 0, 65, 0
2, 9031680, Note_on_c, 0, 48, 100
2, 9039360, Note_on_c, 0, 72, 100
2, 9047040, Note_off_c, 0, 48, 0
2, 9047040, Note_off_c, 0, 72, 0
2, 9047040, Note_on_c, 0, 52, 100
2, 9047040, Note_on_c, 0, 55, 100
2, 9047040, Note_on_c, 0, 59, 100
2, 9047040, Note_on_c, 0, 67, 100
2, 9047040, Note_on_c, 0, 76, 100
2, 9054720, Note_off_c, 0, 67, 0
2, 9054720, Note_off_c, 0, 76, 0
2, 9054720, Note_on_c, 0, 72, 100
2, 9062400, Note_off_c, 0, 52, 0
2, 9062400, Note_off_c, 0, 55, 0
2, 9062400, Note_off_c, 0, 59, 0
2, 9062400, Note_off_c, 0, 72, 0
2, 9062400, Note_on_c, 0, 43, 100
2, 9062400, Note_on_c, 0, 74, 100
2, 9070080, Note_off_c, 0, 74, 0
2, 9070080, Note_on_c, 0, 76, 100
2, 9077760, Note_off_c, 0, 43, 0
2, 9077760, Note_off_c, 0, 76, 0
2, 9077760, Note_on_c, 0, 52, 100
2, 9077760, Note_on_c, 0, 55, 100
2, 9077760, Note_on_c, 0, 59, 100
2, 9077760, Note_on_c, 0, 74, 100
2, 9085440, Note_off_c, 0, 74, 0
2, 9085440, Note_on_c, 0, 72, 100
2, 9093120, Note_off_c, 0, 52, 0
2, 9093120, Note_off_c, 0, 55, 0
2, 9093120, Note_off_c, 0, 59, 0
2, 9093120, Note_off_c, 0, 72, 0
2, 9093120, Note_on_c, 0, 41, 100
2, 9093120, Note_on_c, 0, 53, 100
2, 9093120, Note_on_c, 0, 69, 100
2, 9100800, Note_off_c, 0, 69, 0
2, 9100800, Note_on_c, 0, 68, 100
2, 9108480, Note_off_c, 0, 41, 0
2, 9108480, Note_off_c, 0, 53, 0
2, 9108480, Note_off_c, 0, 68, 0
2, 9108480, Note_on_c, 0, 38, 100
2, 9108480, Note_on_c, 0, 50, 100
2, 9108480, Note_on_c, 0, 69, 100
2, 9116160, Note_off_c, 0, 69, 0
2, 9116160, Note_on_c, 0, 69, 100
2, 9116160, Note_on_c, 0, 79, 100
2, 9123840, Note_off_c, 0, 38, 0
2, 9123840, Note_off_c, 0, 50, 0
2, 9123840, Note_on_c, 0, 40, 100
2, 9123840, Note_on_c, 0, 52, 100
2, 9131520, Note_off_c, 0, 69, 0
2, 9131520, Note_off_c, 0, 79, 0
2, 9131520, Note_on_c, 0, 69, 100
2, 9131520, Note_on_c, 0, 77, 100
2, 9139200, Note_off_c, 0, 40, 0
2, 9139200, Note_off_c, 0, 52, 0
2, 9139200, Note_on_c, 0, 41, 100
2, 9139200, Note_on_c, 0, 53, 100
2, 9146880, Note_off_c, 0, 69, 0
2, 9146880, Note_off_c, 0, 77, 0
2, 9146880, Note_on_c, 0, 69, 100
2, 9146880, Note_on_c, 0, 72, 100
2, 9154560, Note_off_c, 0, 41, 0
2, 9154560, Note_off_c, 0, 53, 0
2, 9154560, Note_off_c, 0, 69, 0
2, 9154560, Note_off_c, 0, 72, 0
2, 9154560, Note_on_c, 0, 43, 100
2, 9154560, Note_on_c, 0, 55, 100
2, 9154560, Note_on_c, 0, 67, 100
2, 9154560, Note_on_c, 0, 76, 100
2, 9162240, Note_off_c, 0, 67, 0
2, 9162240, Note_off_c, 0, 76, 0
2, 9162240, Note_on_c, 0, 73, 100
2, 9169920, Note_off_c, 0, 43, 0
2, 9169920, Note_off_c, 0, 55, 0
2, 9169920, Note_off_c, 0, 73, 0
2, 9169920, Note_on_c, 0, 55, 100
2, 9169920, Note_on_c, 0, 60, 100
2, 9169920, Note_on_c, 0, 64, 100
2, 9169920, Note_on_c, 0, 74, 100
2, 9177600, Note_off_c, 0, 74, 0
2, 9177600, Note_on_c, 0, 81, 100
2, 9185280, Note_off_c, 0, 55, 0
2, 9185280, Note_off_c, 0, 60, 0
2, 9185280, Note_off_c, 0, 64, 0
2, 9185280, Note_on_c, 0, 54, 100
2, 9185280, Note_on_c, 0, 61, 100
2, 9185280, Note_on_c, 0, 62, 100
2, 9192960, Note_off_c, 0, 81, 0
2, 9192960, Note_on_c, 0, 84, 100
2, 9200640, Note_off_c, 0, 54, 0
2, 9200640, Note_off_c, 0, 61, 0
2, 9200640, Note_off_c, 0, 62, 0
2, 9200640, Note_off_c, 0, 84, 0
2, 9200640, Note_on_c, 0, 55, 100
2, 9200640, Note_on_c, 0, 60, 100
2, 9200640, Note_on_c, 0, 64, 100
2, 9200640, Note_on_c, 0, 79, 100
2, 9208320, Note_off_c, 0, 79, 0
2, 9208320, Note_on_c, 0, 76, 100
2, 9216000, Note_off_c, 0, 55, 0
2, 9216000, Note_off_c, 0, 60, 0
2, 9216000, Note_off_c, 0, 64, 0
2, 9216000, Note_off_c, 0, 76, 0
2, 9216000, Note_on_c, 0, 45, 100
2, 9216000, Note_on_c, 0, 57, 100
2, 9216000, Note_on_c, 0, 66, 100
2, 9216000, Note_on_c, 0, 72, 100
2, 9231360, Note_off_c, 0, 45, 0
2, 9231360, Note_off_c, 0, 57, 0
2, 9231360, Note_off_c, 0, 66, 0
2, 9231360, Note_off_c, 0, 72, 0
2, 9231360, Note_on_c, 0, 38, 100
2, 9231360, Note_on_c, 0, 50, 100
2, 9231360, Note_on_c, 0, 66, 100
2, 9231360, Note_on_c, 0, 72, 100
2, 9246720, Note_off_c, 0, 38, 0
2, 9246720, Note_off_c, 0, 50, 0
2, 9246720, Note_off_c, 0, 66, 0
2, 9246720, Note_off_c, 0, 72, 0
2, 9246720, Note_on_c, 0, 43, 100
2, 9246720, Note_on_c, 0, 55, 100
2, 9246720, Note_on_c, 0, 65, 100
2, 9246720, Note_on_c, 0, 69, 100
2, 9246720, Note_on_c, 0, 76, 100
2, 9254400, Note_off_c, 0, 65, 0
2, 9254400, Note_off_c, 0, 69, 0
2, 9254400, Note_off_c, 0, 76, 0
2, 9254400, Note_on_c, 0, 65, 100
2, 9254400, Note_on_c, 0, 69, 100
2, 9254400, Note_on_c, 0, 74, 100
2, 9262080, Note_off_c, 0, 43, 0
2, 9262080, Note_off_c, 0, 55, 0
2, 9262080, Note_on_c, 0, 47, 100
2, 9262080, Note_on_c, 0, 59, 100
2, 9269760, Note_off_c, 0, 65, 0
2, 9269760, Note_off_c, 0, 69, 0
2, 9269760, Note_off_c, 0, 74, 0
2, 9269760, Note_on_c, 0, 64, 100
2, 9269760, Note_on_c, 0, 67, 100
2, 9269760, Note_on_c, 0, 72, 100
2, 9277440, Note_off_c, 0, 47, 0
2, 9277440, Note_off_c, 0, 59, 0
2, 9277440, Note_off_c, 0, 64, 0
2, 9277440, Note_off_c, 0, 67, 0
2, 9277440, Note_off_c, 0, 72, 0
2, 9277440, Note_on_c, 0, 48, 100
2, 9277440, Note_on_c, 0, 60, 100
2, 9277440, Note_on_c, 0, 64, 100
2, 9277440, Note_on_c, 0, 67, 100
2, 9277440, Note_on_c, 0, 72, 100
2, 9292800, Note_off_c, 0, 48, 0
2, 9292800, Note_off_c, 0, 60, 0
2, 9292800, Note_on_c, 0, 43, 117
2, 9292800, Note_on_c, 0, 55, 117
2, 9308160, Note_off_c, 0, 64, 0
2, 9308160, Note_off_c, 0, 67, 0
2, 9308160, Note_off_c, 0, 72, 0
2, 9308160, Note_off_c, 0, 43, 0
2, 9308160, Note_off_c, 0, 55, 0
2, 9308160, Note_on_c, 0, 36, 127
2, 9308160, Note_on_c, 0, 48, 127
2, 9308160, Note_on_c, 0, 72, 127
2, 9308160, Note_on_c, 0, 76, 127
2, 9308160, Note_on_c, 0, 79, 127
2, 9308160, Note_on_c, 0, 84, 127
2, 9323520, Note_off_c, 0, 36, 0
2, 9323520, Note_off_c, 0, 48, 0
2, 9323520, Note_off_c, 0, 72, 0
2, 9323520, Note_off_c, 0, 76, 0
2, 9323520, Note_off_c, 0, 79, 0
2, 9323520, Note_off_c, 0, 84, 0
2, 9368927, End_track
0, 0, End_of_file
